<svg xmlns="http://www.w3.org/2000/svg" xmlns:xlink="http://www.w3.org/1999/xlink" viewBox="0 0 248.5 133.9"><defs><style>.cls-1,.cls-4{fill:none;}.cls-2{clip-path:url(#clip-path);}.cls-3{fill:#0a1f8c;}.cls-4{stroke:#0a1f8c;stroke-miterlimit:10;stroke-width:0.27px;}</style><clipPath id="clip-path" transform="translate(0 0)"><rect class="cls-1" width="248.5" height="133.95"/></clipPath></defs><g id="Layer_2" data-name="Layer 2"><g id="Layer_1-2" data-name="Layer 1"><g id="Arrow_28" data-name="Arrow 28"><g class="cls-2"><path class="cls-3" d="M208.8,0V3.1a34.6,34.6,0,0,0,2.1,11,69.5,69.5,0,0,0,6.7,13c3.2,5.1,6.8,10,10.4,14.8s6.6,8.7,9.6,13.3a70.4,70.4,0,0,1,8.6,17.1,44.3,44.3,0,0,1,2.3,14.4,32.5,32.5,0,0,1-7.2,19.9,27.8,27.8,0,0,1-4.2,4.2c-.2.2-.3.5-.7.5l.6-2.6a27.9,27.9,0,0,0-1.4-16.4A51.6,51.6,0,0,0,228,79a141.5,141.5,0,0,0-13.6-15.3c-3-3-6.1-6-9.1-9.1a54.1,54.1,0,0,1-7-8.8A28.8,28.8,0,0,1,193.8,29a38.5,38.5,0,0,1,2.7-11.6,52.2,52.2,0,0,1,6.7-11.7A43.4,43.4,0,0,1,208.8,0" transform="translate(0 0)"/><path class="cls-3" d="M225,133.9c.2-1,.5-2.5.6-3.5a19.4,19.4,0,0,0-1.4-8.9A37.3,37.3,0,0,0,219,113a123.6,123.6,0,0,0-8.4-9.3c-2.1-2-4.2-4-6.2-6.2a25.1,25.1,0,0,1-4.3-6.3A17.4,17.4,0,0,1,199,78.9a27.5,27.5,0,0,1,8.1-13.7,1.3,1.3,0,0,1,.7-.5c0,.4-.1.7-.1,1a21.2,21.2,0,0,0,1.8,8.9,52.8,52.8,0,0,0,5.9,10.3c2.5,3.6,5.2,7.1,7.8,10.6a68.3,68.3,0,0,1,6,9.7,31.8,31.8,0,0,1,3.1,10.5,20.5,20.5,0,0,1-6,17.1l-.4.3h0c0,.1-.1.1-.1.2h-.2" transform="translate(0 0)"/><path class="cls-3" d="M81.6,68.1V43.4h3.5V73.3H80.6L63.3,48.5c0,.2,0,.1-.1.1h0c0,8.1,0,16.2-.1,24.4H59.8c-.2-.6-.3-26.8-.1-29.9h4.4c5.8,8.2,11.5,16.5,17.3,24.8h.2" transform="translate(0 0)"/><path class="cls-4" d="M81.6,68.1V43.4h3.5V73.3H80.6L63.3,48.5c0,.2,0,.1-.1.1h0c0,8.1,0,16.2-.1,24.4H59.8c-.2-.6-.3-26.8-.1-29.9h4.4c5.8,8.2,11.5,16.5,17.3,24.8h.2" transform="translate(0 0)"/><path class="cls-3" d="M122.2,43.3c3.8.1,7.5-.1,11.2.2a17.2,17.2,0,0,1,3.8.8,6.4,6.4,0,0,1,4.4,5.2,8.6,8.6,0,0,1-.1,4.5,7.3,7.3,0,0,1-4.9,4.9,7.7,7.7,0,0,1-2.3.6c2.8,4.7,5.7,9.2,8.5,13.8h-4.3l-8.2-13.4h-4.5V73.3h-3.6Zm3.6,13.2h5.3a10.6,10.6,0,0,0,3.9-.6,4.3,4.3,0,0,0,2.5-1.9,4.6,4.6,0,0,0,.5-2.3,4.3,4.3,0,0,0-3-4.5l-1.9-.4a50,50,0,0,0-6.7-.1c-.2,0-.4-.1-.6.1Z" transform="translate(0 0)"/><path class="cls-4" d="M122.2,43.3c3.8.1,7.5-.1,11.2.2a17.2,17.2,0,0,1,3.8.8,6.4,6.4,0,0,1,4.4,5.2,8.6,8.6,0,0,1-.1,4.5,7.3,7.3,0,0,1-4.9,4.9,7.7,7.7,0,0,1-2.3.6c2.8,4.7,5.7,9.2,8.5,13.8h-4.3l-8.2-13.4h-4.5V73.3h-3.6Zm3.6,13.2h5.3a10.6,10.6,0,0,0,3.9-.6,4.3,4.3,0,0,0,2.5-1.9,4.6,4.6,0,0,0,.5-2.3,4.3,4.3,0,0,0-3-4.5l-1.9-.4a50,50,0,0,0-6.7-.1c-.2,0-.4-.1-.6.1Z" transform="translate(0 0)"/><path class="cls-3" d="M118.3,73.4h-4.1c-1.1-2.5-2.1-4.9-3.1-7.4h-15C95,68.4,94,70.9,93,73.3H89l13.2-29.9h3.3c4.3,9.9,8.5,19.9,12.8,30M97.5,62.6h12.2l-5.9-14.7c-2.2,5-4.2,9.8-6.3,14.7" transform="translate(0 0)"/><path class="cls-4" d="M118.3,73.4h-4.1c-1.1-2.5-2.1-4.9-3.1-7.4h-15C95,68.4,94,70.9,93,73.3H89l13.2-29.9h3.3c4.3,9.9,8.5,19.9,12.8,30M97.5,62.6h12.2l-5.9-14.7c-2.2,5-4.2,9.8-6.3,14.7" transform="translate(0 0)"/><path class="cls-3" d="M55.8,73.4H51.6l-1.5-3.7L48.6,66H33.5l-3,7.3H26.4c4.5-10,8.9-20,13.2-29.9H43c4.3,9.9,8.5,19.9,12.8,30M35,62.6H47.2c-2-4.9-4-9.7-6-14.7L35,62.6" transform="translate(0 0)"/><path class="cls-4" d="M55.8,73.4H51.6l-1.5-3.7L48.6,66H33.5l-3,7.3H26.4c4.5-10,8.9-20,13.2-29.9H43c4.3,9.9,8.5,19.9,12.8,30M35,62.6H47.2c-2-4.9-4-9.7-6-14.7L35,62.6" transform="translate(0 0)"/><path class="cls-3" d="M4.4,70l2.9-2.4.4.2a7.2,7.2,0,0,0,5.6,3,7.4,7.4,0,0,0,5.3-1.6A4.5,4.5,0,0,0,20.1,64a3.7,3.7,0,0,0-1.6-2.1,11.1,11.1,0,0,0-2.7-1.3l-4.4-1.5a9.7,9.7,0,0,1-2.9-1.4c-2.8-1.8-3.7-4.4-3.4-7.5a7.7,7.7,0,0,1,4.7-6.4,12.5,12.5,0,0,1,11,.1,8.6,8.6,0,0,1,2.9,2.2l-3,2.6a5.5,5.5,0,0,0-3.3-2.5,8.3,8.3,0,0,0-6,.6A4.7,4.7,0,0,0,9,52.2a4.3,4.3,0,0,0,2,2.6,17.7,17.7,0,0,0,3.8,1.5,32.9,32.9,0,0,1,4.4,1.6l1.6.9a7.2,7.2,0,0,1,3.4,5.9c.2,4.8-2.6,7.6-6.5,8.8A13.8,13.8,0,0,1,8.1,73a7.8,7.8,0,0,1-3.7-3" transform="translate(0 0)"/><path class="cls-4" d="M4.4,70l2.9-2.4.4.2a7.2,7.2,0,0,0,5.6,3,7.4,7.4,0,0,0,5.3-1.6A4.5,4.5,0,0,0,20.1,64a3.7,3.7,0,0,0-1.6-2.1,11.1,11.1,0,0,0-2.7-1.3l-4.4-1.5a9.7,9.7,0,0,1-2.9-1.4c-2.8-1.8-3.7-4.4-3.4-7.5a7.7,7.7,0,0,1,4.7-6.4,12.5,12.5,0,0,1,11,.1,8.6,8.6,0,0,1,2.9,2.2l-3,2.6a5.5,5.5,0,0,0-3.3-2.5,8.3,8.3,0,0,0-6,.6A4.7,4.7,0,0,0,9,52.2a4.3,4.3,0,0,0,2,2.6,17.7,17.7,0,0,0,3.8,1.5,32.9,32.9,0,0,1,4.4,1.6l1.6.9a7.2,7.2,0,0,1,3.4,5.9c.2,4.8-2.6,7.6-6.5,8.8A13.8,13.8,0,0,1,8.1,73a7.8,7.8,0,0,1-3.7-3" transform="translate(0 0)"/><path class="cls-3" d="M172.1,47.3l-3,2.2-.4-.2a9.2,9.2,0,0,0-7.5-3.4c-3.9.1-6.7,2-8.9,5a13,13,0,0,0-2.2,9.4,12.1,12.1,0,0,0,4.5,8.2,10.7,10.7,0,0,0,6.2,2.3,11,11,0,0,0,6.4-1.5,16.7,16.7,0,0,0,1.6-1.2l1.5-1.3,2.5,2a1.7,1.7,0,0,1-.6.8,12.6,12.6,0,0,1-7.2,4.2,15.7,15.7,0,0,1-9.1-.7A14.1,14.1,0,0,1,148,66a16.2,16.2,0,0,1-.3-14.7,14.3,14.3,0,0,1,11.7-8.5,14.9,14.9,0,0,1,8.8,1.3,12,12,0,0,1,3.9,3.2" transform="translate(0 0)"/><path class="cls-4" d="M172.1,47.3l-3,2.2-.4-.2a9.2,9.2,0,0,0-7.5-3.4c-3.9.1-6.7,2-8.9,5a13,13,0,0,0-2.2,9.4,12.1,12.1,0,0,0,4.5,8.2,10.7,10.7,0,0,0,6.2,2.3,11,11,0,0,0,6.4-1.5,16.7,16.7,0,0,0,1.6-1.2l1.5-1.3,2.5,2a1.7,1.7,0,0,1-.6.8,12.6,12.6,0,0,1-7.2,4.2,15.7,15.7,0,0,1-9.1-.7A14.1,14.1,0,0,1,148,66a16.2,16.2,0,0,1-.3-14.7,14.3,14.3,0,0,1,11.7-8.5,14.9,14.9,0,0,1,8.8,1.3,12,12,0,0,1,3.9,3.2" transform="translate(0 0)"/><path class="cls-3" d="M136.2,91.5h-1.1V82.5c.3-.2.7-.1,1.2-.1l4.6,6.9h.2c.1-1.2,0-2.3,0-3.4V82.5h1.1v9H141l-4.7-7a5.6,5.6,0,0,0-.1,1.8v5.2" transform="translate(0 0)"/><path class="cls-4" d="M136.2,91.5h-1.1V82.5c.3-.2.7-.1,1.2-.1l4.6,6.9h.2c.1-1.2,0-2.3,0-3.4V82.5h1.1v9H141l-4.7-7a5.6,5.6,0,0,0-.1,1.8v5.2" transform="translate(0 0)"/><path class="cls-3" d="M120,91.6a4.7,4.7,0,1,1,4.8-4.6,4.7,4.7,0,0,1-4.8,4.6m0-1.1a3.6,3.6,0,0,0,0-7.2,3.6,3.6,0,0,0,0,7.2" transform="translate(0 0)"/><path class="cls-4" d="M120,91.6a4.7,4.7,0,1,1,4.8-4.6,4.7,4.7,0,0,1-4.8,4.6m0-1.1a3.6,3.6,0,0,0,0-7.2,3.6,3.6,0,0,0,0,7.2" transform="translate(0 0)"/><path class="cls-3" d="M43.9,86.9a4.7,4.7,0,1,1-9.4,0,4.6,4.6,0,0,1,4.7-4.7,4.7,4.7,0,0,1,4.7,4.7m-4.7,3.6a3.6,3.6,0,0,0,0-7.2,3.6,3.6,0,0,0-3.6,3.5,3.6,3.6,0,0,0,3.6,3.7" transform="translate(0 0)"/><path class="cls-4" d="M43.9,86.9a4.7,4.7,0,1,1-9.4,0,4.6,4.6,0,0,1,4.7-4.7,4.7,4.7,0,0,1,4.7,4.7m-4.7,3.6a3.6,3.6,0,0,0,0-7.2,3.6,3.6,0,0,0-3.6,3.5,3.6,3.6,0,0,0,3.6,3.7" transform="translate(0 0)"/><path class="cls-3" d="M152.6,90.1a6,6,0,0,1,.8-.8,5.3,5.3,0,0,0,2.1,1.1,2.8,2.8,0,0,0,1.8-.2,1.2,1.2,0,0,0,0-2.4l-1.2-.4-1.6-.4a2.5,2.5,0,0,1-1.6-2.1,2.4,2.4,0,0,1,1.4-2.2,3.3,3.3,0,0,1,2.9-.1,4,4,0,0,1,1.7.9c-.1.4-.4.6-.6.9l-1.1-.7a3,3,0,0,0-2.1-.1,1.3,1.3,0,0,0-1,1.1c-.1.6.3,1,.9,1.3l1.6.4,1.3.4a2.4,2.4,0,0,1,.4,4.1,3.8,3.8,0,0,1-3.3.5,5.7,5.7,0,0,1-2.4-1.3" transform="translate(0 0)"/><path class="cls-4" d="M152.6,90.1a6,6,0,0,1,.8-.8,5.3,5.3,0,0,0,2.1,1.1,2.8,2.8,0,0,0,1.8-.2,1.2,1.2,0,0,0,0-2.4l-1.2-.4-1.6-.4a2.5,2.5,0,0,1-1.6-2.1,2.4,2.4,0,0,1,1.4-2.2,3.3,3.3,0,0,1,2.9-.1,4,4,0,0,1,1.7.9c-.1.4-.4.6-.6.9l-1.1-.7a3,3,0,0,0-2.1-.1,1.3,1.3,0,0,0-1,1.1c-.1.6.3,1,.9,1.3l1.6.4,1.3.4a2.4,2.4,0,0,1,.4,4.1,3.8,3.8,0,0,1-3.3.5,5.7,5.7,0,0,1-2.4-1.3" transform="translate(0 0)"/><path class="cls-3" d="M17.9,90.1a2.7,2.7,0,0,1,.7-.8,8.3,8.3,0,0,0,1.6.9,3,3,0,0,0,2.1.1A1.4,1.4,0,0,0,23.4,89a1.3,1.3,0,0,0-1-1.3l-1.1-.3a5.5,5.5,0,0,1-1.7-.5A2.3,2.3,0,0,1,18.1,85a2.4,2.4,0,0,1,1.2-2.1,3.3,3.3,0,0,1,2.9-.4,5,5,0,0,1,1.9,1c-.1.4-.4.6-.6.9a4.6,4.6,0,0,0-2-.9,2.6,2.6,0,0,0-1.5.2,1.4,1.4,0,0,0-.7,1.1,1.2,1.2,0,0,0,.7,1.1,12.1,12.1,0,0,0,1.8.5l1.3.4a2.1,2.1,0,0,1,1.4,1.8,2.5,2.5,0,0,1-1,2.4,3.9,3.9,0,0,1-3.8.2,4.2,4.2,0,0,1-1.8-1.1" transform="translate(0 0)"/><path class="cls-4" d="M17.9,90.1a2.7,2.7,0,0,1,.7-.8,8.3,8.3,0,0,0,1.6.9,3,3,0,0,0,2.1.1A1.4,1.4,0,0,0,23.4,89a1.3,1.3,0,0,0-1-1.3l-1.1-.3a5.5,5.5,0,0,1-1.7-.5A2.3,2.3,0,0,1,18.1,85a2.4,2.4,0,0,1,1.2-2.1,3.3,3.3,0,0,1,2.9-.4,5,5,0,0,1,1.9,1c-.1.4-.4.6-.6.9a4.6,4.6,0,0,0-2-.9,2.6,2.6,0,0,0-1.5.2,1.4,1.4,0,0,0-.7,1.1,1.2,1.2,0,0,0,.7,1.1,12.1,12.1,0,0,0,1.8.5l1.3.4a2.1,2.1,0,0,1,1.4,1.8,2.5,2.5,0,0,1-1,2.4,3.9,3.9,0,0,1-3.8.2,4.2,4.2,0,0,1-1.8-1.1" transform="translate(0 0)"/><path class="cls-3" d="M69.9,82.4h1c.2.3.1.5.1.8s0,3.3.1,5a2.2,2.2,0,0,0,2.3,2.3,2.4,2.4,0,0,0,2.3-2.3V82.5h1.1V84c0,1.4.1,2.8,0,4.2a3.4,3.4,0,0,1-6.8.7,1.7,1.7,0,0,1-.1-.7V82.4" transform="translate(0 0)"/><path class="cls-4" d="M69.9,82.4h1c.2.3.1.5.1.8s0,3.3.1,5a2.2,2.2,0,0,0,2.3,2.3,2.4,2.4,0,0,0,2.3-2.3V82.5h1.1V84c0,1.4.1,2.8,0,4.2a3.4,3.4,0,0,1-6.8.7,1.7,1.7,0,0,1-.1-.7V82.4" transform="translate(0 0)"/><path class="cls-3" d="M13.7,86.6v1.7H.2a4.8,4.8,0,0,1,0-1.7Z" transform="translate(0 0)"/><path class="cls-4" d="M13.7,86.6v1.7H.2a4.8,4.8,0,0,1,0-1.7Z" transform="translate(0 0)"/><path class="cls-3" d="M177,88.3H163.5V86.6H177a9.6,9.6,0,0,1,0,1.7" transform="translate(0 0)"/><path class="cls-4" d="M177,88.3H163.5V86.6H177a9.6,9.6,0,0,1,0,1.7" transform="translate(0 0)"/><path class="cls-3" d="M55.2,90.4h5a3.4,3.4,0,0,1,0,1H54.1V82.5c.2-.2.4-.1.6-.1h.5Z" transform="translate(0 0)"/><path class="cls-4" d="M55.2,90.4h5a3.4,3.4,0,0,1,0,1H54.1V82.5c.2-.2.4-.1.6-.1h.5Z" transform="translate(0 0)"/><path class="cls-3" d="M89.3,83.6H87c-.3-.4-.1-.8-.2-1.1h5.9c.2.3.1.6.1,1H90.4v7.9H89.3Z" transform="translate(0 0)"/><path class="cls-4" d="M89.3,83.6H87c-.3-.4-.1-.8-.2-1.1h5.9c.2.3.1.6.1,1H90.4v7.9H89.3Z" transform="translate(0 0)"/><path class="cls-3" d="M103.6,82.4h1.2v9h-1.2Z" transform="translate(0 0)"/><path class="cls-4" d="M103.6,82.4h1.2v9h-1.2Z" transform="translate(0 0)"/></g></g></g></g></svg>