<svg xmlns="http://www.w3.org/2000/svg" xmlns:xlink="http://www.w3.org/1999/xlink" viewBox="0 0 54.6 54.6"><defs><style>.cls-1{fill:none;}.cls-2{clip-path:url(#clip-path);}.cls-3{fill:#0a1f8c;}.cls-4{fill:#fff;}</style><clipPath id="clip-path" transform="translate(0 0)"><rect class="cls-1" width="54.6" height="54.62"/></clipPath></defs><g id="Layer_2" data-name="Layer 2"><g id="Layer_1-2" data-name="Layer 1"><g class="cls-2"><path class="cls-3" d="M54.6,27.3A27.3,27.3,0,1,1,27.3,0,27.4,27.4,0,0,1,54.6,27.3" transform="translate(0 0)"/><path class="cls-4" d="M41.9,10.8v7.6h-.4c-2,0-4.1.1-6.2,0a1.9,1.9,0,0,0-1.8,1.2,2.8,2.8,0,0,0-.3,1.3V26h8.7v7.1H33.2V54.6H25V33.1H17.6V26H25v-.4c0-1.5-.1-3.1,0-4.7a11.1,11.1,0,0,1,3.4-7.5,9,9,0,0,1,5.5-2.5h8Z" transform="translate(0 0)"/></g></g></g></svg>