<svg xmlns="http://www.w3.org/2000/svg" xmlns:xlink="http://www.w3.org/1999/xlink" viewBox="0 0 54.6 54.6"><defs><style>.cls-1{fill:none;}.cls-2{clip-path:url(#clip-path);}.cls-3{fill:#0a1f8c;}.cls-4{fill:#fff;}</style><clipPath id="clip-path" transform="translate(0 0)"><rect class="cls-1" width="54.6" height="54.56"/></clipPath></defs><g id="Layer_2" data-name="Layer 2"><g id="Layer_1-2" data-name="Layer 1"><g class="cls-2"><path class="cls-3" d="M54.6,27.3A27.3,27.3,0,1,1,27.3,0,27.4,27.4,0,0,1,54.6,27.3" transform="translate(0 0)"/><path class="cls-4" d="M34.5,21.2h5.2c.2,0,.2-.1.2-.3V16.1c0-.3-.1-.4-.3-.4H34.8a.3.3,0,0,0-.3.3v5.1m-6.9,1.3a5.7,5.7,0,0,0-5.7,5.7,5.7,5.7,0,1,0,11.3-.1,5.7,5.7,0,0,0-5.6-5.6m-8.3,2.4H15.2c-.6,0-.6,0-.6.5V37.8a3.7,3.7,0,0,0,.1,1.1,3,3,0,0,0,3.1,2.2H37.3a3.2,3.2,0,0,0,3.2-3.2V25.3c0-.3-.1-.5-.4-.5H35.8a8.6,8.6,0,0,1-.9,8.1,8.2,8.2,0,0,1-7.2,3.9,8.1,8.1,0,0,1-6.4-2.6,8.8,8.8,0,0,1-2-9.4m8.3,19.3H17.8a6,6,0,0,1-5.7-3.5,4.8,4.8,0,0,1-.6-2.4c0-6.7-.1-13.4,0-20.1A6.2,6.2,0,0,1,18,12.1H37.2a6.3,6.3,0,0,1,6.5,6.1c0,6.6,0,13.3-.1,19.9a6,6,0,0,1-3.8,5.7,6,6,0,0,1-2.4.5H27.6" transform="translate(0 0)"/></g></g></g></svg>