<svg id="Layer_1" data-name="Layer 1" xmlns="http://www.w3.org/2000/svg" xmlns:xlink="http://www.w3.org/1999/xlink" viewBox="0 0 327.63 45.69"><defs><style>.cls-1{fill:none;}.cls-2{fill:#0a1f8c;}.cls-3{font-size:16px;font-family:CircularStd-Book, Circular Std;}.cls-10,.cls-3{fill:#fff;}.cls-4{letter-spacing:0em;}.cls-5{letter-spacing:0em;}.cls-6{letter-spacing:0em;}.cls-7{letter-spacing:-0.01em;}.cls-8{letter-spacing:0em;}.cls-9{clip-path:url(#clip-path);}</style><clipPath id="clip-path" transform="translate(-165.35 -217.06)"><rect class="cls-1" x="146.35" y="217.06" width="346.63" height="45.69"/></clipPath></defs><title>Asset_OpenPDFBlue</title><rect class="cls-2" width="327.63" height="45.69"/><text class="cls-3" transform="translate(65.95 28.16)">Open p<tspan class="cls-4" x="53.47" y="0">r</tspan><tspan x="59.26" y="0">o</tspan><tspan class="cls-5" x="68.42" y="0">d</tspan><tspan class="cls-4" x="77.76" y="0">u</tspan><tspan x="86.73" y="0">ct </tspan><tspan class="cls-5" x="104.89" y="0">c</tspan><tspan class="cls-6" x="113.31" y="0">atalo</tspan><tspan class="cls-7" x="148.94" y="0">g</tspan><tspan class="cls-8" x="158.11" y="0">u</tspan><tspan x="167.1" y="0">e </tspan></text><g class="cls-9"><path class="cls-10" d="M452.11,227.91s0,0,0,0c0,1.55,0,3.09,0,4.63a1.28,1.28,0,0,0,1.28,1.25c1.52,0,3.05,0,4.57,0,.05,0,.09,0,.06,0l-5.91-5.89m-15.64,28.42a1.38,1.38,0,0,0,1.52,1.54h19.66a1.39,1.39,0,0,0,1.52-1.54q0-9.9,0-19.81a4.06,4.06,0,0,0-.4-1.68,3.63,3.63,0,0,1-1.59.21h-3.53a2.62,2.62,0,0,1-2.79-2.77c0-1.29,0-2.59,0-3.88a3.33,3.33,0,0,1,.19-1.27,3.75,3.75,0,0,0-1.7-.4H438a1.41,1.41,0,0,0-1.55,1.57m-1.21,14c0-4.58,0-9.17,0-13.75a2.81,2.81,0,0,1,3-3c3.63.05,7.26,0,10.89,0a6,6,0,0,1,4.39,1.81c1.7,1.69,3.4,3.38,5.09,5.09a5.86,5.86,0,0,1,1.74,4.22q0,9.83,0,19.65a2.6,2.6,0,0,1-2.76,2.79H438a2.57,2.57,0,0,1-2.73-2.76c0-4.68,0-9.37,0-14.06" transform="translate(-165.35 -217.06)"/><path class="cls-10" d="M459.78,229.06l2.8-3.17-.45,0c-.71,0-.87-.17-.87-.9v-3.61h-3v3.29c0,1.17,0,1.17-1.15,1.24,0,0,0,0-.1.09l2.73,3.09m2.69-4.41h1.38a.61.61,0,0,1,.66.36.62.62,0,0,1-.14.69c-1.37,1.55-2.73,3.1-4.1,4.64a.6.6,0,0,1-1,0l-4.07-4.6a.62.62,0,0,1-.13-.74.6.6,0,0,1,.62-.32H457c.17-.18.1-.38.1-.55,0-1.06,0-2.12,0-3.17,0-.65.19-.84.85-.84h3.72c.62,0,.81.2.81.82,0,1.23,0,2.45,0,3.74" transform="translate(-165.35 -217.06)"/><path class="cls-10" d="M452.07,241.38c1.46,1.47,3.07,1.86,3.65,1-1-.92-2.28-.91-3.65-1m-5.23-10.78c-.76.64-.75,2.6,0,4.19.53-1,.55-3.46,0-4.19M440,246.29c.81.07,2.43-1.63,2.91-3-1.19.25-3,2.11-2.91,3m5.74-5.43a29.14,29.14,0,0,1,3.58-.61l-2.1-2.61c-.5,1.08-1,2.1-1.48,3.22m4.63.55a22,22,0,0,0-5.44.94,25.62,25.62,0,0,1-2.56,3.89,3.44,3.44,0,0,1-1.83,1.27,1.39,1.39,0,0,1-1.75-1.77,4.7,4.7,0,0,1,1.46-2.2,10.42,10.42,0,0,1,3.84-2.2,39.79,39.79,0,0,0,2.25-4.85,8.51,8.51,0,0,1-1.1-2.82,6.06,6.06,0,0,1,0-2.84,2.38,2.38,0,0,1,.49-.93,1.36,1.36,0,0,1,2.33.3,5,5,0,0,1,.37,2.12,10.18,10.18,0,0,1-.6,3.5c-.06.16-.11.32-.16.48,1.06,1.3,2.06,2.63,3.18,3.88a13.51,13.51,0,0,1,3.75.32,3.85,3.85,0,0,1,1.7.82,1.43,1.43,0,0,1-.4,2.52,3.18,3.18,0,0,1-2.77-.17,10.63,10.63,0,0,1-2.8-2.26" transform="translate(-165.35 -217.06)"/><path class="cls-10" d="M447.28,254.12c.81-.1,1.74.26,2.19-.67a2.55,2.55,0,0,0-.07-2.64c-.52-.75-1.37-.46-2.12-.53Zm-1.16-1.92v-2.11c0-.42.19-.69.62-.7a17,17,0,0,1,2,0,2.25,2.25,0,0,1,2.13,2.26,4.25,4.25,0,0,1-.1,1.55,2.19,2.19,0,0,1-2.17,1.76c-.6,0-1.21,0-1.81,0a.6.6,0,0,1-.68-.68V252.2Z" transform="translate(-165.35 -217.06)"/><path class="cls-10" d="M442.08,250.28V252a4.93,4.93,0,0,0,1.28,0,.75.75,0,0,0,.66-.81.74.74,0,0,0-.73-.8c-.39,0-.79,0-1.21,0m0,2.55v1.52c0,.39-.12.73-.57.73s-.56-.32-.56-.72v-4.28c0-.43.19-.68.62-.68a12.61,12.61,0,0,1,2.3,0,1.5,1.5,0,0,1,1.34,1.52,1.57,1.57,0,0,1-1.2,1.74,6.91,6.91,0,0,1-1.7.1l-.23,0" transform="translate(-165.35 -217.06)"/><path class="cls-10" d="M453,251.7h1.8c.51,0,.63.2.46.76a13.65,13.65,0,0,1-2.26.14c0,.59,0,1.19,0,1.79s-.26.74-.61.7a.54.54,0,0,1-.52-.58V250a.51.51,0,0,1,.52-.57c1,0,2,0,3,0a.65.65,0,0,1,.28.12.58.58,0,0,1,0,.6c-.82.34-1.73,0-2.64.18a10.24,10.24,0,0,0,0,1.39" transform="translate(-165.35 -217.06)"/></g></svg>