<svg id="Layer_1" data-name="Layer 1" xmlns="http://www.w3.org/2000/svg" xmlns:xlink="http://www.w3.org/1999/xlink" viewBox="0 0 402.13 46.69"><defs><style>.cls-1,.cls-4{fill:none;}.cls-2{fill:#fff;}.cls-3{clip-path:url(#clip-path);}.cls-4{stroke:#0a1f8c;}.cls-5{font-size:16px;font-family:CircularStd-Book, Circular Std;}.cls-5,.cls-9{fill:#0a1f8c;}.cls-6{letter-spacing:-0.01em;}.cls-7{letter-spacing:0em;}.cls-8{letter-spacing:0em;}</style><clipPath id="clip-path" transform="translate(-87.04 -215.56)"><rect class="cls-1" x="-201.85" y="215.56" width="691.02" height="46.69"/></clipPath></defs><title>Asset_OpenPDFWhite</title><rect class="cls-2" x="74" y="0.5" width="327.63" height="45.69"/><g class="cls-3"><rect class="cls-4" x="74" y="0.5" width="327.63" height="45.69"/></g><text class="cls-5" transform="translate(138.95 28.66)">Open p<tspan class="cls-6" x="53.47" y="0">r</tspan><tspan class="cls-7" x="59.26" y="0">o</tspan><tspan class="cls-6" x="68.42" y="0">d</tspan><tspan class="cls-8" x="77.74" y="0">u</tspan><tspan class="cls-7" x="86.73" y="0">ct </tspan><tspan class="cls-8" x="104.89" y="0">c</tspan><tspan x="113.31" y="0">atalo</tspan><tspan class="cls-6" x="148.94" y="0">gu</tspan><tspan x="167.09" y="0">e </tspan></text><g class="cls-3"><path class="cls-2" d="M103.92,226.91s0,0,0,0c0,1.55,0,3.09,0,4.63a1.3,1.3,0,0,0,1.28,1.25c1.53,0,3,0,4.58,0,0,0,.08,0,0,0l-5.9-5.89M88.28,255.33a1.38,1.38,0,0,0,1.51,1.54h19.66a1.4,1.4,0,0,0,1.53-1.54V235.52a4,4,0,0,0-.39-1.68,3.67,3.67,0,0,1-1.6.21h-3.53a2.63,2.63,0,0,1-2.79-2.77V227.4a3.33,3.33,0,0,1,.19-1.27,3.71,3.71,0,0,0-1.69-.4H89.83a1.4,1.4,0,0,0-1.55,1.57m-1.22,14c0-4.58,0-9.17,0-13.75a2.82,2.82,0,0,1,3-3c3.63.05,7.25,0,10.88,0a6,6,0,0,1,4.39,1.81c1.7,1.69,3.41,3.38,5.09,5.09a5.83,5.83,0,0,1,1.75,4.22q0,9.83,0,19.65a2.59,2.59,0,0,1-2.75,2.79H89.79a2.58,2.58,0,0,1-2.73-2.76V241.26" transform="translate(-87.04 -215.56)"/><path class="cls-2" d="M111.59,228.06l2.8-3.17-.45,0c-.71,0-.87-.17-.87-.9v-3.61h-3v3.29c0,1.17,0,1.17-1.15,1.24,0,0,0,0-.1.09l2.74,3.09m2.69-4.41h1.38a.61.61,0,0,1,.66.36.62.62,0,0,1-.15.69c-1.36,1.55-2.72,3.1-4.1,4.64a.59.59,0,0,1-1,0l-4.07-4.6a.63.63,0,0,1-.14-.74.62.62,0,0,1,.63-.32h1.28c.17-.18.11-.38.11-.55,0-1.06,0-2.12,0-3.17,0-.65.2-.84.85-.84h3.73c.61,0,.8.2.81.82v3.74" transform="translate(-87.04 -215.56)"/><path class="cls-2" d="M103.87,240.38c1.47,1.47,3.08,1.86,3.66,1-1-.92-2.29-.91-3.66-1M98.65,229.6c-.76.64-.75,2.6,0,4.19.53-1,.55-3.46,0-4.19m-6.87,15.69c.81.07,2.43-1.63,2.92-3-1.2.25-3,2.11-2.92,3m5.75-5.43a28.82,28.82,0,0,1,3.58-.61L99,236.64l-1.47,3.22m4.62.55a22,22,0,0,0-5.43.94,27.22,27.22,0,0,1-2.56,3.89,3.52,3.52,0,0,1-1.83,1.27,1.39,1.39,0,0,1-1.75-1.77,4.68,4.68,0,0,1,1.45-2.2,10.5,10.5,0,0,1,3.84-2.2,39.79,39.79,0,0,0,2.25-4.85,8.73,8.73,0,0,1-1.1-2.82,5.93,5.93,0,0,1,0-2.84,2.38,2.38,0,0,1,.49-.93,1.36,1.36,0,0,1,2.32.3,4.83,4.83,0,0,1,.37,2.12,10,10,0,0,1-.6,3.5l-.15.48c1,1.3,2,2.63,3.17,3.88a13.51,13.51,0,0,1,3.75.32,3.94,3.94,0,0,1,1.71.82,1.44,1.44,0,0,1-.41,2.52,3.15,3.15,0,0,1-2.76-.17,10.67,10.67,0,0,1-2.81-2.26" transform="translate(-87.04 -215.56)"/><path class="cls-2" d="M99.09,253.12c.81-.1,1.73.26,2.19-.67a2.53,2.53,0,0,0-.08-2.64c-.52-.75-1.37-.46-2.11-.53Zm-1.16-1.92v-2.11c0-.42.18-.69.62-.7a16.82,16.82,0,0,1,2,0,2.25,2.25,0,0,1,2.13,2.26,4.25,4.25,0,0,1-.09,1.55,2.2,2.2,0,0,1-2.18,1.76c-.6,0-1.2,0-1.81,0a.6.6,0,0,1-.68-.68V251.2Z" transform="translate(-87.04 -215.56)"/><path class="cls-2" d="M93.88,249.28V251a4.91,4.91,0,0,0,1.28,0,.76.76,0,0,0,.67-.81.74.74,0,0,0-.73-.8c-.4,0-.8,0-1.22,0m0,2.55v1.52c0,.39-.12.73-.56.73s-.57-.32-.57-.72c0-1.43,0-2.85,0-4.28,0-.43.2-.68.62-.68a12.74,12.74,0,0,1,2.31,0A1.49,1.49,0,0,1,97,250a1.56,1.56,0,0,1-1.19,1.74,6.91,6.91,0,0,1-1.7.1l-.24,0" transform="translate(-87.04 -215.56)"/><path class="cls-2" d="M104.82,250.7h1.81c.51,0,.63.2.45.76a13.53,13.53,0,0,1-2.25.14c0,.59,0,1.19,0,1.79s-.25.74-.61.7a.53.53,0,0,1-.51-.58c0-1.51,0-3,0-4.53a.51.51,0,0,1,.51-.57c1,0,2,0,3,0a.64.64,0,0,1,.29.12.58.58,0,0,1,0,.6c-.81.34-1.73,0-2.64.18a12.17,12.17,0,0,0,0,1.39" transform="translate(-87.04 -215.56)"/><path class="cls-9" d="M444.59,227.22c0-.05,0,0,0,0,0,1.54,0,3.08,0,4.62a1.29,1.29,0,0,0,1.28,1.25c1.53,0,3.05,0,4.58,0,0,0,.08,0,.05,0l-5.9-5.89M429,255.64a1.38,1.38,0,0,0,1.52,1.54h19.65a1.4,1.4,0,0,0,1.53-1.54V235.83a4,4,0,0,0-.39-1.67,3.62,3.62,0,0,1-1.59.2h-3.53a2.62,2.62,0,0,1-2.79-2.77c0-1.29,0-2.58,0-3.88a3.16,3.16,0,0,1,.2-1.27,3.76,3.76,0,0,0-1.7-.39q-5.67,0-11.34,0a1.4,1.4,0,0,0-1.55,1.57m-1.22,14c0-4.59,0-9.18,0-13.76a2.82,2.82,0,0,1,3-3c3.63.06,7.26,0,10.88,0a6,6,0,0,1,4.39,1.81q2.57,2.54,5.1,5.1a5.82,5.82,0,0,1,1.74,4.21q0,9.83,0,19.65a2.6,2.6,0,0,1-2.75,2.8H430.46a2.59,2.59,0,0,1-2.73-2.76V241.58" transform="translate(-87.04 -215.56)"/><path class="cls-9" d="M452.26,228.37l2.8-3.17-.45,0c-.71,0-.87-.18-.87-.91v-3.61h-3V224c0,1.17,0,1.17-1.16,1.24,0,0,0,0-.09.09.89,1,1.78,2,2.73,3.09M455,224h1.38a.62.62,0,0,1,.66.36.63.63,0,0,1-.14.7c-1.37,1.54-2.73,3.09-4.11,4.63a.59.59,0,0,1-1,0c-1.36-1.52-2.71-3.06-4.07-4.59a.62.62,0,0,1,.49-1.07h1.29c.17-.19.1-.38.1-.56,0-1,0-2.11,0-3.17,0-.64.19-.83.84-.83h3.73c.61,0,.81.2.81.82,0,1.22,0,2.44,0,3.74" transform="translate(-87.04 -215.56)"/><path class="cls-9" d="M444.55,240.69c1.46,1.47,3.07,1.86,3.65,1-1-.91-2.28-.91-3.65-1m-5.23-10.78c-.76.64-.75,2.61,0,4.19.53-1,.55-3.46,0-4.19m-6.87,15.69c.81.07,2.44-1.62,2.92-3-1.2.25-3,2.1-2.92,3m5.75-5.43a28.82,28.82,0,0,1,3.58-.61L439.67,237c-.49,1.09-1,2.1-1.47,3.22m4.62.55a22,22,0,0,0-5.43.94,26.4,26.4,0,0,1-2.56,3.89,3.48,3.48,0,0,1-1.83,1.27,1.39,1.39,0,0,1-1.75-1.77,4.75,4.75,0,0,1,1.45-2.2,10.64,10.64,0,0,1,3.84-2.2,42,42,0,0,0,2.26-4.84,8.66,8.66,0,0,1-1.11-2.83,6.06,6.06,0,0,1,.05-2.84,2.38,2.38,0,0,1,.49-.93,1.35,1.35,0,0,1,2.32.31,4.91,4.91,0,0,1,.38,2.11,10,10,0,0,1-.61,3.51l-.15.47c1.05,1.3,2.05,2.63,3.18,3.88a13.9,13.9,0,0,1,3.75.32,4,4,0,0,1,1.7.82,1.43,1.43,0,0,1-.4,2.52,3.17,3.17,0,0,1-2.77-.17,10.44,10.44,0,0,1-2.81-2.26" transform="translate(-87.04 -215.56)"/><path class="cls-9" d="M439.76,253.43c.81-.1,1.73.27,2.19-.67a2.52,2.52,0,0,0-.08-2.63c-.51-.75-1.36-.47-2.11-.54Zm-1.16-1.91V249.4c0-.41.18-.69.62-.69a19.23,19.23,0,0,1,2,0,2.27,2.27,0,0,1,2.14,2.27,4.26,4.26,0,0,1-.1,1.55,2.2,2.2,0,0,1-2.18,1.75c-.6,0-1.2,0-1.81,0a.61.61,0,0,1-.68-.69c0-.7,0-1.41,0-2.11Z" transform="translate(-87.04 -215.56)"/><path class="cls-9" d="M434.55,249.6v1.66a4.59,4.59,0,0,0,1.29,0,.76.76,0,0,0,.66-.81.74.74,0,0,0-.73-.79c-.4,0-.8,0-1.22,0m0,2.55c0,.51,0,1,0,1.51s-.13.73-.57.74-.57-.33-.57-.73c0-1.42,0-2.85,0-4.27,0-.44.2-.69.62-.69a13.69,13.69,0,0,1,2.31.06,1.48,1.48,0,0,1,1.33,1.51,1.54,1.54,0,0,1-1.19,1.74,6.91,6.91,0,0,1-1.7.1l-.24,0" transform="translate(-87.04 -215.56)"/><path class="cls-9" d="M445.5,251h1.8c.51,0,.63.2.46.76a13.72,13.72,0,0,1-2.26.14c0,.6,0,1.2,0,1.8s-.26.74-.61.69a.53.53,0,0,1-.52-.57v-4.54a.51.51,0,0,1,.52-.57c1,0,2,0,3,0,.1,0,.21.09.28.12a.6.6,0,0,1,0,.6c-.82.34-1.73,0-2.64.19a8.71,8.71,0,0,0,0,1.38" transform="translate(-87.04 -215.56)"/></g></svg>