<svg xmlns="http://www.w3.org/2000/svg" xmlns:xlink="http://www.w3.org/1999/xlink" viewBox="0 0 330 65"><defs><style>.cls-1,.cls-5{fill:none;}.cls-2{fill:#fff;}.cls-3{clip-path:url(#clip-path);}.cls-4{fill:#0a1f8c;}.cls-5{stroke:#0a1f8c;stroke-width:2px;}</style><clipPath id="clip-path"><rect class="cls-1" width="330" height="65"/></clipPath></defs><title>Asset 5</title><g id="Layer_2" data-name="Layer 2"><g id="Layer_1-2" data-name="Layer 1"><rect class="cls-2" width="330" height="65"/><g class="cls-3"><path class="cls-4" d="M241.71,30.4a1.61,1.61,0,0,1-.52,1.24,1.79,1.79,0,0,1-1.27.48,1.77,1.77,0,0,1-1.26-.48,1.74,1.74,0,0,1,0-2.47,1.76,1.76,0,0,1,1.25-.48,1.79,1.79,0,0,1,1.27.48,1.59,1.59,0,0,1,.52,1.23m-5.39,6.71a4.54,4.54,0,0,0,2.4.57,5.12,5.12,0,0,0,4-1.56,6.36,6.36,0,0,0,1.4-4.39A5.19,5.19,0,0,0,243,28.09a3.87,3.87,0,0,0-3-1.27,4.08,4.08,0,0,0-2.85,1A3.38,3.38,0,0,0,236,30.47a3.27,3.27,0,0,0,1,2.53,3.6,3.6,0,0,0,2.54,1,3.3,3.3,0,0,0,1.43-.31,2.3,2.3,0,0,0,1-.81A3.08,3.08,0,0,1,241,35a3.37,3.37,0,0,1-2.31.77,3.66,3.66,0,0,1-1.84-.45Zm-2,.33V27.06h-1.9a2.2,2.2,0,0,1-.91,1.38,3.15,3.15,0,0,1-1.87.57V30.5h2.49v6.94Zm-5.58-5.69h-4.64v1.89h4.64Zm-11.6,5.69a5.31,5.31,0,0,0,5.62-5.66,5.3,5.3,0,0,0-5.61-5.68H213V37.44Zm-1.84-2V28.15H217a3.36,3.36,0,0,1,2.44.93,3.62,3.62,0,0,1,1,2.7,3.58,3.58,0,0,1-1,2.69,3.38,3.38,0,0,1-2.45.93Zm-4.8-9.3h-2.24V37.44h2.24Zm-9,8.43-3-8.43h-2.42l4.19,11.34h2.28l4.2-11.34h-2.33ZM184,31.78a5.61,5.61,0,0,0,1.72,4.27,6,6,0,0,0,8.24,0,5.63,5.63,0,0,0,1.71-4.27A5.66,5.66,0,0,0,194,27.49a6,6,0,0,0-8.24,0A5.63,5.63,0,0,0,184,31.78m2.29,0A3.62,3.62,0,0,1,187.38,29a3.64,3.64,0,0,1,5,0,3.62,3.62,0,0,1,1.06,2.79,3.63,3.63,0,0,1-1.06,2.8,3.64,3.64,0,0,1-5,0,3.63,3.63,0,0,1-1.06-2.8m-8.59,5.92a5.88,5.88,0,0,0,2.09-.35,4.48,4.48,0,0,0,1.57-.93,5.3,5.3,0,0,0,1-1.23,5.2,5.2,0,0,0,.57-1.34l-2.07-.63a3.36,3.36,0,0,1-1.06,1.64,3.16,3.16,0,0,1-2.12.68,3.44,3.44,0,0,1-2.49-1,3.66,3.66,0,0,1-1-2.74,3.66,3.66,0,0,1,1-2.8,3.44,3.44,0,0,1,2.44-1,3,3,0,0,1,3.12,2.29l2.08-.66A5,5,0,0,0,181.19,27a5.29,5.29,0,0,0-3.49-1.1,5.72,5.72,0,0,0-5.78,5.92,5.66,5.66,0,0,0,5.81,5.9M165.14,27.22h-1.92v1.1a1.34,1.34,0,0,1-.31.91,1.16,1.16,0,0,1-.91.34h-.4v1.89H163v3.66a2.36,2.36,0,0,0,.67,1.79,2.52,2.52,0,0,0,1.82.65,3.13,3.13,0,0,0,1.2-.2V35.6a2.21,2.21,0,0,1-.65.07,1,1,0,0,1-.71-.21.92.92,0,0,1-.22-.7v-3.3h1.58V29.57h-1.58Zm-6.85,10.22h2a12.65,12.65,0,0,1-.08-1.42V29.57h-2.13v4.58a1.58,1.58,0,0,1-.4,1.13,1.42,1.42,0,0,1-1.08.42,1.35,1.35,0,0,1-1.08-.44,1.75,1.75,0,0,1-.36-1.14V29.57h-2.13v5a3.15,3.15,0,0,0,.8,2.21,2.76,2.76,0,0,0,2.19.89,3.21,3.21,0,0,0,1.27-.26,2,2,0,0,0,.91-.79,4.68,4.68,0,0,0,.06.84m-10.93-8.11a4,4,0,0,0-3,1.19,4.38,4.38,0,0,0,0,6,4.28,4.28,0,0,0,5.9,0,4.38,4.38,0,0,0,0-6,4,4,0,0,0-2.95-1.19m0,6.42a1.91,1.91,0,0,1-1.41-.59,2.27,2.27,0,0,1-.59-1.65,2.23,2.23,0,0,1,.59-1.65,1.87,1.87,0,0,1,1.41-.59,1.89,1.89,0,0,1,1.42.59,2.23,2.23,0,0,1,.58,1.65,2.26,2.26,0,0,1-.58,1.65,1.93,1.93,0,0,1-1.42.59M140,33.49a2.37,2.37,0,0,1-.55,1.64,1.93,1.93,0,0,1-2.8,0,2.29,2.29,0,0,1-.57-1.64,2.24,2.24,0,0,1,.56-1.63,2,2,0,0,1,2.81,0,2.33,2.33,0,0,1,.55,1.63m-3.92,3.95v-1a2.54,2.54,0,0,0,2.33,1.16,3.41,3.41,0,0,0,2.69-1.18,4.39,4.39,0,0,0,1-3,4.4,4.4,0,0,0-1-3,3.31,3.31,0,0,0-2.66-1.16,3.23,3.23,0,0,0-1.46.32,2.15,2.15,0,0,0-.92.76V25.86H134V37.44Zm-8-1.36a1,1,0,0,1-.75-.26.88.88,0,0,1-.27-.65c0-.56.32-.89,1-1l1.78-.27v.35a1.75,1.75,0,0,1-.49,1.4,1.83,1.83,0,0,1-1.24.42m-3.15-.78a2.23,2.23,0,0,0,.74,1.66,2.74,2.74,0,0,0,2,.71A2.56,2.56,0,0,0,130,36.5a4.62,4.62,0,0,0,.08.94h2a6.62,6.62,0,0,1-.1-1.24V32.32a3,3,0,0,0-.83-2.15,3.52,3.52,0,0,0-2.59-.84,3.43,3.43,0,0,0-2.37.79,2.77,2.77,0,0,0-1,1.8l1.89.4a1.38,1.38,0,0,1,.44-.91,1.5,1.5,0,0,1,1.06-.37,1.52,1.52,0,0,1,1,.29,1,1,0,0,1,.34.74c0,.32-.2.5-.59.56l-1.94.29a3.08,3.08,0,0,0-1.69.76,2.11,2.11,0,0,0-.66,1.62m-7-.64a1.73,1.73,0,0,1-1.79,1.2,2,2,0,0,1-1.38-.51,1.8,1.8,0,0,1-.61-1.28h5.64V34c0-.07,0-.15,0-.26s0-.2,0-.29a4.19,4.19,0,0,0-1-3,4,4,0,0,0-5.58.07,4,4,0,0,0-1.15,3,4,4,0,0,0,1.18,3.06,4,4,0,0,0,2.88,1.14,3.75,3.75,0,0,0,2.33-.7,3.48,3.48,0,0,0,1.26-1.79Zm-3.73-2a1.61,1.61,0,0,1,.51-1.07,1.7,1.7,0,0,1,1.25-.48,1.71,1.71,0,0,1,1.29.45,1.63,1.63,0,0,1,.47,1.1Zm-3-3.07-.5,0a2.23,2.23,0,0,0-2.24,1.23V29.57h-2.06v7.87h2.12v-3.6a2.24,2.24,0,0,1,.56-1.7,2.09,2.09,0,0,1,1.48-.52,3.55,3.55,0,0,1,.64.06Zm-10.61-.21a4,4,0,0,0-3,1.19,4.38,4.38,0,0,0,0,6,4.28,4.28,0,0,0,5.9,0,4.38,4.38,0,0,0,0-6,4,4,0,0,0-3-1.19m0,6.42a1.93,1.93,0,0,1-1.42-.59,2.26,2.26,0,0,1-.58-1.65,2.23,2.23,0,0,1,.58-1.65,2,2,0,0,1,2.83,0,2.23,2.23,0,0,1,.59,1.65,2.27,2.27,0,0,1-.59,1.65,1.93,1.93,0,0,1-1.41.59M85,37.44v-4.6a1.64,1.64,0,0,1,.39-1.12,1.41,1.41,0,0,1,1.08-.44,1.33,1.33,0,0,1,1,.41,1.61,1.61,0,0,1,.35,1.08v4.67H90v-4.6a1.59,1.59,0,0,1,.4-1.11,1.35,1.35,0,0,1,1.06-.45,1.27,1.27,0,0,1,1,.41,1.61,1.61,0,0,1,.35,1.08v4.67h2.06v-5.1a2.88,2.88,0,0,0-.82-2.24,2.91,2.91,0,0,0-2-.75,2.76,2.76,0,0,0-2.49,1.31,2.35,2.35,0,0,0-2.34-1.31,2.93,2.93,0,0,0-1.34.32,2.08,2.08,0,0,0-1,.86v-1h-2v7.87ZM70.66,33.49a2.25,2.25,0,0,1,.55-1.61,1.83,1.83,0,0,1,1.4-.6,1.81,1.81,0,0,1,1.39.59,2.28,2.28,0,0,1,.55,1.61A2.37,2.37,0,0,1,74,35.12a1.76,1.76,0,0,1-1.39.61,1.81,1.81,0,0,1-1.41-.6,2.37,2.37,0,0,1-.54-1.64m6-7.63h-2.1v4.5a2.27,2.27,0,0,0-2.22-1,3.47,3.47,0,0,0-2.71,1.18,4.57,4.57,0,0,0,0,5.9,3.58,3.58,0,0,0,2.75,1.18,2.93,2.93,0,0,0,1.36-.31,2,2,0,0,0,.85-.8,4.89,4.89,0,0,0,.08.91h2c0-.42-.06-.9-.06-1.42ZM63.19,36.08a1,1,0,0,1-.75-.26.85.85,0,0,1-.28-.65c0-.56.33-.89,1-1l1.78-.27v.35a1.78,1.78,0,0,1-.49,1.4,1.84,1.84,0,0,1-1.24.42M60,35.3A2.2,2.2,0,0,0,60.78,37a2.73,2.73,0,0,0,2,.71,2.57,2.57,0,0,0,2.32-1.17,4.62,4.62,0,0,0,.08.94h2A7.59,7.59,0,0,1,67,36.2V32.32a2.91,2.91,0,0,0-.83-2.15,3.51,3.51,0,0,0-2.59-.84,3.45,3.45,0,0,0-2.37.79,2.81,2.81,0,0,0-1,1.8l1.89.4a1.38,1.38,0,0,1,.44-.91A1.53,1.53,0,0,1,63.59,31a1.51,1.51,0,0,1,1,.29.92.92,0,0,1,.35.74c0,.32-.2.5-.6.56l-1.93.29a3.11,3.11,0,0,0-1.7.76A2.11,2.11,0,0,0,60,35.3M57,34.66a1.73,1.73,0,0,1-1.8,1.2,2,2,0,0,1-1.37-.51,1.76,1.76,0,0,1-.61-1.28H58.8l0-.11c0-.07,0-.15,0-.26v-.29a4.15,4.15,0,0,0-1-3,4,4,0,0,0-5.57.07,4,4,0,0,0-1.15,3,4,4,0,0,0,1.18,3.06,4,4,0,0,0,2.88,1.14,3.77,3.77,0,0,0,2.33-.7,3.4,3.4,0,0,0,1.25-1.79Zm-3.73-2a1.61,1.61,0,0,1,.51-1.07A1.7,1.7,0,0,1,55,31.06a1.75,1.75,0,0,1,1.29.45,1.63,1.63,0,0,1,.47,1.1Zm-8.95-1.44V28h1.8a1.84,1.84,0,0,1,1.3.43,1.63,1.63,0,0,1,0,2.29,1.84,1.84,0,0,1-1.3.43Zm3.38,6.27h2.46L47.68,32.8a3.24,3.24,0,0,0,1.77-1.17,3.29,3.29,0,0,0,.65-2,3.38,3.38,0,0,0-1-2.5,3.56,3.56,0,0,0-2.63-1H42.05V37.44h2.22V33.08h1.16Z"/></g><polygon class="cls-4" points="272.35 32.5 272.35 35.23 277.07 35.23 277.07 40.13 279.87 40.13 279.87 35.23 284.62 35.23 284.62 32.5 279.87 32.5 279.87 27.63 277.07 27.63 277.07 32.5 272.35 32.5"/><polygon class="cls-5" points="272.35 32.5 272.35 35.23 277.07 35.23 277.07 40.13 279.87 40.13 279.87 35.23 284.62 35.23 284.62 32.5 279.87 32.5 279.87 27.63 277.07 27.63 277.07 32.5 272.35 32.5"/></g></g></svg>