<svg xmlns="http://www.w3.org/2000/svg" viewBox="0 0 51 51"><defs><style>.cls-1{fill:#0a1f8c;stroke:#0a1f8c;stroke-miterlimit:10;}.cls-2{fill:#fff;}</style></defs><title>Asset 13</title><g id="Layer_2" data-name="Layer 2"><g id="Layer_1-2" data-name="Layer 1"><rect class="cls-1" x="0.5" y="0.5" width="50" height="50"/><g id="Layer_2-2" data-name="Layer 2"><g id="Layer_1-2-2" data-name="Layer 1-2"><g id="Layer_2-2-2" data-name="Layer 2-2"><g id="Layer_1-2-2-2" data-name="Layer 1-2-2"><path class="cls-2" d="M28.54,12.54h0v4.63a1.27,1.27,0,0,0,1.23,1.28H34.4l-5.9-5.89M12.9,41a1.37,1.37,0,0,0,1.17,1.54h20A1.4,1.4,0,0,0,35.6,41V21.15a4.09,4.09,0,0,0-.39-1.68,3.63,3.63,0,0,1-1.6.21H30.08a2.63,2.63,0,0,1-2.79-2.44,1.6,1.6,0,0,1,0-.31V13a3.24,3.24,0,0,1,.19-1.27,3.85,3.85,0,0,0-1.69-.4H14.45a1.41,1.41,0,0,0-1.55,1.23,1,1,0,0,0,0,.34m-1.22,14V13.18a2.83,2.83,0,0,1,2.63-3h.37c3.62.05,7.25,0,10.88,0A6,6,0,0,1,30,12c1.7,1.69,3.41,3.38,5.09,5.09a5.86,5.86,0,0,1,1.73,4.16V40.92a2.6,2.6,0,0,1-2.4,2.77h-20a2.57,2.57,0,0,1-2.73-2.4h0a2.16,2.16,0,0,1,0-.36v-14"/><path class="cls-2" d="M36.2,13.69,39,10.52h-.45c-.72,0-.87-.18-.87-.91V6h-3V9.24c0,1.17,0,1.17-1.15,1.24l-.1.09,2.76,3.09m2.7-4.42h1.38a.65.65,0,0,1,.66.36.61.61,0,0,1-.15.69c-1.37,1.55-2.73,3.1-4.1,4.64a.59.59,0,0,1-.81.19.5.5,0,0,1-.19-.19c-1.37-1.53-2.72-3.07-4.07-4.6a.63.63,0,0,1-.14-.74.6.6,0,0,1,.63-.32h1.28c.17-.18.11-.37.11-.55V5.56c0-.65.2-.83.85-.84h3.72c.62,0,.81.2.82.82v3.7"/><path class="cls-2" d="M28.49,26c1.47,1.47,3.08,1.86,3.66,1-1-.92-2.29-.91-3.66-1M23.26,15.24c-.75.64-.74,2.61,0,4.19.53-1.05.55-3.46,0-4.19M16.4,30.93c.81.07,2.43-1.63,2.92-3.05-1.2.26-3,2.11-2.92,3.05m5.75-5.43a28.78,28.78,0,0,1,3.58-.61l-2.11-2.65c-.5,1.08-1,2.1-1.47,3.22m4.62.55a22.23,22.23,0,0,0-5.43.94,26.44,26.44,0,0,1-2.57,3.89A3.4,3.4,0,0,1,17,32.11a1.39,1.39,0,0,1-1.76-.87h0a1.36,1.36,0,0,1,0-.89,4.61,4.61,0,0,1,1.45-2.2,10.46,10.46,0,0,1,3.84-2.2,39,39,0,0,0,2.28-4.85,8.68,8.68,0,0,1-1.1-2.82,5.81,5.81,0,0,1,.05-2.84,2.36,2.36,0,0,1,.48-.93,1.36,1.36,0,0,1,1.91-.24,1.5,1.5,0,0,1,.42.55,4.78,4.78,0,0,1,.37,2.11,9.91,9.91,0,0,1-.6,3.5l-.15.48c1,1.3,2,2.63,3.17,3.88a13.51,13.51,0,0,1,3.75.32,3.94,3.94,0,0,1,1.71.82,1.44,1.44,0,0,1,.29,2,1.4,1.4,0,0,1-.7.5,3.14,3.14,0,0,1-2.77-.17A10.35,10.35,0,0,1,26.79,26"/><path class="cls-2" d="M23.68,38.75c.82-.1,1.74.27,2.2-.67a2.53,2.53,0,0,0-.08-2.64c-.52-.75-1.37-.46-2.12-.53Zm-1.15-1.92V34.69c0-.42.18-.69.62-.69h2a2.26,2.26,0,0,1,2.15,2.24,4.48,4.48,0,0,1-.09,1.55A2.21,2.21,0,0,1,25,39.54H23.22a.6.6,0,0,1-.68-.5h0a.48.48,0,0,1,0-.17v-2Z"/><path class="cls-2" d="M18.5,34.92v1.66a4.57,4.57,0,0,0,1.28,0,.82.82,0,0,0,0-1.61H18.5m0,2.54V39c0,.39-.12.73-.56.74s-.57-.33-.57-.73V34.76c0-.43.2-.68.62-.68a12.73,12.73,0,0,1,2.31,0,1.49,1.49,0,0,1,1.38,1.52,1.56,1.56,0,0,1-1.19,1.74,6.46,6.46,0,0,1-1.7.1h-.24"/><path class="cls-2" d="M29.44,36.33h1.81c.51,0,.63.2.45.76a13.08,13.08,0,0,1-2.25.14V39c0,.6-.25.74-.61.7a.53.53,0,0,1-.51-.55h0V34.61a.51.51,0,0,1,.44-.56h3.07a.81.81,0,0,1,.29.12.59.59,0,0,1,0,.6c-.81.34-1.73,0-2.64.18a10.74,10.74,0,0,0,0,1.39"/></g></g></g></g></g></g></svg>