<svg xmlns="http://www.w3.org/2000/svg" xmlns:xlink="http://www.w3.org/1999/xlink" viewBox="0 0 143 67.85"><defs><style>.cls-1{fill:none;}.cls-2{clip-path:url(#clip-path);}.cls-3{fill:#fff;}.cls-4{fill:#0a1f8c;}</style><clipPath id="clip-path" transform="translate(0 0)"><rect class="cls-1" width="143" height="67.85"/></clipPath></defs><title>Asset 10</title><g id="Layer_2" data-name="Layer 2"><g id="Layer_1-2" data-name="Layer 1"><g class="cls-2"><rect class="cls-3" width="143" height="67.85" rx="5"/><path class="cls-4" d="M81.17,35.35A3.25,3.25,0,0,1,82,33a2.62,2.62,0,0,1,2-.85A2.66,2.66,0,0,1,86,33a3.29,3.29,0,0,1,.78,2.32A3.46,3.46,0,0,1,86,37.7a2.59,2.59,0,0,1-2,.87,2.62,2.62,0,0,1-2-.86,3.39,3.39,0,0,1-.78-2.36m8.55-11h-3v6.46c-.5-.93-1.57-1.4-3.2-1.4a5,5,0,0,0-3.89,1.7,6.08,6.08,0,0,0-1.53,4.21,6,6,0,0,0,1.55,4.27,5.17,5.17,0,0,0,4,1.69,4.17,4.17,0,0,0,1.94-.44,2.87,2.87,0,0,0,1.23-1.15A6.43,6.43,0,0,0,86.9,41h2.92c-.06-.61-.1-1.3-.1-2.05ZM68.56,34.52a2.52,2.52,0,0,1,.58-1.68,2.22,2.22,0,0,1,3.12,0,2.47,2.47,0,0,1,.51,1.63V41h3.06V33.9a4.89,4.89,0,0,0-1-3.23,3.74,3.74,0,0,0-3.05-1.25,4.29,4.29,0,0,0-1.89.43,3.15,3.15,0,0,0-1.38,1.27V29.71h-3V41h3ZM60.38,37a2.49,2.49,0,0,1-2.58,1.72,2.87,2.87,0,0,1-2-.73A2.52,2.52,0,0,1,55,36.18H63l0-.16c0-.1,0-.22,0-.37s0-.29,0-.42a6,6,0,0,0-1.48-4.3,5.78,5.78,0,0,0-8,.11,5.83,5.83,0,0,0-1.65,4.29,5.82,5.82,0,0,0,1.7,4.4,5.71,5.71,0,0,0,4.14,1.65,5.35,5.35,0,0,0,3.34-1,4.87,4.87,0,0,0,1.81-2.57Zm-5.36-3a2.32,2.32,0,0,1,.73-1.54,2.43,2.43,0,0,1,1.8-.69,2.48,2.48,0,0,1,1.85.65,2.36,2.36,0,0,1,.68,1.58Zm-13.76,3.8A3.7,3.7,0,0,0,41.6,39a4.26,4.26,0,0,0,.78,1.13,3.78,3.78,0,0,0,1.46.92,6,6,0,0,0,2.14.36,4.49,4.49,0,0,0,3.24-1.11,3.49,3.49,0,0,0,1.15-2.62,3.13,3.13,0,0,0-.86-2.21A4.67,4.67,0,0,0,47,34.18l-1.61-.35c-.69-.12-1-.46-1-1a1,1,0,0,1,.42-.81,1.71,1.71,0,0,1,1-.32,1.79,1.79,0,0,1,1.32.46,1.9,1.9,0,0,1,.54,1.06l2.55-.57a3.27,3.27,0,0,0-.32-1,4.44,4.44,0,0,0-.73-1.05,3.82,3.82,0,0,0-1.36-.85,5.72,5.72,0,0,0-2-.33,4.35,4.35,0,0,0-3,1.08,3.38,3.38,0,0,0-1.21,2.62,3.12,3.12,0,0,0,.8,2.14,4.24,4.24,0,0,0,2.38,1.24l1.49.35c.81.17,1.22.54,1.22,1.1a1,1,0,0,1-.39.81A1.72,1.72,0,0,1,46,39a2.17,2.17,0,0,1-1.49-.49,1.75,1.75,0,0,1-.58-1.24Z" transform="translate(0 0)"/></g></g></g></svg>