<svg xmlns="http://www.w3.org/2000/svg" xmlns:xlink="http://www.w3.org/1999/xlink" viewBox="0 0 101.5 67.85"><defs><style>.cls-1{fill:none;}.cls-2{clip-path:url(#clip-path);}.cls-3{fill:#00edba;}.cls-4{fill:#0a1f8c;}</style><clipPath id="clip-path" transform="translate(0 0)"><rect id="SVGID" class="cls-1" width="101.5" height="67.85"/></clipPath></defs><title>Asset 3</title><g id="Layer_2" data-name="Layer 2"><g id="Layer_1-2" data-name="Layer 1"><g class="cls-2"><rect class="cls-3" width="101.5" height="67.85" rx="5"/><path class="cls-4" d="M51.19,32.89A8.09,8.09,0,0,0,53.65,39a8.63,8.63,0,0,0,11.84,0A8.09,8.09,0,0,0,68,32.89a8.14,8.14,0,0,0-2.46-6.17,8.66,8.66,0,0,0-11.84,0,8.14,8.14,0,0,0-2.46,6.17m3.29,0a5.22,5.22,0,0,1,1.51-4,5.25,5.25,0,0,1,7.16,0,5.22,5.22,0,0,1,1.52,4,5.22,5.22,0,0,1-1.52,4,5.25,5.25,0,0,1-7.16,0,5.21,5.21,0,0,1-1.51-4m-6,8.16V24.72H45.25V35.51L38.47,24.72h-4V41h3.18V29.46L45.09,41Z" transform="translate(0 0)"/></g><g class="cls-2"><rect class="cls-3" width="101.5" height="67.85" rx="5"/><path class="cls-4" d="M51.19,32.89A8.09,8.09,0,0,0,53.65,39a8.63,8.63,0,0,0,11.84,0A8.09,8.09,0,0,0,68,32.89a8.14,8.14,0,0,0-2.46-6.17,8.66,8.66,0,0,0-11.84,0,8.14,8.14,0,0,0-2.46,6.17m3.29,0a5.22,5.22,0,0,1,1.51-4,5.25,5.25,0,0,1,7.16,0,5.22,5.22,0,0,1,1.52,4,5.22,5.22,0,0,1-1.52,4,5.25,5.25,0,0,1-7.16,0,5.21,5.21,0,0,1-1.51-4m-6,8.16V24.72H45.25V35.51L38.47,24.72h-4V41h3.18V29.46L45.09,41Z" transform="translate(0 0)"/></g></g></g></svg>