<svg xmlns="http://www.w3.org/2000/svg" viewBox="0 0 128.15 67.85"><defs><style>.cls-1{fill:#fff;}.cls-2{fill:#0a1f8c;}</style></defs><title>Asset 2</title><g id="Layer_2" data-name="Layer 2"><g id="Layer_1-2" data-name="Layer 1"><rect class="cls-1" width="128.15" height="67.85" rx="5"/><path class="cls-2" d="M521.19,377.32H520v1.09a1,1,0,0,1-.26.75,1,1,0,0,1-.77.29h-.37v1.19h1.29v3.69a2,2,0,0,0,.5,1.42,1.9,1.9,0,0,0,1.38.5,2.43,2.43,0,0,0,.89-.13V385a2,2,0,0,1-.52.06,1,1,0,0,1-.72-.22,1,1,0,0,1-.21-.7v-3.5h1.45v-1.19h-1.45Zm-5.6-.42a.9.9,0,0,0,.27.66.91.91,0,0,0,.66.28,1,1,0,0,0,.68-.28.91.91,0,0,0,.28-.66.94.94,0,0,0-1-.95.87.87,0,0,0-.66.28.92.92,0,0,0-.27.67m1.59,2.55h-1.3v6.73h1.3Zm-8-2.13H508v1.09a1.09,1.09,0,0,1-.26.75,1,1,0,0,1-.78.29h-.36v1.19h1.29v3.69a2,2,0,0,0,.5,1.42,1.89,1.89,0,0,0,1.37.5,2.45,2.45,0,0,0,.9-.13V385a2,2,0,0,1-.52.06,1,1,0,0,1-.72-.22,1,1,0,0,1-.22-.7v-3.5h1.46v-1.19h-1.46Zm-5.25,8.05a4.47,4.47,0,0,0,.06.81h1.26a9.91,9.91,0,0,1-.07-1.25v-5.48h-1.32v4.06a1.84,1.84,0,0,1-.4,1.25,1.5,1.5,0,0,1-1.19.47,1.39,1.39,0,0,1-1.16-.49,2.06,2.06,0,0,1-.37-1.25v-4h-1.31v4.24a2.79,2.79,0,0,0,.68,1.94,2.35,2.35,0,0,0,1.84.76,2.71,2.71,0,0,0,1.17-.26,1.67,1.67,0,0,0,.81-.76m-9.49-6.13a3.26,3.26,0,0,0-2.47,1,3.88,3.88,0,0,0,0,5.12,3.52,3.52,0,0,0,5,0,3.85,3.85,0,0,0,0-5.12,3.26,3.26,0,0,0-2.47-1m0,6a2,2,0,0,1-1.49-.63,2.46,2.46,0,0,1-.61-1.77,2.42,2.42,0,0,1,.61-1.76,2.05,2.05,0,0,1,3,0,2.42,2.42,0,0,1,.61,1.76,2.46,2.46,0,0,1-.61,1.77,2,2,0,0,1-1.49.63m-5.91-2.43a2.67,2.67,0,0,1-.54,1.75,1.79,1.79,0,0,1-1.44.66,1.84,1.84,0,0,1-1.45-.67,2.62,2.62,0,0,1-.56-1.74,2.52,2.52,0,0,1,.56-1.72,1.85,1.85,0,0,1,1.45-.65,1.8,1.8,0,0,1,1.45.64,2.63,2.63,0,0,1,.53,1.73m-4,3.4v-1a2.33,2.33,0,0,0,2.18,1.16,2.85,2.85,0,0,0,2.3-1,4.37,4.37,0,0,0,0-5.11,2.81,2.81,0,0,0-2.29-1,2.7,2.7,0,0,0-1.37.33,2.1,2.1,0,0,0-.85.82V376h-1.3v10.14Zm-6.61-.9a1.06,1.06,0,0,1-.79-.29,1,1,0,0,1-.3-.69.91.91,0,0,1,.26-.68,1.26,1.26,0,0,1,.72-.32l2.06-.31v.31a1.92,1.92,0,0,1-.54,1.51,2.05,2.05,0,0,1-1.41.47m-2.44-.91a1.88,1.88,0,0,0,.63,1.42,2.28,2.28,0,0,0,1.63.6,2.48,2.48,0,0,0,2.17-1.12,5.17,5.17,0,0,0,.07.91h1.29a6.4,6.4,0,0,1-.09-1.11V381.7a2.43,2.43,0,0,0-.68-1.77,2.89,2.89,0,0,0-2.12-.69,3,3,0,0,0-1.87.6,2.23,2.23,0,0,0-.89,1.58l1.26.29a1.5,1.5,0,0,1,.47-1,1.46,1.46,0,0,1,1.06-.37,1.56,1.56,0,0,1,1.09.33,1.15,1.15,0,0,1,.37.87c0,.29-.18.46-.52.5l-1.82.27a2.62,2.62,0,0,0-1.49.65,1.82,1.82,0,0,0-.56,1.39m-5.93-.5a1.83,1.83,0,0,1-1.89,1.36,2,2,0,0,1-1.44-.58,2,2,0,0,1-.59-1.47h5.07c0-.11,0-.25,0-.42a3.73,3.73,0,0,0-.85-2.57,3.26,3.26,0,0,0-4.65.05,3.59,3.59,0,0,0-.95,2.55,3.53,3.53,0,0,0,1,2.63,3.29,3.29,0,0,0,2.4,1,3.12,3.12,0,0,0,1.93-.6,2.9,2.9,0,0,0,1.09-1.53Zm-3.88-1.75a1.82,1.82,0,0,1,.55-1.21,1.71,1.71,0,0,1,1.28-.51,1.83,1.83,0,0,1,1.35.48,1.79,1.79,0,0,1,.5,1.24Zm-2.18-2.74a2.12,2.12,0,0,0-.44-.05,2.08,2.08,0,0,0-2,1.29v-1.17h-1.29v6.73h1.31v-3.37c0-1.39.62-2.08,1.85-2.08a3.9,3.9,0,0,1,.58,0Zm-8.87-.14a3.27,3.27,0,0,0-2.47,1,3.86,3.86,0,0,0,0,5.12,3.51,3.51,0,0,0,4.95,0,3.53,3.53,0,0,0,1-2.56,3.59,3.59,0,0,0-1-2.56,3.28,3.28,0,0,0-2.48-1m0,6a2,2,0,0,1-1.49-.63,2.5,2.5,0,0,1-.61-1.77,2.46,2.46,0,0,1,.61-1.76,2.07,2.07,0,0,1,3,0,2.45,2.45,0,0,1,.6,1.76,2.5,2.5,0,0,1-.6,1.77,2,2,0,0,1-1.5.63m-13.58,1v-4.06a1.75,1.75,0,0,1,.44-1.23,1.46,1.46,0,0,1,1.13-.48,1.31,1.31,0,0,1,1.07.42,1.66,1.66,0,0,1,.36,1.12v4.23h1.32v-4.07a1.77,1.77,0,0,1,.43-1.22,1.44,1.44,0,0,1,1.12-.48,1.32,1.32,0,0,1,1.07.42,1.66,1.66,0,0,1,.36,1.12v4.23h1.3v-4.37a2.54,2.54,0,0,0-.68-1.9,2.26,2.26,0,0,0-1.64-.66,2.39,2.39,0,0,0-2.26,1.27,1.94,1.94,0,0,0-.81-.95,2.34,2.34,0,0,0-1.2-.32,2.56,2.56,0,0,0-1.18.28,2.13,2.13,0,0,0-.87.81v-.89h-1.26v6.73Z" transform="translate(-416.88 -332.33)"/><path class="cls-2" d="M515.43,362.58a2,2,0,0,0-.43-.05,2.09,2.09,0,0,0-2,1.29v-1.17h-1.29v6.73H513V366c0-1.39.62-2.08,1.85-2.08a3.77,3.77,0,0,1,.57.05Zm-9,5.9a1.06,1.06,0,0,1-.79-.29.93.93,0,0,1-.3-.69.88.88,0,0,1,.26-.68,1.26,1.26,0,0,1,.72-.32l2.05-.31v.31a1.91,1.91,0,0,1-.53,1.51,2,2,0,0,1-1.41.47m-2.44-.91a1.88,1.88,0,0,0,.63,1.42,2.26,2.26,0,0,0,1.63.6,2.48,2.48,0,0,0,2.17-1.12,5.17,5.17,0,0,0,.07.91h1.28a7.51,7.51,0,0,1-.08-1.11V364.9a2.4,2.4,0,0,0-.69-1.77,2.85,2.85,0,0,0-2.11-.69,3,3,0,0,0-1.88.6,2.25,2.25,0,0,0-.88,1.58l1.26.29a1.54,1.54,0,0,1,.46-1,1.48,1.48,0,0,1,1.07-.37,1.58,1.58,0,0,1,1.09.33,1.15,1.15,0,0,1,.36.87c0,.29-.17.46-.51.5l-1.82.27a2.59,2.59,0,0,0-1.49.65,1.84,1.84,0,0,0-.56,1.39m-2.43-.5a1.82,1.82,0,0,1-1.89,1.36,2,2,0,0,1-1.44-.58,2,2,0,0,1-.59-1.47h5.06a2.42,2.42,0,0,0,0-.42,3.73,3.73,0,0,0-.85-2.57,3,3,0,0,0-2.38-.95,3,3,0,0,0-2.27,1,3.61,3.61,0,0,0-.95,2.55,3.56,3.56,0,0,0,1,2.63,3.3,3.3,0,0,0,2.41,1,3.12,3.12,0,0,0,1.93-.6,3,3,0,0,0,1.09-1.53Zm-3.88-1.75a1.85,1.85,0,0,1,.54-1.21,1.75,1.75,0,0,1,1.29-.51,1.69,1.69,0,0,1,1.85,1.72Zm-7.41.1a2.1,2.1,0,0,1,.44-1.28,1.37,1.37,0,0,1,1.13-.5c1.05,0,1.57.56,1.57,1.69v4.05h1.31v-4.27a2.88,2.88,0,0,0-.62-1.92,2.2,2.2,0,0,0-1.78-.74,2.32,2.32,0,0,0-2,1v-4.19h-1.31v10.14h1.31Zm-9.94-3a3.26,3.26,0,0,0-2.47,1,3.88,3.88,0,0,0,0,5.12,3.52,3.52,0,0,0,5,0,3.85,3.85,0,0,0,0-5.12,3.26,3.26,0,0,0-2.47-1m0,6a2,2,0,0,1-1.49-.63,2.46,2.46,0,0,1-.61-1.77,2.42,2.42,0,0,1,.61-1.76,2.05,2.05,0,0,1,3,0,2.42,2.42,0,0,1,.61,1.76,2.46,2.46,0,0,1-.61,1.77,2,2,0,0,1-1.49.63m-6-7.89h-1.2v1.09a1.09,1.09,0,0,1-.26.75,1,1,0,0,1-.78.29h-.36v1.19H473v3.69a1.91,1.91,0,0,0,.5,1.42,1.88,1.88,0,0,0,1.37.5,2.48,2.48,0,0,0,.9-.13V368.2a2,2,0,0,1-.52.06.8.8,0,0,1-.94-.92v-3.5h1.46v-1.19h-1.46Zm-8.12,6.55a1.82,1.82,0,0,1-1.89,1.36,1.91,1.91,0,0,1-1.43-.58,2,2,0,0,1-.6-1.47h5.07a2.42,2.42,0,0,0,0-.42,3.73,3.73,0,0,0-.86-2.57,3,3,0,0,0-2.38-.95,3,3,0,0,0-2.26,1,3.58,3.58,0,0,0-1,2.55,3.53,3.53,0,0,0,1,2.63,3.29,3.29,0,0,0,2.4,1,3.1,3.1,0,0,0,1.93-.6,2.92,2.92,0,0,0,1.1-1.53Zm-3.88-1.75a1.82,1.82,0,0,1,.55-1.21,1.75,1.75,0,0,1,1.29-.51,1.7,1.7,0,0,1,1.85,1.72Zm-1.82-2.67h-1.82l-2.91,3v-6.39h-1.3v10.14h1.3v-2l.94-.94,2.2,3h1.65l-2.93-3.89Zm-9.87-2.55a1,1,0,0,0,.94.94.93.93,0,0,0,.67-.28.87.87,0,0,0,.28-.66.9.9,0,0,0-.28-.68.92.92,0,0,0-.67-.27.87.87,0,0,0-.66.28.93.93,0,0,0-.28.67m1.6,2.55h-1.3v6.73h1.3Zm-3.54-3.41h-1.32v10.14h1.32Z" transform="translate(-416.88 -332.33)"/><path class="cls-2" d="M538.91,351.67a5,5,0,0,0,.07.91h1.27a11.59,11.59,0,0,1-.07-1.25v-8.89h-1.3v4.36a1.77,1.77,0,0,0-.71-.81,2.5,2.5,0,0,0-1.35-.33,2.92,2.92,0,0,0-2.29,1,3.67,3.67,0,0,0-.9,2.5,3.76,3.76,0,0,0,.88,2.56,2.91,2.91,0,0,0,2.31,1,2.28,2.28,0,0,0,2.09-1.2ZM535,349.19a2.61,2.61,0,0,1,.54-1.71,1.78,1.78,0,0,1,1.44-.65,1.73,1.73,0,0,1,1.42.64,2.64,2.64,0,0,1,.52,1.69,2.73,2.73,0,0,1-.54,1.75,1.68,1.68,0,0,1-1.41.69,1.73,1.73,0,0,1-1.45-.67,2.75,2.75,0,0,1-.52-1.74m-3-6.75h-1.31v10.14H532Zm-4.8,9.33a4.47,4.47,0,0,0,.06.81h1.26a9.91,9.91,0,0,1-.07-1.25v-5.48h-1.32v4.06a1.84,1.84,0,0,1-.41,1.25,1.49,1.49,0,0,1-1.19.47,1.37,1.37,0,0,1-1.15-.49,2,2,0,0,1-.37-1.25v-4h-1.32v4.24a2.79,2.79,0,0,0,.69,1.94,2.34,2.34,0,0,0,1.83.76,2.79,2.79,0,0,0,1.18-.26,1.76,1.76,0,0,0,.81-.76m-9.49-6.13a3.26,3.26,0,0,0-2.47,1,3.85,3.85,0,0,0,0,5.12,3.52,3.52,0,0,0,5,0,3.88,3.88,0,0,0,0-5.12,3.26,3.26,0,0,0-2.47-1m0,6a2,2,0,0,1-1.49-.63,2.46,2.46,0,0,1-.61-1.77,2.42,2.42,0,0,1,.61-1.76,2.05,2.05,0,0,1,3,0,2.42,2.42,0,0,1,.61,1.76,2.46,2.46,0,0,1-.61,1.77,2,2,0,0,1-1.49.63m-10-5.76-1.75,5.06-1.52-5.06H502.9l2.21,6.73h1.39l1.75-5.12,1.79,5.12h1.36l2.18-6.73H512.2l-1.49,5.06L509,345.85Zm-9.68-3.2h-1.4v9.93h1.4Zm-8.24,1.07h-1.21v1.09a1,1,0,0,1-.26.75,1,1,0,0,1-.77.29h-.37V347h1.29v3.69a2,2,0,0,0,.5,1.42,1.9,1.9,0,0,0,1.38.5,2.43,2.43,0,0,0,.89-.13V351.4a2,2,0,0,1-.52.06,1,1,0,0,1-.72-.22,1,1,0,0,1-.21-.7V347h1.45v-1.19h-1.45Zm-5.25,8a4.59,4.59,0,0,0,.05.81h1.26a12.22,12.22,0,0,1-.07-1.25v-5.48h-1.31v4.06a1.84,1.84,0,0,1-.41,1.25,1.5,1.5,0,0,1-1.19.47,1.36,1.36,0,0,1-1.15-.49,2,2,0,0,1-.38-1.25v-4h-1.31v4.24a2.83,2.83,0,0,0,.68,1.94,2.35,2.35,0,0,0,1.84.76,2.71,2.71,0,0,0,1.17-.26,1.74,1.74,0,0,0,.82-.76m-7.4-2.59a2.67,2.67,0,0,1-.54,1.75,1.79,1.79,0,0,1-1.44.66,1.84,1.84,0,0,1-1.45-.67,2.62,2.62,0,0,1-.56-1.74,2.52,2.52,0,0,1,.56-1.72,1.85,1.85,0,0,1,1.45-.65,1.8,1.8,0,0,1,1.45.64,2.63,2.63,0,0,1,.53,1.73m-4,3.4v-1a2.33,2.33,0,0,0,2.18,1.16,2.85,2.85,0,0,0,2.3-1,4.37,4.37,0,0,0,0-5.11,2.81,2.81,0,0,0-2.29-1,2.7,2.7,0,0,0-1.37.33,2.1,2.1,0,0,0-.85.82v-4.36h-1.3v10.14Zm-9.06-.9a.94.94,0,0,0,.27.7.92.92,0,0,0,.67.26.62.62,0,0,0,.31-.07,1.69,1.69,0,0,1-.34.95,1.36,1.36,0,0,1-.83.56v.73a2.35,2.35,0,0,0,1.43-.79,2.72,2.72,0,0,0,.65-1.94,1.37,1.37,0,0,0-.33-1,1,1,0,0,0-.81-.35,1,1,0,0,0-.73.28.87.87,0,0,0-.29.65m-2.51-1.41a1.81,1.81,0,0,1-1.89,1.36,2,2,0,0,1-1.43-.58,2,2,0,0,1-.6-1.47h5.07a2.42,2.42,0,0,0,0-.42,3.73,3.73,0,0,0-.85-2.57,3.06,3.06,0,0,0-2.38-.95,3,3,0,0,0-2.27,1,4,4,0,0,0,0,5.18,3.29,3.29,0,0,0,2.4,1,3.15,3.15,0,0,0,1.94-.6,3,3,0,0,0,1.09-1.53Zm-3.87-1.75a1.8,1.8,0,0,1,.54-1.21,1.75,1.75,0,0,1,1.29-.51,1.7,1.7,0,0,1,1.85,1.72Zm-2.19-2.74a2,2,0,0,0-.43,0,2.09,2.09,0,0,0-2,1.29v-1.17H451.7v6.73H453v-3.37c0-1.39.62-2.08,1.85-2.08a3.66,3.66,0,0,1,.57.05Zm-7.22,6a5.82,5.82,0,0,0,0,.81h1.26a12.22,12.22,0,0,1-.07-1.25v-5.48h-1.31v4.06a1.84,1.84,0,0,1-.41,1.25,1.49,1.49,0,0,1-1.19.47,1.36,1.36,0,0,1-1.15-.49,2,2,0,0,1-.37-1.25v-4h-1.32v4.24a2.79,2.79,0,0,0,.69,1.94,2.33,2.33,0,0,0,1.83.76,2.79,2.79,0,0,0,1.18-.26,1.76,1.76,0,0,0,.81-.76m-11.33-.94a2.23,2.23,0,0,0,.8,1.34,2.87,2.87,0,0,0,1.95.62,2.5,2.5,0,0,0,1.81-.64,2,2,0,0,0,.65-1.45,1.83,1.83,0,0,0-.48-1.28,2.54,2.54,0,0,0-1.38-.72l-1.09-.24c-.52-.11-.77-.38-.77-.81a.8.8,0,0,1,.31-.63,1.2,1.2,0,0,1,.81-.26,1.8,1.8,0,0,1,.65.11,1,1,0,0,1,.43.32,1.84,1.84,0,0,1,.22.36,1.15,1.15,0,0,1,.1.33l1.16-.44a2.52,2.52,0,0,0-.21-.54,2.69,2.69,0,0,0-.42-.58,2.11,2.11,0,0,0-.79-.5,3.33,3.33,0,0,0-1.14-.18,2.44,2.44,0,0,0-1.69.63,1.93,1.93,0,0,0-.71,1.49,1.75,1.75,0,0,0,.45,1.22,2.18,2.18,0,0,0,1.23.67l1.15.26c.58.13.87.42.87.86a.78.78,0,0,1-.31.64,1.26,1.26,0,0,1-.84.26,1.58,1.58,0,0,1-1.09-.36,1.43,1.43,0,0,1-.48-.9ZM431,348.69a2.13,2.13,0,0,1,.41-1.33,1.39,1.39,0,0,1,1.16-.52c1,0,1.57.56,1.57,1.69v4.05h1.31v-4.27a2.93,2.93,0,0,0-.62-1.92,2.47,2.47,0,0,0-3.86.42v-1h-1.29v6.73H431Zm-4.8,3.08a5.82,5.82,0,0,0,.05.81h1.26a12.22,12.22,0,0,1-.07-1.25v-5.48H426.1v4.06a1.84,1.84,0,0,1-.41,1.25,1.49,1.49,0,0,1-1.19.47,1.36,1.36,0,0,1-1.15-.49,2,2,0,0,1-.37-1.25v-4h-1.32v4.24a2.79,2.79,0,0,0,.69,1.94,2.33,2.33,0,0,0,1.83.76,2.79,2.79,0,0,0,1.18-.26,1.76,1.76,0,0,0,.81-.76" transform="translate(-416.88 -332.33)"/></g></g></svg>