<svg xmlns="http://www.w3.org/2000/svg" xmlns:xlink="http://www.w3.org/1999/xlink" viewBox="0 0 101.5 67.85"><defs><style>.cls-1{fill:none;}.cls-2{clip-path:url(#clip-path);}.cls-3{fill:#00edba;}.cls-4{fill:#0a1f8c;}</style><clipPath id="clip-path" transform="translate(0 0)"><rect class="cls-1" width="101.5" height="67.85"/></clipPath></defs><title>Asset 6</title><g id="Layer_2" data-name="Layer 2"><g id="Layer_1-2" data-name="Layer 1"><g class="cls-2"><rect class="cls-3" width="101.5" height="67.85" rx="5"/><path class="cls-4" d="M70.86,28.61a5.06,5.06,0,0,0-.53-1.45,5.41,5.41,0,0,0-1-1.34,4.79,4.79,0,0,0-1.77-1.05A7.52,7.52,0,0,0,65,24.38a5.86,5.86,0,0,0-4,1.47,4.66,4.66,0,0,0-1.67,3.63,4.23,4.23,0,0,0,1.15,3,5.79,5.79,0,0,0,3.13,1.63l2.28.46a2.83,2.83,0,0,1,1.46.71,1.68,1.68,0,0,1,.51,1.23,1.73,1.73,0,0,1-.7,1.44,3,3,0,0,1-1.94.56,3.47,3.47,0,0,1-2.54-.88,3.33,3.33,0,0,1-1-2.18l-2.94.78a5,5,0,0,0,.52,1.78,6.19,6.19,0,0,0,1.18,1.63,5.37,5.37,0,0,0,2,1.24,8.16,8.16,0,0,0,2.79.46,6,6,0,0,0,4.28-1.51,4.7,4.7,0,0,0,1.6-3.53,4.44,4.44,0,0,0-1.19-3.08,5.9,5.9,0,0,0-3.36-1.73l-2.28-.44c-1.18-.23-1.77-.84-1.77-1.84a1.89,1.89,0,0,1,.71-1.46A2.78,2.78,0,0,1,65,27.18a2.85,2.85,0,0,1,2.1.72A3,3,0,0,1,68,29.48ZM56.72,41V38h-7V34.27h6.37V31.44H49.68V27.71h7v-3H46.51V41ZM35.49,34.18V41h3.17V34.18l5.75-9.46H40.85l-3.66,6.47-3.66-6.47H29.81Z" transform="translate(0 0)"/></g></g></g></svg>