<svg xmlns="http://www.w3.org/2000/svg" xmlns:xlink="http://www.w3.org/1999/xlink" viewBox="0 0 128.15 67.85"><defs><style>.cls-1{fill:none;}.cls-2{clip-path:url(#clip-path);}.cls-3{fill:#00edba;}.cls-4{fill:#0a1f8c;}</style><clipPath id="clip-path" transform="translate(0 0)"><rect class="cls-1" width="128.15" height="67.85"/></clipPath></defs><title>Asset 1</title><g id="Layer_2" data-name="Layer 2"><g id="Layer_1-2" data-name="Layer 1"><g class="cls-2"><rect class="cls-3" width="128.15" height="67.85" rx="5"/><path class="cls-4" d="M104.3,45h-1.2v1.09a1.09,1.09,0,0,1-.26.75,1,1,0,0,1-.78.29h-.36v1.19H103V52a1.91,1.91,0,0,0,.5,1.42,1.88,1.88,0,0,0,1.37.5,2.48,2.48,0,0,0,.9-.13V52.67a2,2,0,0,1-.52.06,1,1,0,0,1-.72-.22,1,1,0,0,1-.22-.7v-3.5h1.46V47.12H104.3Zm-5.6-.42a.9.9,0,0,0,.27.66,1,1,0,0,0,.67.28.93.93,0,0,0,.67-.28.87.87,0,0,0,.28-.66.9.9,0,0,0-.28-.68.92.92,0,0,0-.67-.27.91.91,0,0,0-.67.28.92.92,0,0,0-.27.67m1.6,2.55H99v6.73h1.3Zm-8-2.13h-1.2v1.09a1.09,1.09,0,0,1-.26.75,1,1,0,0,1-.78.29h-.36v1.19H91V52a1.91,1.91,0,0,0,.51,1.42,1.86,1.86,0,0,0,1.37.5,2.52,2.52,0,0,0,.9-.13V52.67a2.06,2.06,0,0,1-.52.06,1,1,0,0,1-.72-.22,1,1,0,0,1-.22-.7v-3.5h1.46V47.12H92.29ZM87,53a4.47,4.47,0,0,0,.06.81h1.26a9.91,9.91,0,0,1-.07-1.25V47.12H87v4.06a1.84,1.84,0,0,1-.41,1.25,1.49,1.49,0,0,1-1.19.47,1.37,1.37,0,0,1-1.15-.49,2,2,0,0,1-.37-1.25v-4H82.53v4.24a2.79,2.79,0,0,0,.69,1.94,2.34,2.34,0,0,0,1.83.76,2.79,2.79,0,0,0,1.18-.26A1.76,1.76,0,0,0,87,53m-9.49-6.13a3.26,3.26,0,0,0-2.47,1,3.85,3.85,0,0,0,0,5.12,3.52,3.52,0,0,0,5,0,3.88,3.88,0,0,0,0-5.12,3.26,3.26,0,0,0-2.47-1m0,6a2,2,0,0,1-1.49-.63,2.46,2.46,0,0,1-.61-1.77,2.42,2.42,0,0,1,.61-1.76,2.05,2.05,0,0,1,3,0,2.46,2.46,0,0,1,.61,1.76A2.5,2.5,0,0,1,79,52.25a2,2,0,0,1-1.49.63m-5.91-2.43a2.62,2.62,0,0,1-.55,1.75,1.77,1.77,0,0,1-1.44.66,1.8,1.8,0,0,1-1.44-.67,2.62,2.62,0,0,1-.56-1.74,2.52,2.52,0,0,1,.56-1.72,1.81,1.81,0,0,1,1.44-.65,1.79,1.79,0,0,1,1.45.64,2.58,2.58,0,0,1,.54,1.73m-4,3.4v-1A2.35,2.35,0,0,0,69.85,54a2.83,2.83,0,0,0,2.29-1,4.37,4.37,0,0,0,0-5.11,3.1,3.1,0,0,0-3.66-.66,2.1,2.1,0,0,0-.85.82V43.71h-1.3V53.85Zm-6.6-.9a1.06,1.06,0,0,1-.79-.29A.92.92,0,0,1,60,52a.88.88,0,0,1,.27-.68,1.26,1.26,0,0,1,.71-.32L63,50.66V51a2,2,0,0,1-.53,1.51,2.07,2.07,0,0,1-1.41.47M58.62,52a1.88,1.88,0,0,0,.63,1.42,2.25,2.25,0,0,0,1.62.6,2.47,2.47,0,0,0,1.36-.34,2.43,2.43,0,0,0,.81-.78,6.35,6.35,0,0,0,.07.91H64.4a7.62,7.62,0,0,1-.08-1.11V49.37a2.4,2.4,0,0,0-.69-1.77,2.87,2.87,0,0,0-2.11-.69,3,3,0,0,0-1.88.6,2.25,2.25,0,0,0-.88,1.58l1.26.29a1.54,1.54,0,0,1,.46-1A1.48,1.48,0,0,1,61.55,48a1.58,1.58,0,0,1,1.09.33,1.14,1.14,0,0,1,.36.87c0,.29-.17.46-.52.5L60.66,50a2.59,2.59,0,0,0-1.48.65A1.82,1.82,0,0,0,58.62,52m-5.94-.5a1.81,1.81,0,0,1-1.89,1.36,1.93,1.93,0,0,1-1.43-.58,2,2,0,0,1-.6-1.47h5.07a2.42,2.42,0,0,0,0-.42A3.73,3.73,0,0,0,53,47.86a3.06,3.06,0,0,0-2.38-1,3,3,0,0,0-2.27,1,4,4,0,0,0,0,5.18,3.29,3.29,0,0,0,2.4,1,3.15,3.15,0,0,0,1.94-.6,3,3,0,0,0,1.09-1.53Zm-3.87-1.75a1.8,1.8,0,0,1,.54-1.21,1.75,1.75,0,0,1,1.29-.51,1.7,1.7,0,0,1,1.85,1.72Zm-2.19-2.74a2,2,0,0,0-.43,0,2.09,2.09,0,0,0-2,1.29V47.12H42.88v6.73H44.2V50.48c0-1.39.62-2.08,1.85-2.08a3.77,3.77,0,0,1,.57.05Zm-8.86-.14a3.26,3.26,0,0,0-2.47,1,3.88,3.88,0,0,0,0,5.12,3.52,3.52,0,0,0,5,0,3.88,3.88,0,0,0,0-5.12,3.26,3.26,0,0,0-2.47-1m0,6a2,2,0,0,1-1.49-.63,2.46,2.46,0,0,1-.61-1.77,2.42,2.42,0,0,1,.61-1.76,2.05,2.05,0,0,1,3,0,2.42,2.42,0,0,1,.61,1.76,2.46,2.46,0,0,1-.61,1.77,2,2,0,0,1-1.49.63m-13.58,1V49.79a1.79,1.79,0,0,1,.43-1.23,1.47,1.47,0,0,1,1.14-.48,1.34,1.34,0,0,1,1.07.42,1.66,1.66,0,0,1,.36,1.12v4.23h1.31V49.78a1.77,1.77,0,0,1,.44-1.22,1.44,1.44,0,0,1,1.12-.48,1.34,1.34,0,0,1,1.07.42,1.65,1.65,0,0,1,.35,1.12v4.23h1.31V49.48a2.54,2.54,0,0,0-.68-1.9,2.29,2.29,0,0,0-1.65-.66,2.38,2.38,0,0,0-2.25,1.27,2,2,0,0,0-.81-.95,2.4,2.4,0,0,0-1.21-.32A2.52,2.52,0,0,0,25,47.2a2,2,0,0,0-.87.81v-.89H22.88v6.73Z" transform="translate(0 0)"/><path class="cls-4" d="M98.55,30.24a3.13,3.13,0,0,0-.44,0,2.08,2.08,0,0,0-2,1.29V30.31H94.81v6.74h1.32V33.67c0-1.38.61-2.07,1.84-2.07a3.9,3.9,0,0,1,.58,0Zm-9,5.91a1.07,1.07,0,0,1-.79-.29.93.93,0,0,1-.3-.69.87.87,0,0,1,.27-.68,1.23,1.23,0,0,1,.71-.32l2.06-.31v.31a2,2,0,0,1-.53,1.51,2,2,0,0,1-1.42.47m-2.43-.91a1.88,1.88,0,0,0,.63,1.42,2.25,2.25,0,0,0,1.62.6,2.46,2.46,0,0,0,1.35-.34,2.37,2.37,0,0,0,.82-.78,5.17,5.17,0,0,0,.07.91h1.29a6.44,6.44,0,0,1-.08-1.11V32.57a2.4,2.4,0,0,0-.69-1.77A2.87,2.87,0,0,0,90,30.1a3,3,0,0,0-1.88.61,2.22,2.22,0,0,0-.88,1.58l1.26.29A1.44,1.44,0,0,1,90,31.22a1.61,1.61,0,0,1,1.1.34,1.14,1.14,0,0,1,.36.87c0,.29-.17.46-.52.5l-1.82.27a2.59,2.59,0,0,0-1.48.65,1.8,1.8,0,0,0-.56,1.39m-2.44-.5a1.82,1.82,0,0,1-1.89,1.36,1.91,1.91,0,0,1-1.43-.58,2,2,0,0,1-.6-1.47h5.07a2.42,2.42,0,0,0,0-.42A3.73,3.73,0,0,0,85,31.06a3.22,3.22,0,0,0-4.64.05,3.93,3.93,0,0,0,0,5.18,3.33,3.33,0,0,0,2.4,1,3.1,3.1,0,0,0,1.93-.6,2.92,2.92,0,0,0,1.1-1.53ZM80.75,33a1.82,1.82,0,0,1,.55-1.21,1.75,1.75,0,0,1,1.29-.51A1.7,1.7,0,0,1,84.44,33Zm-7.4.1a2.07,2.07,0,0,1,.43-1.28,1.37,1.37,0,0,1,1.14-.5c1,0,1.56.56,1.56,1.69v4H77.8V32.78a2.91,2.91,0,0,0-.62-1.92,2.22,2.22,0,0,0-1.79-.74,2.32,2.32,0,0,0-2,1V26.91H72V37.05h1.32Zm-9.94-3a3.27,3.27,0,0,0-2.47,1,3.85,3.85,0,0,0,0,5.12,3.52,3.52,0,0,0,5,0,3.88,3.88,0,0,0,0-5.12,3.27,3.27,0,0,0-2.47-1m0,6a2,2,0,0,1-1.49-.63,2.47,2.47,0,0,1-.61-1.78,2.41,2.41,0,0,1,.61-1.75,2.05,2.05,0,0,1,3,0,2.41,2.41,0,0,1,.61,1.75,2.47,2.47,0,0,1-.61,1.78,2,2,0,0,1-1.49.63m-6-7.89H56.18v1.09a1,1,0,0,1-.26.75,1,1,0,0,1-.77.28h-.37v1.2h1.29V35.2a1.87,1.87,0,0,0,.51,1.41,1.83,1.83,0,0,0,1.37.51,2.43,2.43,0,0,0,.89-.13V35.87a2,2,0,0,1-.51.06,1,1,0,0,1-.73-.22,1,1,0,0,1-.21-.7v-3.5h1.45v-1.2H57.39Zm-8.12,6.55a1.82,1.82,0,0,1-1.89,1.36,2,2,0,0,1-1.44-.58,2,2,0,0,1-.59-1.47h5.07a2.56,2.56,0,0,0,0-.42,3.73,3.73,0,0,0-.85-2.57,3.23,3.23,0,0,0-4.65.05A3.58,3.58,0,0,0,44,33.66a3.53,3.53,0,0,0,1,2.63,3.31,3.31,0,0,0,2.4,1,3.12,3.12,0,0,0,1.93-.6,2.9,2.9,0,0,0,1.09-1.53ZM45.39,33a1.82,1.82,0,0,1,.55-1.21,1.71,1.71,0,0,1,1.28-.51,1.83,1.83,0,0,1,1.35.48,1.79,1.79,0,0,1,.5,1.24Zm-1.82-2.68H41.75l-2.91,3V26.91h-1.3V37.05h1.3V35l.94-.94,2.19,3h1.66L40.7,33.16ZM33.7,27.77a.9.9,0,0,0,.27.66.94.94,0,0,0,1.34,0,.87.87,0,0,0,.28-.66.9.9,0,0,0-.28-.68,1,1,0,0,0-.67-.28,1,1,0,0,0-.94,1m1.6,2.54H34v6.74h1.3Zm-3.55-3.4H30.44V37.05h1.31Z" transform="translate(0 0)"/><path class="cls-4" d="M122,19.34a5,5,0,0,0,.07.91h1.27A9.49,9.49,0,0,1,123.3,19V10.11H122v4.36a1.74,1.74,0,0,0-.72-.81,2.44,2.44,0,0,0-1.34-.33,2.94,2.94,0,0,0-2.3,1,3.72,3.72,0,0,0-.89,2.5,3.8,3.8,0,0,0,.87,2.56,2.94,2.94,0,0,0,2.32,1,2.33,2.33,0,0,0,1.28-.34,2.29,2.29,0,0,0,.81-.86Zm-3.94-2.48a2.56,2.56,0,0,1,.55-1.71,1.76,1.76,0,0,1,1.44-.65,1.69,1.69,0,0,1,1.41.64,2.59,2.59,0,0,1,.52,1.69,2.78,2.78,0,0,1-.53,1.75,1.69,1.69,0,0,1-1.41.69,1.73,1.73,0,0,1-1.45-.67,2.75,2.75,0,0,1-.53-1.74m-3-6.75h-1.32V20.25h1.32Zm-4.8,9.33a4.59,4.59,0,0,0,0,.81h1.26a12.22,12.22,0,0,1-.07-1.25V13.52H110.2v4.06a1.84,1.84,0,0,1-.41,1.25,1.5,1.5,0,0,1-1.19.47,1.36,1.36,0,0,1-1.15-.49,2,2,0,0,1-.38-1.25v-4h-1.31v4.24a2.83,2.83,0,0,0,.68,1.94,2.35,2.35,0,0,0,1.84.76,2.71,2.71,0,0,0,1.17-.26,1.74,1.74,0,0,0,.82-.76m-9.5-6.13a3.27,3.27,0,0,0-2.47,1,3.55,3.55,0,0,0-1,2.56,3.53,3.53,0,0,0,1,2.56,3.51,3.51,0,0,0,5,0,3.53,3.53,0,0,0,1-2.56,3.59,3.59,0,0,0-1-2.56,3.28,3.28,0,0,0-2.48-1m0,6a2,2,0,0,1-1.49-.63,2.5,2.5,0,0,1-.61-1.77,2.46,2.46,0,0,1,.61-1.76,2.07,2.07,0,0,1,3,0,2.45,2.45,0,0,1,.6,1.76,2.5,2.5,0,0,1-.6,1.77,2,2,0,0,1-1.5.63m-10-5.76L89,18.58l-1.51-5.06H86l2.21,6.73h1.39l1.75-5.12,1.79,5.12h1.36l2.18-6.73H95.31l-1.48,5.06-1.75-5.06Zm-9.67-3.2h-1.4v9.93h1.4ZM72.8,11.39H71.6v1.09a1.09,1.09,0,0,1-.26.75,1,1,0,0,1-.78.29H70.2v1.19h1.29V18.4a1.91,1.91,0,0,0,.5,1.42,1.88,1.88,0,0,0,1.37.5,2.48,2.48,0,0,0,.9-.13V19.07a2,2,0,0,1-.52.06,1,1,0,0,1-.72-.22,1,1,0,0,1-.22-.7v-3.5h1.46V13.52H72.8Zm-5.25,8.05a4.47,4.47,0,0,0,.06.81h1.26A9.91,9.91,0,0,1,68.8,19V13.52H67.48v4.06a1.84,1.84,0,0,1-.4,1.25,1.5,1.5,0,0,1-1.19.47,1.38,1.38,0,0,1-1.16-.49,2,2,0,0,1-.37-1.25v-4H63v4.24a2.79,2.79,0,0,0,.69,1.94,2.34,2.34,0,0,0,1.83.76,2.75,2.75,0,0,0,1.18-.26,1.76,1.76,0,0,0,.81-.76m-7.39-2.59a2.62,2.62,0,0,1-.55,1.75,1.77,1.77,0,0,1-1.44.66,1.8,1.8,0,0,1-1.44-.67,2.62,2.62,0,0,1-.56-1.74,2.52,2.52,0,0,1,.56-1.72,1.81,1.81,0,0,1,1.44-.65,1.79,1.79,0,0,1,1.45.64,2.58,2.58,0,0,1,.54,1.73m-4,3.4v-1a2.35,2.35,0,0,0,2.19,1.16,2.83,2.83,0,0,0,2.29-1,3.91,3.91,0,0,0,.84-2.57,3.91,3.91,0,0,0-.81-2.54A3.1,3.1,0,0,0,57,13.65a2.1,2.1,0,0,0-.85.82V10.11h-1.3V20.25Zm-9-.9a.89.89,0,0,0,.93,1,.59.59,0,0,0,.31-.07,1.68,1.68,0,0,1-.33,1,1.39,1.39,0,0,1-.83.56v.73a2.38,2.38,0,0,0,1.43-.79,2.72,2.72,0,0,0,.64-1.94,1.37,1.37,0,0,0-.33-1,1,1,0,0,0-.8-.35,1,1,0,0,0-.73.28.84.84,0,0,0-.29.65m-2.51-1.41a1.83,1.83,0,0,1-1.89,1.36,1.91,1.91,0,0,1-1.43-.58,2,2,0,0,1-.6-1.47h5.07a2.42,2.42,0,0,0,0-.42,3.73,3.73,0,0,0-.86-2.57,3.26,3.26,0,0,0-4.65.05,3.59,3.59,0,0,0-.95,2.55,3.53,3.53,0,0,0,1,2.63,3.29,3.29,0,0,0,2.4,1,3.1,3.1,0,0,0,1.93-.6,2.9,2.9,0,0,0,1.09-1.53Zm-3.88-1.75A1.82,1.82,0,0,1,41.29,15a1.72,1.72,0,0,1,1.29-.51,1.8,1.8,0,0,1,1.34.48,1.74,1.74,0,0,1,.5,1.24Zm-2.18-2.74a2.12,2.12,0,0,0-.44,0,2.08,2.08,0,0,0-2,1.29V13.52H34.82v6.73h1.32V16.88c0-1.39.61-2.08,1.84-2.08a3.9,3.9,0,0,1,.58,0Zm-7.23,6a4.47,4.47,0,0,0,.06.81h1.26A9.91,9.91,0,0,1,32.58,19V13.52H31.26v4.06a1.84,1.84,0,0,1-.4,1.25,1.5,1.5,0,0,1-1.19.47,1.39,1.39,0,0,1-1.16-.49,2.06,2.06,0,0,1-.37-1.25v-4H26.83v4.24a2.83,2.83,0,0,0,.68,1.94,2.35,2.35,0,0,0,1.84.76,2.71,2.71,0,0,0,1.17-.26,1.67,1.67,0,0,0,.81-.76M20,18.5a2.18,2.18,0,0,0,.8,1.34,2.82,2.82,0,0,0,1.94.62,2.52,2.52,0,0,0,1.82-.64,2,2,0,0,0,.65-1.45,1.8,1.8,0,0,0-.49-1.28,2.54,2.54,0,0,0-1.38-.72l-1.09-.24c-.51-.11-.77-.38-.77-.81a.82.82,0,0,1,.32-.63,1.19,1.19,0,0,1,.8-.26,1.9,1.9,0,0,1,.66.11,1,1,0,0,1,.43.32,1.38,1.38,0,0,1,.21.36,1.15,1.15,0,0,1,.1.33l1.16-.44a1.78,1.78,0,0,0-.21-.54,2.69,2.69,0,0,0-.42-.58,2,2,0,0,0-.78-.5,3.43,3.43,0,0,0-1.15-.18,2.44,2.44,0,0,0-1.68.63,1.9,1.9,0,0,0-.71,1.49,1.75,1.75,0,0,0,.45,1.22,2.18,2.18,0,0,0,1.23.67l1.15.26c.58.13.86.42.86.86a.8.8,0,0,1-.3.64,1.3,1.3,0,0,1-.84.26,1.62,1.62,0,0,1-1.1-.36,1.42,1.42,0,0,1-.47-.9Zm-5.92-2.14A2.07,2.07,0,0,1,14.5,15a1.37,1.37,0,0,1,1.15-.52c1,0,1.57.56,1.57,1.69v4.05h1.32V16a2.93,2.93,0,0,0-.62-1.92,2.22,2.22,0,0,0-1.79-.74,2.24,2.24,0,0,0-2.07,1.16v-1H12.77v6.73h1.32ZM9.28,19.44a4.47,4.47,0,0,0,.06.81H10.6A9.91,9.91,0,0,1,10.53,19V13.52H9.21v4.06a1.84,1.84,0,0,1-.4,1.25,1.5,1.5,0,0,1-1.19.47,1.39,1.39,0,0,1-1.16-.49,2.06,2.06,0,0,1-.37-1.25v-4H4.78v4.24a2.83,2.83,0,0,0,.68,1.94,2.35,2.35,0,0,0,1.84.76,2.71,2.71,0,0,0,1.17-.26,1.67,1.67,0,0,0,.81-.76" transform="translate(0 0)"/></g></g></g></svg>