<svg xmlns="http://www.w3.org/2000/svg" xmlns:xlink="http://www.w3.org/1999/xlink" viewBox="0 0 143 67.85"><defs><style>.cls-1{fill:none;}.cls-2{fill:#fff;}.cls-3{clip-path:url(#clip-path);}.cls-4{fill:#0a1f8c;}</style><clipPath id="clip-path"><rect class="cls-1" width="143" height="67.85"/></clipPath></defs><title>Asset 8</title><g id="Layer_2" data-name="Layer 2"><g id="Layer_1-2" data-name="Layer 1"><rect class="cls-2" width="143" height="67.85"/><g class="cls-3"><path class="cls-4" d="M89.52,36.4a3.27,3.27,0,0,1,.79-2.33,2.66,2.66,0,0,1,2-.85,2.61,2.61,0,0,1,2,.84,3.26,3.26,0,0,1,.78,2.31,3.42,3.42,0,0,1-.78,2.37,2.75,2.75,0,0,1-4,0,3.37,3.37,0,0,1-.78-2.35m8.55-11h-3v6.47c-.51-.94-1.57-1.41-3.2-1.41A5,5,0,0,0,88,32.19a6,6,0,0,0-1.53,4.21A6,6,0,0,0,88,40.66a5.11,5.11,0,0,0,4,1.69,4.18,4.18,0,0,0,2-.43,2.93,2.93,0,0,0,1.23-1.15,7.37,7.37,0,0,0,.11,1.31h2.92c-.06-.62-.09-1.3-.09-2ZM76.91,35.57a2.44,2.44,0,0,1,.58-1.68A1.9,1.9,0,0,1,79,33.22a1.93,1.93,0,0,1,1.57.62,2.46,2.46,0,0,1,.52,1.64v6.6h3.06V35a4.85,4.85,0,0,0-1.05-3.23,3.71,3.71,0,0,0-3-1.26,4.3,4.3,0,0,0-1.89.44,3.13,3.13,0,0,0-1.38,1.26v-1.4h-3V42.08h3.06Zm-8.19,2.5a2.48,2.48,0,0,1-2.57,1.73,2.88,2.88,0,0,1-2-.74,2.5,2.5,0,0,1-.87-1.84h8.09l0-.16c0-.09,0-.21,0-.37s0-.29,0-.41A6,6,0,0,0,70,32a5.38,5.38,0,0,0-4.1-1.56,5.33,5.33,0,0,0-3.91,1.66,5.8,5.8,0,0,0-1.66,4.29A5.88,5.88,0,0,0,62,40.78a5.78,5.78,0,0,0,4.14,1.64,5.44,5.44,0,0,0,3.35-1,4.89,4.89,0,0,0,1.81-2.58Zm-5.36-2.94a2.36,2.36,0,0,1,.74-1.54,2.43,2.43,0,0,1,1.79-.69,2.5,2.5,0,0,1,1.86.64,2.35,2.35,0,0,1,.67,1.59Zm-13.75,3.8A4.09,4.09,0,0,0,49.94,40a4.52,4.52,0,0,0,.79,1.12,3.56,3.56,0,0,0,1.46.92,6,6,0,0,0,2.14.36,4.52,4.52,0,0,0,3.24-1.1,3.51,3.51,0,0,0,1.15-2.62,3.13,3.13,0,0,0-.86-2.21,4.61,4.61,0,0,0-2.5-1.27l-1.61-.34c-.69-.13-1-.46-1-1a1,1,0,0,1,.42-.81,1.68,1.68,0,0,1,1-.32,1.76,1.76,0,0,1,1.33.46A1.9,1.9,0,0,1,56,34.26l2.55-.58a3.49,3.49,0,0,0-.32-1,4.3,4.3,0,0,0-.74-1,3.44,3.44,0,0,0-1.35-.85,5.76,5.76,0,0,0-2-.33,4.35,4.35,0,0,0-3,1.08,3.37,3.37,0,0,0-1.21,2.62,3.11,3.11,0,0,0,.79,2.14,4.3,4.3,0,0,0,2.38,1.24l1.5.34c.81.17,1.22.54,1.22,1.11a1,1,0,0,1-.39.8,1.67,1.67,0,0,1-1.11.33,2.1,2.1,0,0,1-1.48-.5,1.76,1.76,0,0,1-.59-1.23Z"/></g></g></g></svg>