<svg xmlns="http://www.w3.org/2000/svg" xmlns:xlink="http://www.w3.org/1999/xlink" viewBox="0 0 600 275.9"><defs><style>.cls-1,.cls-7{fill:none;}.cls-2{clip-path:url(#clip-path);}.cls-3{fill:#00edba;}.cls-4{opacity:0.86;}.cls-5{clip-path:url(#clip-path-3);}.cls-6{fill:#fff;}.cls-7{stroke:#00edba;stroke-miterlimit:10;stroke-width:11px;}.cls-17,.cls-8{font-size:21px;}.cls-17,.cls-27,.cls-8{fill:#0a1f8c;}.cls-8{font-family:CircularStd-Bold, Circular Std;font-weight:700;}.cls-9{letter-spacing:0em;}.cls-10{letter-spacing:0em;}.cls-11{letter-spacing:0em;}.cls-12{letter-spacing:-0.01em;}.cls-13{letter-spacing:0em;}.cls-14{letter-spacing:-0.09em;}.cls-15{letter-spacing:0em;}.cls-16{letter-spacing:0.01em;}.cls-17,.cls-27{font-family:CircularStd-Book, Circular Std;}.cls-18{letter-spacing:-0.01em;}.cls-19{letter-spacing:0em;}.cls-20{letter-spacing:0.01em;}.cls-21{letter-spacing:0em;}.cls-22{letter-spacing:-0.01em;}.cls-23{letter-spacing:-0.02em;}.cls-24{letter-spacing:0em;}.cls-25{letter-spacing:-0.11em;}.cls-26{letter-spacing:-0.11em;}.cls-27{font-size:14px;}</style><clipPath id="clip-path" transform="translate(0 0)"><rect class="cls-1" width="600" height="275.89"/></clipPath><clipPath id="clip-path-3" transform="translate(0 0)"><rect class="cls-1" x="0.6" y="2.7" width="598.8" height="264.56"/></clipPath></defs><g id="Layer_2" data-name="Layer 2"><g id="Layer_1-2" data-name="Layer 1"><g id="Arrow_28" data-name="Arrow 28"><g class="cls-2"><g class="cls-2"><rect class="cls-3" width="600" height="275.89" rx="5"/><g class="cls-4"><g class="cls-5"><rect class="cls-6" x="9.6" y="9.7" width="580.8" height="256.56" rx="5"/></g></g><line class="cls-7" x1="194" y1="3.7" x2="194" y2="269.9"/><line class="cls-7" x1="399.5" y1="4.8" x2="399.5" y2="271.1"/><line class="cls-7" x1="590.4" y1="55.4" y2="55.4"/></g><text class="cls-8" transform="translate(39.7 36)"><tspan class="cls-9">D</tspan><tspan x="15.2" y="0">e</tspan><tspan class="cls-10" x="26.9" y="0">s</tspan><tspan class="cls-11" x="36.5" y="0">c</tspan><tspan class="cls-9" x="48.1" y="0">r</tspan><tspan x="56.3" y="0">i</tspan><tspan class="cls-10" x="62.1" y="0">p</tspan><tspan class="cls-9" x="74.9" y="0">t</tspan><tspan x="82.8" y="0">ion</tspan></text><text class="cls-8" transform="translate(268.6 36)"><tspan class="cls-12">R</tspan><tspan class="cls-13" x="13" y="0">a</tspan><tspan class="cls-10" x="24.3" y="0">t</tspan><tspan x="32.1" y="0">es</tspan></text><text class="cls-8" transform="translate(445.4 36)"><tspan class="cls-14">T</tspan><tspan class="cls-15" x="11" y="0">o</tspan><tspan class="cls-16" x="23.3" y="0">t</tspan><tspan class="cls-11" x="31.2" y="0">al (</tspan><tspan class="cls-12" x="60.4" y="0">R</tspan><tspan x="73.4" y="0">and)</tspan></text><text class="cls-17" transform="translate(52.2 100.7)">mini<tspan class="cls-18" x="40.4" y="0">m</tspan><tspan x="58.2" y="0">um </tspan></text><text class="cls-17" transform="translate(63.7 125.9)">cha<tspan class="cls-19" x="33.9" y="0">r</tspan><tspan x="41.5" y="0">ge</tspan></text><text class="cls-17" transform="translate(63.3 211.4)">pricing </text><text class="cls-17" transform="translate(53.4 236.6)">s<tspan class="cls-18" x="9.5" y="0">t</tspan><tspan class="cls-20" x="16.8" y="0">r</tspan><tspan class="cls-19" x="24.6" y="0">u</tspan><tspan x="36.4" y="0">ctu</tspan><tspan class="cls-19" x="66.8" y="0">r</tspan><tspan x="74.5" y="0">e</tspan></text><text class="cls-17" transform="translate(242.1 102.7)">inc<tspan class="cls-21" x="28.2" y="0">l</tspan><tspan x="33.5" y="0">usi</tspan><tspan class="cls-22" x="60.2" y="0">v</tspan><tspan x="70.4" y="0">e of </tspan></text><text class="cls-17" transform="translate(243.2 127.9)"><tspan class="cls-19">c</tspan><tspan x="11" y="0">all </tspan><tspan class="cls-19" x="37.9" y="0">o</tspan><tspan x="49.9" y="0">ut </tspan><tspan class="cls-23" x="74.5" y="0">f</tspan><tspan x="81.3" y="0">ee</tspan></text><text class="cls-17" transform="translate(467.5 112.4)">R3<tspan class="cls-24" x="24.6" y="0">00</tspan><tspan x="50.2" y="0">0</tspan></text><text class="cls-17" transform="translate(239.4 221.2)">R<tspan class="cls-25" x="13" y="0">7</tspan><tspan x="20.9" y="0">.50 per m</tspan></text><text class="cls-17" transform="translate(430.2 219.4)">= (m2) x R<tspan class="cls-26" x="93.3" y="0">7</tspan><tspan x="101.1" y="0">,50</tspan></text><g class="cls-2"><line class="cls-7" x1="600" y1="161.9" x2="9.6" y2="161.9"/></g><text class="cls-27" transform="translate(350.8 212.6)">2</text></g></g></g></g></svg>