<svg xmlns="http://www.w3.org/2000/svg" xmlns:xlink="http://www.w3.org/1999/xlink" viewBox="0 0 330 65"><defs><style>.cls-1,.cls-5{fill:none;}.cls-2{fill:#fff;}.cls-3{clip-path:url(#clip-path);}.cls-4{fill:#0a1f8c;}.cls-5{stroke:#0a1f8c;}</style><clipPath id="clip-path"><rect class="cls-1" width="330" height="65"/></clipPath></defs><g id="Layer_2" data-name="Layer 2"><g id="Layer_1-2" data-name="Layer 1"><rect class="cls-2" width="330" height="65"/><g class="cls-3"><path class="cls-4" d="M241.7,30.4a1.7,1.7,0,0,1-1.8,1.7,1.3,1.3,0,0,1-1.2-.5,1.5,1.5,0,0,1,0-2.4,1.7,1.7,0,0,1,1.2-.5,2.1,2.1,0,0,1,1.3.5,1.7,1.7,0,0,1,.5,1.2m-5.4,6.7a4.3,4.3,0,0,0,2.4.6,5.1,5.1,0,0,0,4.1-1.6,6.4,6.4,0,0,0,1.3-4.4,5,5,0,0,0-1.1-3.6,3.8,3.8,0,0,0-3-1.3,4.6,4.6,0,0,0-2.9,1,3.7,3.7,0,0,0-1.1,2.7,3.3,3.3,0,0,0,1.1,2.5,3.6,3.6,0,0,0,2.5,1,3.2,3.2,0,0,0,1.4-.3,2.2,2.2,0,0,0,1-.9,3,3,0,0,1-1,2.2,3.4,3.4,0,0,1-2.3.8,3.5,3.5,0,0,1-1.8-.5Zm-2,.3V27.1h-1.9a2,2,0,0,1-.9,1.3,3.1,3.1,0,0,1-1.9.6v1.5h2.5v6.9Zm-5.6-5.7H224v1.9h4.7Zm-11.6,5.7a5.5,5.5,0,0,0,4-1.5,5.3,5.3,0,0,0,1.6-4.1,5.3,5.3,0,0,0-5.6-5.7H213V37.4Zm-1.9-2V28.1H217a3.7,3.7,0,0,1,2.5,1,3.7,3.7,0,0,1,.9,2.7,3.8,3.8,0,0,1-.9,2.7,3.7,3.7,0,0,1-2.5.9Zm-4.8-9.3h-2.2V37.4h2.2Zm-8.9,8.4-3-8.4h-2.4l4.2,11.3h2.2l4.3-11.3h-2.4ZM184,31.8a6,6,0,0,0,1.7,4.3,6.5,6.5,0,0,0,4.2,1.6,6.2,6.2,0,0,0,4.1-1.6,6,6,0,0,0,1.7-4.3,5.8,5.8,0,0,0-1.7-4.3,5.7,5.7,0,0,0-4.1-1.6,6,6,0,0,0-4.2,1.6,5.8,5.8,0,0,0-1.7,4.3m2.3,0a3.6,3.6,0,0,1,1.1-2.8,3.3,3.3,0,0,1,2.5-1,3.6,3.6,0,0,1,2.5,1,3.6,3.6,0,0,1,1,2.8,3.7,3.7,0,0,1-1,2.8,4,4,0,0,1-2.5.9,3.7,3.7,0,0,1-2.5-.9,3.8,3.8,0,0,1-1.1-2.8m-8.6,5.9a4.6,4.6,0,0,0,2.1-.4,3.5,3.5,0,0,0,1.6-.9l1-1.2a4.2,4.2,0,0,0,.6-1.4l-2.1-.6a2.9,2.9,0,0,1-1.1,1.6,2.8,2.8,0,0,1-2.1.7,3.5,3.5,0,0,1-2.5-1,4.1,4.1,0,0,1-1-2.7,3.6,3.6,0,0,1,1.1-2.8,3.3,3.3,0,0,1,2.4-1,2.8,2.8,0,0,1,2.1.7,2.5,2.5,0,0,1,1,1.6l2.1-.7a5,5,0,0,0-1.7-2.6,5.1,5.1,0,0,0-3.5-1.1,5.7,5.7,0,0,0-4.1,1.6,5.8,5.8,0,0,0-1.7,4.3,5.6,5.6,0,0,0,5.8,5.9M165.1,27.2h-1.9v1.1a1.2,1.2,0,0,1-.3.9,1,1,0,0,1-.9.4h-.4v1.9H163v3.6a2.1,2.1,0,0,0,.7,1.8,2.7,2.7,0,0,0,1.8.7l1.2-.2V35.6h-.6a1,1,0,0,1-.7-.2.9.9,0,0,1-.3-.7V31.5h1.6V29.6h-1.6Zm-6.8,10.2h2c0-.4-.1-.9-.1-1.4V29.6h-2.1v4.5a1.6,1.6,0,0,1-.4,1.2,1.4,1.4,0,0,1-1.1.4,1.2,1.2,0,0,1-1-.4,1.6,1.6,0,0,1-.4-1.2V29.6h-2.1v4.9a3.1,3.1,0,0,0,.8,2.3,2.9,2.9,0,0,0,3.4.6,2.4,2.4,0,0,0,.9-.8,1.9,1.9,0,0,0,.1.8m-10.9-8.1a4.2,4.2,0,1,0,0,8.4,4,4,0,0,0,2.9-1.2,4.3,4.3,0,0,0,0-6,4,4,0,0,0-2.9-1.2m0,6.4a2,2,0,0,1-1.5-.5,2.9,2.9,0,0,1-.5-1.7,2.5,2.5,0,0,1,.5-1.6,2,2,0,0,1,1.5-.6,2,2,0,0,1,1.4.6,2.1,2.1,0,0,1,.6,1.6,2.4,2.4,0,0,1-.6,1.7,1.9,1.9,0,0,1-1.4.5M140,33.5a2.5,2.5,0,0,1-.5,1.6,2,2,0,0,1-1.4.6,1.7,1.7,0,0,1-1.4-.6,2.4,2.4,0,0,1,0-3.2,1.7,1.7,0,0,1,1.4-.6,2,2,0,0,1,1.4.6,2.5,2.5,0,0,1,.5,1.6m-3.9,3.9v-.9a2.5,2.5,0,0,0,2.3,1.1,3.7,3.7,0,0,0,2.7-1.1,4.4,4.4,0,0,0,1-3,4.9,4.9,0,0,0-.9-3,3.3,3.3,0,0,0-2.7-1.1,3.2,3.2,0,0,0-1.4.3,2,2,0,0,0-1,.7V25.9H134V37.4Zm-8-1.3a1.1,1.1,0,0,1-.8-.3.7.7,0,0,1-.2-.6.9.9,0,0,1,.9-1l1.8-.3v.4a2,2,0,0,1-.5,1.4,2.1,2.1,0,0,1-1.2.4m-3.2-.8a2.5,2.5,0,0,0,.8,1.7,2.9,2.9,0,0,0,1.9.7,2.6,2.6,0,0,0,2.4-1.2v.9h2a4.1,4.1,0,0,1-.1-1.2V32.3a2.9,2.9,0,0,0-.8-2.1,3.6,3.6,0,0,0-2.6-.9,3.6,3.6,0,0,0-2.4.8,2.7,2.7,0,0,0-1,1.8l1.9.4a1.8,1.8,0,0,1,.4-.9,1.8,1.8,0,0,1,1.1-.4,1.7,1.7,0,0,1,1,.3,1.1,1.1,0,0,1,.3.8c0,.3-.2.5-.6.5l-1.9.3a3,3,0,0,0-1.7.8,1.9,1.9,0,0,0-.7,1.6m-7-.6a1.7,1.7,0,0,1-1.8,1.2,2,2,0,0,1-1.4-.6,1.4,1.4,0,0,1-.6-1.2h5.7v-.6a4.1,4.1,0,0,0-1.1-3,3.6,3.6,0,0,0-2.8-1.1,3.4,3.4,0,0,0-2.7,1.2,4.1,4.1,0,0,0-1.2,3,3.8,3.8,0,0,0,1.2,3,4,4,0,0,0,2.9,1.2,4.2,4.2,0,0,0,2.3-.7,3.8,3.8,0,0,0,1.3-1.8Zm-3.7-2.1a1.8,1.8,0,0,1,.5-1.1,1.6,1.6,0,0,1,1.2-.4,1.7,1.7,0,0,1,1.3.4,1.6,1.6,0,0,1,.5,1.1Zm-3-3.1h-.5a2.4,2.4,0,0,0-2.3,1.2V29.6h-2v7.8h2.1V33.8a2.4,2.4,0,0,1,.6-1.7,2,2,0,0,1,1.4-.5h.7Zm-10.6-.2a4.2,4.2,0,1,0,0,8.4,3.8,3.8,0,0,0,2.9-1.2,4.4,4.4,0,0,0,0-6,3.8,3.8,0,0,0-2.9-1.2m0,6.4a1.7,1.7,0,0,1-1.4-.5,2.4,2.4,0,0,1-.6-1.7,2.1,2.1,0,0,1,.6-1.6,1.8,1.8,0,0,1,1.4-.6,2,2,0,0,1,1.4.6,2.1,2.1,0,0,1,.6,1.6,2.4,2.4,0,0,1-.6,1.7,1.9,1.9,0,0,1-1.4.5M85,37.4V32.8a1.5,1.5,0,0,1,.4-1.1,1.4,1.4,0,0,1,1.1-.4,1.2,1.2,0,0,1,1,.4,1.8,1.8,0,0,1,.4,1.1v4.6H90V32.8a1.5,1.5,0,0,1,.4-1.1,1.2,1.2,0,0,1,1-.4,1.4,1.4,0,0,1,1.1.4,1.8,1.8,0,0,1,.3,1.1v4.6h2.1V32.3a2.9,2.9,0,0,0-.8-2.2,3.2,3.2,0,0,0-2.1-.8,2.9,2.9,0,0,0-2.5,1.4,2.3,2.3,0,0,0-2.3-1.4,2.8,2.8,0,0,0-1.3.4,2.1,2.1,0,0,0-1,.8v-.9h-2v7.8ZM70.7,33.5a2.1,2.1,0,0,1,.5-1.6,1.9,1.9,0,0,1,2.8,0,2.1,2.1,0,0,1,.5,1.6,2.1,2.1,0,0,1-.5,1.6,1.9,1.9,0,0,1-2.8,0,2.1,2.1,0,0,1-.5-1.6m5.9-7.6H74.5v4.5c-.3-.7-1.1-1-2.2-1a3.4,3.4,0,0,0-2.7,1.2,4.2,4.2,0,0,0-1.1,2.9,4.4,4.4,0,0,0,1.1,3,3.8,3.8,0,0,0,2.8,1.1,2.8,2.8,0,0,0,1.3-.3,1.8,1.8,0,0,0,.9-.8v.9h2.1a6.1,6.1,0,0,1-.1-1.4ZM63.2,36.1a1.1,1.1,0,0,1-.8-.3,1.4,1.4,0,0,1-.2-.6.9.9,0,0,1,.9-1l1.8-.3v.4a1.6,1.6,0,0,1-.5,1.4,2.1,2.1,0,0,1-1.2.4M60,35.3a2.5,2.5,0,0,0,.8,1.7,2.9,2.9,0,0,0,1.9.7,2.6,2.6,0,0,0,2.4-1.2v.9h2a4.1,4.1,0,0,1-.1-1.2V32.3a2.9,2.9,0,0,0-.8-2.1,3.6,3.6,0,0,0-2.6-.9,3.6,3.6,0,0,0-2.4.8,2.7,2.7,0,0,0-1,1.8l1.9.4a1.8,1.8,0,0,1,.4-.9,1.8,1.8,0,0,1,1.1-.4,1.7,1.7,0,0,1,1,.3,1.1,1.1,0,0,1,.3.8c0,.3-.2.5-.6.5l-1.9.3a3,3,0,0,0-1.7.8,2.2,2.2,0,0,0-.7,1.6m-3.1-.6a1.6,1.6,0,0,1-1.7,1.2,1.8,1.8,0,0,1-1.4-.6,1.4,1.4,0,0,1-.6-1.2h5.6v-.6a4,4,0,0,0-1-3,3.8,3.8,0,0,0-2.9-1.1,3.7,3.7,0,0,0-2.7,1.2,4.4,4.4,0,0,0-1.1,3,3.8,3.8,0,0,0,1.2,3,3.6,3.6,0,0,0,2.8,1.2,4.5,4.5,0,0,0,2.4-.7,3.6,3.6,0,0,0,1.2-1.8Zm-3.7-2.1a1.8,1.8,0,0,1,.5-1.1,2,2,0,0,1,1.3-.4,1.8,1.8,0,0,1,1.3.4,1.5,1.5,0,0,1,.4,1.1Zm-8.9-1.4V28h1.8a1.9,1.9,0,0,1,1.3.5,1.2,1.2,0,0,1,.4,1.1,1.2,1.2,0,0,1-.4,1.1,1.9,1.9,0,0,1-1.3.5Zm3.4,6.2h2.4l-2.4-4.6a3.6,3.6,0,0,0,1.8-1.2,3.2,3.2,0,0,0,.6-2,3.3,3.3,0,0,0-1-2.5,3.4,3.4,0,0,0-2.6-1H42.1V37.4h2.2V33.1h1.1Z"/></g><polygon class="cls-4" points="272.3 32.5 272.3 35.2 277.1 35.2 277.1 40.1 279.9 40.1 279.9 35.2 284.6 35.2 284.6 32.5 279.9 32.5 279.9 27.6 277.1 27.6 277.1 32.5 272.3 32.5"/><polygon class="cls-5" points="272.3 32.5 272.3 35.2 277.1 35.2 277.1 40.1 279.9 40.1 279.9 35.2 284.6 35.2 284.6 32.5 279.9 32.5 279.9 27.6 277.1 27.6 277.1 32.5 272.3 32.5"/></g></g></svg>