<svg xmlns="http://www.w3.org/2000/svg" viewBox="0 0 351.1 351.1"><defs><style>.cls-1{fill:#27eab9;}</style></defs><g id="Layer_2" data-name="Layer 2"><g id="Layer_1-2" data-name="Layer 1"><path class="cls-1" d="M.1,175.6C.1,118.9.2,62.3,0,5.7,0,1.1,1.1,0,5.7,0Q68.4.3,131.1,0c3.8,0,5.1.8,5.1,4.9q-.3,170.5-.1,341.2c0,3.9-1,4.9-4.9,4.9-42-.1-83.9-.2-125.9.1-4.7,0-5.3-1.6-5.3-5.7Q.2,260.5.1,175.6Z"/><path class="cls-1" d="M216,175.3c0-56.7.1-113.3-.1-169.9,0-4.5,1.2-5.4,5.5-5.4q62.2.3,124.4,0c4.1,0,5.3.9,5.3,5.2q-.3,170.3,0,340.7c0,4.2-1.2,5.1-5.3,5.1q-62.1-.2-124.4,0c-4.3,0-5.5-.9-5.5-5.4C216.1,288.8,216,232.1,216,175.3Z"/></g></g></svg>