<svg xmlns="http://www.w3.org/2000/svg" xmlns:xlink="http://www.w3.org/1999/xlink" viewBox="0 0 619.3 275.9"><defs><style>.cls-1,.cls-29,.cls-7{fill:none;}.cls-2{clip-path:url(#clip-path);}.cls-3{fill:#00edba;}.cls-4{opacity:0.86;}.cls-5{clip-path:url(#clip-path-3);}.cls-6{fill:#fff;}.cls-7{stroke:#00edba;stroke-miterlimit:10;stroke-width:11px;}.cls-18,.cls-8{font-size:21px;}.cls-18,.cls-30,.cls-8{fill:#0a1f8c;}.cls-29,.cls-30,.cls-8{font-family:CircularStd-Bold, Circular Std;font-weight:700;}.cls-9{letter-spacing:0em;}.cls-10{letter-spacing:0em;}.cls-11{letter-spacing:0em;}.cls-12{letter-spacing:0em;}.cls-13{letter-spacing:-0.01em;}.cls-14{letter-spacing:0em;}.cls-15{letter-spacing:-0.09em;}.cls-16{letter-spacing:0em;}.cls-17{letter-spacing:0.01em;}.cls-18{font-family:CircularStd-Book, Circular Std;}.cls-19{letter-spacing:-0.01em;}.cls-20{letter-spacing:0em;}.cls-21{letter-spacing:-0.01em;}.cls-22{letter-spacing:0.01em;}.cls-23{letter-spacing:0em;}.cls-24{letter-spacing:-0.01em;}.cls-25{letter-spacing:-0.02em;}.cls-26{letter-spacing:-0.01em;}.cls-27{letter-spacing:-0.11em;}.cls-28{letter-spacing:-0.11em;}.cls-29,.cls-30{font-size:25px;}.cls-29{stroke:#0a1f8c;stroke-width:2px;}</style><clipPath id="clip-path" transform="translate(0 0)"><rect class="cls-1" width="619.3" height="275.89"/></clipPath><clipPath id="clip-path-3" transform="translate(0 0)"><rect class="cls-1" x="19.8" y="2.7" width="598.8" height="264.56"/></clipPath></defs><g id="Layer_2" data-name="Layer 2"><g id="Layer_1-2" data-name="Layer 1"><g class="cls-2"><g class="cls-2"><rect class="cls-3" width="32" height="275.89" rx="5"/><rect class="cls-3" x="19.3" width="600" height="275.89" rx="5"/><g class="cls-4"><g class="cls-5"><rect class="cls-6" x="28.8" y="9.7" width="580.8" height="256.56" rx="5"/></g></g><line class="cls-7" x1="213.3" y1="3.7" x2="213.3" y2="269.9"/><line class="cls-7" x1="418.8" y1="4.8" x2="418.8" y2="271.1"/><line class="cls-7" x1="609.7" y1="55.4" x2="19.3" y2="55.4"/></g><text class="cls-8" transform="translate(58.9 36)"><tspan class="cls-9">D</tspan><tspan x="15.3" y="0">e</tspan><tspan class="cls-10" x="26.9" y="0">s</tspan><tspan class="cls-11" x="36.5" y="0">c</tspan><tspan class="cls-12" x="48.1" y="0">r</tspan><tspan x="56.3" y="0">i</tspan><tspan class="cls-10" x="62.1" y="0">p</tspan><tspan class="cls-12" x="74.9" y="0">t</tspan><tspan x="82.8" y="0">ion</tspan></text><text class="cls-8" transform="translate(287.8 36)"><tspan class="cls-13">R</tspan><tspan class="cls-14" x="13" y="0">a</tspan><tspan class="cls-10" x="24.3" y="0">t</tspan><tspan x="32.1" y="0">es</tspan></text><text class="cls-8" transform="translate(464.7 36)"><tspan class="cls-15">T</tspan><tspan class="cls-16" x="11" y="0">o</tspan><tspan class="cls-17" x="23.3" y="0">t</tspan><tspan class="cls-11" x="31.2" y="0">al (</tspan><tspan class="cls-13" x="60.4" y="0">R</tspan><tspan x="73.4" y="0">and)</tspan></text><text class="cls-18" transform="translate(71.5 100.7)">mini<tspan class="cls-19" x="40.4" y="0">m</tspan><tspan x="58.2" y="0">um </tspan></text><text class="cls-18" transform="translate(83 125.9)">cha<tspan class="cls-20" x="33.9" y="0">r</tspan><tspan x="41.5" y="0">ge</tspan></text><text class="cls-18" transform="translate(82.6 211.4)">pricing </text><text class="cls-18" transform="translate(72.6 236.6)">s<tspan class="cls-21" x="9.5" y="0">t</tspan><tspan class="cls-22" x="16.8" y="0">r</tspan><tspan class="cls-23" x="24.6" y="0">u</tspan><tspan x="36.4" y="0">ctu</tspan><tspan class="cls-20" x="66.8" y="0">r</tspan><tspan x="74.4" y="0">e</tspan></text><text class="cls-18" transform="translate(261.3 102.7)">inc<tspan class="cls-23" x="28.2" y="0">l</tspan><tspan x="33.5" y="0">usi</tspan><tspan class="cls-24" x="60.2" y="0">v</tspan><tspan x="70.4" y="0">e of </tspan></text><text class="cls-18" transform="translate(262.5 127.9)"><tspan class="cls-23">c</tspan><tspan x="11" y="0">all </tspan><tspan class="cls-20" x="37.9" y="0">o</tspan><tspan x="49.9" y="0">ut </tspan><tspan class="cls-25" x="74.4" y="0">f</tspan><tspan x="81.2" y="0">ee</tspan></text><text class="cls-18" transform="translate(486.7 112.4)">R3<tspan class="cls-26" x="24.6" y="0">0</tspan><tspan class="cls-20" x="37.4" y="0">0</tspan><tspan x="50.2" y="0">0</tspan></text><text class="cls-18" transform="translate(253.1 221.2)">R<tspan class="cls-27" x="13" y="0">7</tspan><tspan x="20.9" y="0">.50 per m2</tspan></text><text class="cls-18" transform="translate(449.4 219.4)">= (m2) x R<tspan class="cls-28" x="93.3" y="0">7</tspan><tspan x="101.1" y="0">,50</tspan></text><g class="cls-2"><line class="cls-7" x1="619.2" y1="161.9" x2="28.8" y2="161.9"/><text class="cls-29" transform="translate(8 150.6)">+</text></g><text class="cls-30" transform="translate(8 150.6)">+</text></g></g></g></svg>