<svg xmlns="http://www.w3.org/2000/svg" xmlns:xlink="http://www.w3.org/1999/xlink" viewBox="0 0 214.8 14.8"><defs><style>.cls-1{fill:none;}.cls-2{clip-path:url(#clip-path);}.cls-3{fill:#0a1c8f;}</style><clipPath id="clip-path"><rect class="cls-1" width="214.8" height="14.78"/></clipPath></defs><g id="Layer_2" data-name="Layer 2"><g id="Layer_1-2" data-name="Layer 1"><g class="cls-2"><path class="cls-3" d="M210.3,12.7a1.8,1.8,0,0,1-1.1-.4,1.3,1.3,0,0,1-.4-1,1.2,1.2,0,0,1,.3-.9,1.8,1.8,0,0,1,1-.4l2.8-.4V10a2.4,2.4,0,0,1-.7,2,2.5,2.5,0,0,1-1.9.7M207,11.4a2.6,2.6,0,0,0,.8,2,3.3,3.3,0,0,0,2.2.8,3.6,3.6,0,0,0,1.9-.5,5.2,5.2,0,0,0,1.1-1,4.9,4.9,0,0,0,.1,1.2h1.7a7.6,7.6,0,0,1-.1-1.5V7.8a3.2,3.2,0,0,0-.9-2.4,4.2,4.2,0,0,0-2.9-.9,3.6,3.6,0,0,0-2.5.8,2.5,2.5,0,0,0-1.2,2.1l1.7.4a1.6,1.6,0,0,1,.6-1.3,2,2,0,0,1,1.4-.5,2.1,2.1,0,0,1,1.5.4,1.7,1.7,0,0,1,.5,1.2c0,.4-.2.6-.7.7l-2.5.4a4,4,0,0,0-2,.8,2.6,2.6,0,0,0-.7,1.9m-1.7,2.5V12.3h-5.2l5.1-6V4.8H198V6.4h4.9l-5,5.9v1.6Zm-12.1-1.2a1.1,1.1,0,0,0,.4.9,1.2,1.2,0,0,0,1.8,0,1.1,1.1,0,0,0,.4-.9,1.3,1.3,0,0,0-.4-1,1.2,1.2,0,0,0-1.8,0,1.3,1.3,0,0,0-.4,1m-6.5-8.2a4.3,4.3,0,0,0-3.3,1.3A5,5,0,0,0,182,9.3a5.2,5.2,0,0,0,1.3,3.5,4.8,4.8,0,0,0,6.8,0,5.2,5.2,0,0,0,1.3-3.5,5.4,5.4,0,0,0-1.3-3.5,4.5,4.5,0,0,0-3.4-1.3m0,8.1a2.5,2.5,0,0,1-2-.9,3.2,3.2,0,0,1-.8-2.4,3.2,3.2,0,0,1,.8-2.4,2.9,2.9,0,0,1,4,0,3.2,3.2,0,0,1,.9,2.4,3.2,3.2,0,0,1-.9,2.4,2.5,2.5,0,0,1-2,.9m-10-6.5a2.1,2.1,0,0,1,1.6.6,2.5,2.5,0,0,1,.8,1.4l1.6-.7a3.9,3.9,0,0,0-1.3-2.1,4.6,4.6,0,0,0-2.7-.8,4.2,4.2,0,0,0-3.3,1.3,4.8,4.8,0,0,0-1.3,3.5,4.8,4.8,0,0,0,1.3,3.5,4.2,4.2,0,0,0,3.3,1.4,4,4,0,0,0,2.7-.9,4.6,4.6,0,0,0,1.4-2l-1.6-.7a2.9,2.9,0,0,1-.8,1.4,2.9,2.9,0,0,1-1.7.5,2.8,2.8,0,0,1-2-.8,3.6,3.6,0,0,1-.8-2.4,3.2,3.2,0,0,1,.8-2.3,2.5,2.5,0,0,1,2-.9m-9.1,6.6a1.1,1.1,0,0,0,.4.9,1.1,1.1,0,0,0,.9.4,1.3,1.3,0,0,0,1-.4,1.5,1.5,0,0,0,.4-.9,1.8,1.8,0,0,0-.4-1,1.8,1.8,0,0,0-1-.4,1.5,1.5,0,0,0-.9.4,1.3,1.3,0,0,0-.4,1m-6-6.6a2.1,2.1,0,0,1,1.6.6,2.5,2.5,0,0,1,.8,1.4l1.6-.7a3.9,3.9,0,0,0-1.3-2.1,4.6,4.6,0,0,0-2.7-.8,4.4,4.4,0,0,0-3.3,1.3A4.8,4.8,0,0,0,157,9.3a4.8,4.8,0,0,0,1.3,3.5,4.5,4.5,0,0,0,3.3,1.4,4,4,0,0,0,2.7-.9,3.9,3.9,0,0,0,1.4-2l-1.6-.7a2.9,2.9,0,0,1-.8,1.4,2.6,2.6,0,0,1-1.7.5,2.8,2.8,0,0,1-2-.8,3.6,3.6,0,0,1-.8-2.4,3.2,3.2,0,0,1,.8-2.3,2.5,2.5,0,0,1,2-.9m-5.7-1.4h-.6a2.9,2.9,0,0,0-2.7,1.7V4.8h-1.7v9.1h1.7V9.3c0-1.9.9-2.8,2.6-2.8h.7Zm-12.2,8a1.8,1.8,0,0,1-1.1-.4,1.3,1.3,0,0,1-.4-1,1.2,1.2,0,0,1,.3-.9,1.8,1.8,0,0,1,1-.4l2.8-.4V10a2.4,2.4,0,0,1-.7,2,2.5,2.5,0,0,1-1.9.7m-3.3-1.3a2.6,2.6,0,0,0,.8,2,3.3,3.3,0,0,0,2.2.8,3.2,3.2,0,0,0,1.8-.5,4,4,0,0,0,1.2-1,4.9,4.9,0,0,0,.1,1.2h1.7a7.6,7.6,0,0,1-.1-1.5V7.8a3.2,3.2,0,0,0-.9-2.4,4.2,4.2,0,0,0-2.9-.9,3.8,3.8,0,0,0-2.6.8,3,3,0,0,0-1.2,2.1l1.8.4a1.6,1.6,0,0,1,.6-1.3,2,2,0,0,1,1.4-.5,2.1,2.1,0,0,1,1.5.4,1.7,1.7,0,0,1,.5,1.2c0,.4-.2.6-.7.7l-2.5.4a4,4,0,0,0-2,.8,2.6,2.6,0,0,0-.7,1.9M132,8.6a2.8,2.8,0,0,1,.6-1.8,1.9,1.9,0,0,1,1.6-.7c1.4,0,2.1.8,2.1,2.3v5.5h1.8V8.1a3.7,3.7,0,0,0-.9-2.6,2.7,2.7,0,0,0-2.4-1A2.9,2.9,0,0,0,132,6.1V4.8h-1.8v9.1H132Zm-9,4.1a1.5,1.5,0,0,1-1-.4,1.3,1.3,0,0,1-.4-1,1.2,1.2,0,0,1,.3-.9,1.8,1.8,0,0,1,1-.4l2.8-.4V10a2.8,2.8,0,0,1-.7,2,2.7,2.7,0,0,1-2,.7m-3.3-1.3a2.7,2.7,0,0,0,.9,2,3.3,3.3,0,0,0,2.2.8,3.5,3.5,0,0,0,1.8-.5,2.7,2.7,0,0,0,1.1-1c0,.4.1.8.1,1.2h1.8a7.6,7.6,0,0,1-.1-1.5V7.8a3,3,0,0,0-1-2.4,3.8,3.8,0,0,0-2.8-.9,3.8,3.8,0,0,0-2.6.8,3,3,0,0,0-1.2,2.1l1.7.4a2.1,2.1,0,0,1,.7-1.3,2,2,0,0,1,1.4-.5,2.1,2.1,0,0,1,1.5.4,1.7,1.7,0,0,1,.5,1.2c0,.4-.3.6-.7.7l-2.5.4a4,4,0,0,0-2,.8,2.7,2.7,0,0,0-.8,1.9m-8.6.1a2.4,2.4,0,0,0,1,1.8,3.8,3.8,0,0,0,2.7.9,3.2,3.2,0,0,0,2.4-.9,2.7,2.7,0,0,0,.9-2,2.7,2.7,0,0,0-.6-1.7,3.9,3.9,0,0,0-1.9-1l-1.5-.3a1,1,0,0,1-1-1.1,1.2,1.2,0,0,1,.4-.9,1.8,1.8,0,0,1,1.1-.3h.9l.6.5.3.5c0,.1.1.3.1.4l1.6-.6-.3-.7a2.1,2.1,0,0,0-.6-.8,2.3,2.3,0,0,0-1.1-.7l-1.5-.2a3.6,3.6,0,0,0-2.3.8,3,3,0,0,0-1,2.1,2.5,2.5,0,0,0,.6,1.6,2.8,2.8,0,0,0,1.7.9l1.6.4c.8.1,1.2.5,1.2,1.1a1.1,1.1,0,0,1-.5.9,1.6,1.6,0,0,1-1.1.4,2.5,2.5,0,0,1-1.5-.5,1.8,1.8,0,0,1-.6-1.3Zm-6.6-4.6a3.8,3.8,0,0,1-.7,2.2,1.9,1.9,0,0,1-1.6.8c-1,0-1.6-.7-1.6-2a2.9,2.9,0,0,1,.7-2,1.9,1.9,0,0,1,1.6-.8,1.6,1.6,0,0,1,1.2.4,2.6,2.6,0,0,1,.4,1.4m1.6,4.4a3.3,3.3,0,0,0,2.6-1.4,5.9,5.9,0,0,0,1-3.6,5.8,5.8,0,0,0-1.9-4.4A6.9,6.9,0,0,0,102.9.1a7.2,7.2,0,0,0-5.2,2.1,7.4,7.4,0,0,0-2.2,5.4,7.1,7.1,0,0,0,2.2,5.2,7.7,7.7,0,0,0,5.4,2,8,8,0,0,0,2.6-.5,5.3,5.3,0,0,0,2.1-1.2l-.8-1a5.9,5.9,0,0,1-3.9,1.3,6.4,6.4,0,0,1-4.4-1.6,5.7,5.7,0,0,1-1.6-4.2,6,6,0,0,1,1.7-4.4,6,6,0,0,1,8-.3,4.5,4.5,0,0,1,1.5,3.5,4.3,4.3,0,0,1-.7,2.5c-.4.7-.9,1.1-1.4,1.1s-.7-.3-.7-.8V8.7l1.1-4.8h-1.5l-.2,1a1.4,1.4,0,0,0-.8-.9,2.8,2.8,0,0,0-1.2-.4,3.5,3.5,0,0,0-2.7,1.3,4.5,4.5,0,0,0-1.1,3.2,3.1,3.1,0,0,0,.8,2.3,2.6,2.6,0,0,0,2.1.9,2.6,2.6,0,0,0,2.2-1.2,1.6,1.6,0,0,0,.7.9,2.1,2.1,0,0,0,1.2.3M89.3,4.5a4.5,4.5,0,0,0-3.4,1.3,4.9,4.9,0,0,0-1.3,3.5,4.8,4.8,0,0,0,1.3,3.5,4.6,4.6,0,0,0,3.4,1.4,4.5,4.5,0,0,0,3.3-1.4,4.8,4.8,0,0,0,1.3-3.5,4.9,4.9,0,0,0-1.3-3.5,4.4,4.4,0,0,0-3.3-1.3m0,8.1a2.9,2.9,0,0,1-2.1-.9,3.6,3.6,0,0,1-.8-2.4,3.6,3.6,0,0,1,.8-2.4,2.8,2.8,0,0,1,2.1-.8,2.6,2.6,0,0,1,2,.8,3.6,3.6,0,0,1,.8,2.4,3.6,3.6,0,0,1-.8,2.4,2.7,2.7,0,0,1-2,.9M83.8,6.4V4.8H81.6V3.3c0-.6.1-1,.4-1.2a2.1,2.1,0,0,1,1-.4,1.5,1.5,0,0,1,.8.2V.3c-.1-.2-.5-.2-1-.2a3.3,3.3,0,0,0-2.2.8,3,3,0,0,0-.8,2.3V4.8H78.1V6.4h1.7v7.5h1.8V6.4ZM70.3,8.6a2.8,2.8,0,0,1,.6-1.8,1.8,1.8,0,0,1,1.5-.7c1.5,0,2.2.8,2.2,2.3v5.5h1.8V8.1a3.7,3.7,0,0,0-.9-2.6,2.8,2.8,0,0,0-2.4-1,2.9,2.9,0,0,0-2.8,1.6V4.8H68.5v9.1h1.8Zm-7-7.3a1.8,1.8,0,0,0,.4.9,1.2,1.2,0,0,0,1.8,0,1.2,1.2,0,0,0,.4-.9,1,1,0,0,0-.4-.9,1.2,1.2,0,0,0-1.8,0,1.3,1.3,0,0,0-.4.9m2.2,3.5H63.7v9.1h1.8ZM53.4,6a1,1,0,0,0,.4.9,1,1,0,0,0,.9.4,1.1,1.1,0,0,0,.9-.4A1,1,0,0,0,56,6a1.3,1.3,0,0,0-.4-1,1.4,1.4,0,0,0-.9-.3,1.2,1.2,0,0,0-.9.3,1.3,1.3,0,0,0-.4,1m0,6.7a1.1,1.1,0,0,0,.4.9,1.2,1.2,0,0,0,1.8,0,1.1,1.1,0,0,0,.4-.9,1.3,1.3,0,0,0-.4-1,1.2,1.2,0,0,0-1.8,0,1.3,1.3,0,0,0-.4,1M50.4.1H48.6V13.9h1.8Zm-7,1.2a1.8,1.8,0,0,0,.4.9,1.8,1.8,0,0,0,.9.4,1.3,1.3,0,0,0,.9-.4,1.2,1.2,0,0,0,.4-.9,1,1,0,0,0-.4-.9,1,1,0,0,0-.9-.4,1.2,1.2,0,0,0-.9.4,1.3,1.3,0,0,0-.4.9m2.2,3.5H43.8v9.1h1.8Zm-9,7.9a1.5,1.5,0,0,1-1-.4,1.4,1.4,0,0,1-.5-1,1.3,1.3,0,0,1,.4-.9,1.8,1.8,0,0,1,1-.4l2.8-.4V10a2.8,2.8,0,0,1-.7,2,2.7,2.7,0,0,1-2,.7m-3.3-1.3a2.7,2.7,0,0,0,.9,2,3.3,3.3,0,0,0,2.2.8,3.5,3.5,0,0,0,1.8-.5,2.7,2.7,0,0,0,1.1-1c0,.4.1.8.1,1.2h1.8a7.6,7.6,0,0,1-.1-1.5V7.8a3.3,3.3,0,0,0-1-2.4,3.8,3.8,0,0,0-2.8-.9,3.8,3.8,0,0,0-2.6.8,3,3,0,0,0-1.2,2.1l1.7.4a2.1,2.1,0,0,1,.7-1.3A2,2,0,0,1,37.3,6a2.2,2.2,0,0,1,1.5.4,1.7,1.7,0,0,1,.5,1.2c0,.4-.3.6-.7.7l-2.5.4a4,4,0,0,0-2,.8,2.7,2.7,0,0,0-.8,1.9M19.4,13.9V8.4A2.4,2.4,0,0,1,20,6.7a2,2,0,0,1,1.5-.6,2.3,2.3,0,0,1,1.5.5,2.5,2.5,0,0,1,.4,1.6v5.7h1.8V8.4a2.5,2.5,0,0,1,.6-1.7,2,2,0,0,1,1.5-.6,2.1,2.1,0,0,1,1.5.5,2.5,2.5,0,0,1,.5,1.6v5.7H31V8a3.4,3.4,0,0,0-.9-2.6,2.9,2.9,0,0,0-2.2-.9,3.4,3.4,0,0,0-3.1,1.7,2.4,2.4,0,0,0-1.1-1.3,2.9,2.9,0,0,0-1.6-.4,2.9,2.9,0,0,0-1.6.4A2.5,2.5,0,0,0,19.3,6V4.8H17.6v9.1ZM15.2,7.7H10.1V9.2h5.1Zm-7,6.2V12.2H1.9V8H7.6V6.3H1.9V2.1H8.2V.4H0V13.9Z"/></g></g></g></svg>