<svg xmlns="http://www.w3.org/2000/svg" xmlns:xlink="http://www.w3.org/1999/xlink" viewBox="0 0 144.1 14"><defs><style>.cls-1{fill:none;}.cls-2{clip-path:url(#clip-path);}.cls-3{fill:#0a1c8f;}</style><clipPath id="clip-path"><rect class="cls-1" width="144.1" height="14.04"/></clipPath></defs><g id="Layer_2" data-name="Layer 2"><g id="Layer_1-2" data-name="Layer 1"><g class="cls-2"><path class="cls-3" d="M144.1,13.8V1.4h-1.6a2.8,2.8,0,0,1-1.1,1.7,4.8,4.8,0,0,1-2.1.7V5.1h3v8.7Zm-13.2-4a2.6,2.6,0,0,1,.8-1.9,2.9,2.9,0,0,1,1.9-.7,3.2,3.2,0,0,1,1.9.7,2.5,2.5,0,0,1,.7,1.9,2.4,2.4,0,0,1-.7,1.9,2.6,2.6,0,0,1-1.9.7,2.8,2.8,0,0,1-1.9-.7,2.6,2.6,0,0,1-.8-1.9m6.9-8a5.4,5.4,0,0,0-2.7-.6,6,6,0,0,0-4.6,1.9,7.7,7.7,0,0,0-1.7,5.2,5.7,5.7,0,0,0,1.4,4.3,4.4,4.4,0,0,0,3.4,1.4,4.6,4.6,0,0,0,3.2-1.1,3.9,3.9,0,0,0,1.3-3.1,4.1,4.1,0,0,0-1.1-3,4.1,4.1,0,0,0-3.1-1.2,4.6,4.6,0,0,0-2,.5,3.2,3.2,0,0,0-1.2,1.1,4.6,4.6,0,0,1,1.2-3.1A3.9,3.9,0,0,1,135,2.8a3.8,3.8,0,0,1,2.2.6Zm-9.6-.4h-9V3.2h6.9l-.2.2-.7.6-.9,1.1a9.7,9.7,0,0,0-1,1.5,11.4,11.4,0,0,0-1,1.9,13.5,13.5,0,0,0-.8,2.4,25,25,0,0,0-.5,2.9h2a18.2,18.2,0,0,1,.6-3.5,16.3,16.3,0,0,1,1.1-2.8,13.7,13.7,0,0,1,1.3-2L127.2,4l1-.8Zm-9.8,0h-9V3.2h7l-.3.2-.6.6-.9,1.1a9.7,9.7,0,0,0-1.1,1.5l-.9,1.9a13.5,13.5,0,0,0-.8,2.4,13.5,13.5,0,0,0-.5,2.9h1.9a18.1,18.1,0,0,1,.7-3.5A10.9,10.9,0,0,1,115,7.5a8.6,8.6,0,0,1,1.3-2L117.5,4l.9-.8ZM99.3,14a4.6,4.6,0,0,0,3.2-1,3,3,0,0,0,1.2-2.5,3.3,3.3,0,0,0-.6-1.9,3.9,3.9,0,0,0-1.7-1.1,2.4,2.4,0,0,0,1.4-1.2,2.7,2.7,0,0,0,.6-1.7,3.2,3.2,0,0,0-1.2-2.5,4.4,4.4,0,0,0-2.9-.9,4.9,4.9,0,0,0-3,.9,3.2,3.2,0,0,0-1.2,2.5,3.2,3.2,0,0,0,.6,1.8,3.6,3.6,0,0,0,1.4,1.1,3.6,3.6,0,0,0-1.6,1.1,2.8,2.8,0,0,0-.7,1.9A3,3,0,0,0,96,13a4.8,4.8,0,0,0,3.3,1m0-1.6a2.7,2.7,0,0,1-1.9-.6,1.7,1.7,0,0,1-.7-1.4,1.9,1.9,0,0,1,.7-1.6,2.7,2.7,0,0,1,1.9-.6,2.9,2.9,0,0,1,1.9.6,2.2,2.2,0,0,1,.7,1.6,2.1,2.1,0,0,1-.7,1.4,2.9,2.9,0,0,1-1.9.6m0-5.7a2.5,2.5,0,0,1-1.7-.6A1.7,1.7,0,0,1,97,4.7a1.7,1.7,0,0,1,.6-1.4,2.4,2.4,0,0,1,1.7-.6,2.1,2.1,0,0,1,1.6.6,1.8,1.8,0,0,1,0,2.8,2.3,2.3,0,0,1-1.6.6M86.1,9.8a2.5,2.5,0,0,1,.7-1.9,3.4,3.4,0,0,1,1.9-.7,2.9,2.9,0,0,1,1.9.7,2.6,2.6,0,0,1,.8,1.9,2.4,2.4,0,0,1-.8,1.9,2.5,2.5,0,0,1-1.9.7,2.4,2.4,0,0,1-1.8-.7,2.2,2.2,0,0,1-.8-1.9m6.8-8a4.9,4.9,0,0,0-2.7-.6,5.8,5.8,0,0,0-4.5,1.9,7.3,7.3,0,0,0-1.8,5.2,6.2,6.2,0,0,0,1.4,4.3A4.5,4.5,0,0,0,88.7,14a4.3,4.3,0,0,0,3.2-1.1,4,4,0,0,0,1.4-3.1,3.8,3.8,0,0,0-1.2-3,4.1,4.1,0,0,0-3-1.2,3.9,3.9,0,0,0-2,.5,3.6,3.6,0,0,0-1.3,1.1,4.6,4.6,0,0,1,1.3-3.1,4.2,4.2,0,0,1,5.2-.7ZM75.6,5.9a1.8,1.8,0,0,1-.1-.6,2.8,2.8,0,0,1,.6-1.8,2.1,2.1,0,0,1,1.8-.7,2.4,2.4,0,0,1,1.7.6A2.3,2.3,0,0,1,80.2,5a2.9,2.9,0,0,1-1.7,2.5l-2,1.4A5,5,0,0,0,74.3,11a6.1,6.1,0,0,0-.8,2.8h8.7V12H75.8a3.8,3.8,0,0,1,1.5-1.7l2.5-1.6a4.3,4.3,0,0,0,2.3-3.8A3.6,3.6,0,0,0,81,2.3a4.9,4.9,0,0,0-6.2,0,4.1,4.1,0,0,0-1.1,2.8v.5ZM63.9,9.3H59.6l4.3-6.1Zm-6,1.7h6v2.8h1.8V11h2.1V9.3H65.7V1.4H63.2L57.9,8.8ZM49.3,9.8a2.6,2.6,0,0,1,.8-1.9A3.2,3.2,0,0,1,52,7.2a2.9,2.9,0,0,1,1.9.7,2.6,2.6,0,0,1,.8,1.9,2.4,2.4,0,0,1-.8,1.9,2.5,2.5,0,0,1-1.9.7,2.8,2.8,0,0,1-1.9-.7,2.6,2.6,0,0,1-.8-1.9m6.9-8a5.1,5.1,0,0,0-2.7-.6A5.8,5.8,0,0,0,49,3.1a7.3,7.3,0,0,0-1.8,5.2,5.7,5.7,0,0,0,1.4,4.3A4.4,4.4,0,0,0,52,14a4.5,4.5,0,0,0,3.2-1.1,3.9,3.9,0,0,0,1.3-3.1,3.7,3.7,0,0,0-1.1-3,4.1,4.1,0,0,0-3.1-1.2,4.6,4.6,0,0,0-2,.5,4.3,4.3,0,0,0-1.2,1.1,4.6,4.6,0,0,1,1.3-3.1,3.7,3.7,0,0,1,3-1.3,3.8,3.8,0,0,1,2.2.6ZM35.6,7.6a8.3,8.3,0,0,0,1.1,4.5A4.2,4.2,0,0,0,40.5,14a4.4,4.4,0,0,0,3.8-1.9,8.3,8.3,0,0,0,1.1-4.5,8.3,8.3,0,0,0-1.1-4.5,4.4,4.4,0,0,0-3.8-1.9,4.2,4.2,0,0,0-3.8,1.9,8.3,8.3,0,0,0-1.1,4.5m1.8,0a6,6,0,0,1,1.1-4,2.8,2.8,0,0,1,2-.8,2.6,2.6,0,0,1,1.9.8,6,6,0,0,1,1.1,4,6,6,0,0,1-1.1,4,2.6,2.6,0,0,1-1.9.8,2.8,2.8,0,0,1-2-.8,6,6,0,0,1-1.1-4M25.8,5.9a1.2,1.2,0,0,0,.4.9,1.3,1.3,0,0,0,.9.4,1.8,1.8,0,0,0,1-.4,1.6,1.6,0,0,0,.3-.9,1.7,1.7,0,0,0-.3-1,1.8,1.8,0,0,0-1-.4,1.3,1.3,0,0,0-.9.4,1.3,1.3,0,0,0-.4,1m0,6.6a1.3,1.3,0,0,0,.4,1,1.8,1.8,0,0,0,.9.4,1.8,1.8,0,0,0,1-.4,1.8,1.8,0,0,0,.4-1,1.8,1.8,0,0,0-.4-.9,1.3,1.3,0,0,0-1-.4,1.4,1.4,0,0,0-1.3,1.3M22.9,0H21.1V13.8h1.8ZM17.2,10.6a2.5,2.5,0,0,1-2.6,1.9,2.7,2.7,0,0,1-1.9-.8,2.8,2.8,0,0,1-.8-2h6.9V9.1a5.1,5.1,0,0,0-1.2-3.5,4.1,4.1,0,0,0-3.2-1.3,4.3,4.3,0,0,0-3.1,1.4A5.2,5.2,0,0,0,10,9.2a4.7,4.7,0,0,0,1.4,3.5A4.4,4.4,0,0,0,14.6,14a4.1,4.1,0,0,0,2.7-.8,3.5,3.5,0,0,0,1.4-2ZM11.9,8.2a2.7,2.7,0,0,1,.8-1.6,2.1,2.1,0,0,1,1.7-.7,2.1,2.1,0,0,1,1.8.7,2,2,0,0,1,.7,1.6ZM10.9,2V.3H0V2H4.5V13.8H6.4V2Z"/></g></g></g></svg>