<svg xmlns="http://www.w3.org/2000/svg" viewBox="0 0 632 88.1"><defs><style>.cls-1{fill:#0a1f8c;}.cls-2{font-size:30.86px;font-family:CircularStd-Book, Circular Std;}.cls-2,.cls-8{fill:#fff;}.cls-3{letter-spacing:0em;}.cls-4{letter-spacing:0em;}.cls-5{letter-spacing:0em;}.cls-6{letter-spacing:0em;}.cls-7{letter-spacing:0em;}</style></defs><g id="Layer_2" data-name="Layer 2"><g id="Layer_1-2" data-name="Layer 1"><rect class="cls-1" width="632" height="88.13"/><text class="cls-2" transform="translate(95.2 54.3)">Open p<tspan class="cls-3" x="103.1" y="0">r</tspan><tspan class="cls-4" x="114.3" y="0">o</tspan><tspan class="cls-5" x="132" y="0">du</tspan><tspan class="cls-4" x="167.3" y="0">ct </tspan><tspan class="cls-5" x="202.3" y="0">c</tspan><tspan class="cls-6" x="218.5" y="0">atalo</tspan><tspan class="cls-7" x="287.3" y="0">gu</tspan><tspan x="322.3" y="0">e </tspan></text><path class="cls-8" d="M520.9,46.6c0-8.8.1-17.7,0-26.5a5.4,5.4,0,0,1,5.8-5.8h21a11.9,11.9,0,0,1,8.5,3.5l9.8,9.9a11.1,11.1,0,0,1,3.4,8.1V73.7a5.1,5.1,0,0,1-5.3,5.4H526.2a5,5,0,0,1-5.3-5.3Zm2.3,27.2a2.7,2.7,0,0,0,3,2.9h37.9a2.6,2.6,0,0,0,2.9-2.9V35.6a7.5,7.5,0,0,0-.7-3.3,6.7,6.7,0,0,1-3.1.4h-6.8a5.1,5.1,0,0,1-5.4-5.3V19.9a5.7,5.7,0,0,1,.4-2.5,7.8,7.8,0,0,0-3.3-.7H526.2a2.7,2.7,0,0,0-3,3m30.2-.7c.1-.2,0-.1,0,0,0,3-.1,6,0,8.9a2.5,2.5,0,0,0,2.5,2.5h8.8c.1,0,.2-.1.1-.1Z"/><path class="cls-8" d="M573.4,12.7h2.7a1.1,1.1,0,0,1,1.2.7,1.3,1.3,0,0,1-.2,1.3c-2.7,3-5.3,6-8,8.9a1.1,1.1,0,0,1-1.9,0l-7.8-8.9a1.2,1.2,0,0,1-.3-1.4c.2-.5.7-.6,1.2-.6h2.5a1.5,1.5,0,0,0,.2-1.1V5.5c0-1.3.4-1.6,1.6-1.6h7.2c1.2,0,1.6.4,1.6,1.6Zm-5.2,8.5,5.4-6.1h-.9c-1.3,0-1.6-.3-1.6-1.7v-7h-5.8v6.3c0,2.3,0,2.3-2.2,2.4l-.2.2Z"/><path class="cls-8" d="M550,45a41.3,41.3,0,0,0-10.5,1.8,53.7,53.7,0,0,1-4.9,7.5,7.3,7.3,0,0,1-3.5,2.5,2.7,2.7,0,0,1-3.4-3.5,8.5,8.5,0,0,1,2.8-4.2,20.1,20.1,0,0,1,7.4-4.2,73,73,0,0,0,4.3-9.4,17.8,17.8,0,0,1-2.1-5.4,12.7,12.7,0,0,1,.1-5.5,5.1,5.1,0,0,1,.9-1.8,2.6,2.6,0,0,1,4.5.6,8.3,8.3,0,0,1,.7,4.1,19.2,19.2,0,0,1-1.1,6.7l-.3.9c2,2.5,3.9,5.1,6.1,7.5a28.8,28.8,0,0,1,7.2.6,9.2,9.2,0,0,1,3.3,1.6,2.8,2.8,0,0,1-.7,4.9,6.4,6.4,0,0,1-5.4-.3A22.7,22.7,0,0,1,550,45Zm-8.9-1.1a43,43,0,0,1,6.9-1.1l-4.1-5.1ZM530,54.4c1.6.1,4.7-3.1,5.6-5.9C533.3,49,529.9,52.6,530,54.4Zm13.2-30.3c-1.4,1.3-1.4,5.1,0,8.1C544.3,30.2,544.3,25.5,543.2,24.1Zm10.1,20.8c2.8,2.9,6,3.6,7.1,2C558.4,45.2,556,45.2,553.3,44.9Z"/><path class="cls-8" d="M541.9,65.8V61.7c0-.8.3-1.3,1.2-1.3s2.6-.1,3.8,0,3.8,1.8,4.2,4.4a10.1,10.1,0,0,1-.2,3,4.3,4.3,0,0,1-4.2,3.4h-3.5c-.9,0-1.3-.4-1.3-1.3V65.8Zm2.2,3.7c1.6-.2,3.3.5,4.2-1.3a4.9,4.9,0,0,0-.1-5.1c-1-1.4-2.7-.9-4.1-1Z"/><path class="cls-8" d="M534,67v2.9c0,.8-.3,1.5-1.1,1.5s-1.1-.7-1.1-1.4V61.7c0-.8.4-1.3,1.2-1.3a32,32,0,0,1,4.4.1,2.9,2.9,0,0,1,2.6,2.9,3,3,0,0,1-2.3,3.4,18.3,18.3,0,0,1-3.3.2Zm.1-4.9v3.2a6.5,6.5,0,0,0,2.4-.1,1.4,1.4,0,0,0,1.3-1.5,1.5,1.5,0,0,0-1.4-1.6Z"/><path class="cls-8" d="M555.2,64.8h3.4c1,.1,1.3.4.9,1.5s-2.8,0-4.3.3V70c-.1.9-.5,1.5-1.2,1.4a1,1,0,0,1-1-1.1V61.5a1,1,0,0,1,1-1.1h5.7l.6.3a1.1,1.1,0,0,1,0,1.1c-1.5.7-3.3.1-5.1.4A22.5,22.5,0,0,0,555.2,64.8Z"/></g></g></svg>