<svg xmlns="http://www.w3.org/2000/svg" xmlns:xlink="http://www.w3.org/1999/xlink" viewBox="0 0 54.6 54.6"><defs><style>.cls-1{fill:none;}.cls-2{clip-path:url(#clip-path);}.cls-3{fill:#0a1f8c;}.cls-4{fill:#fff;}</style><clipPath id="clip-path" transform="translate(0 0)"><rect class="cls-1" width="54.6" height="54.56"/></clipPath></defs><g id="Layer_2" data-name="Layer 2"><g id="Layer_1-2" data-name="Layer 1"><g class="cls-2"><path class="cls-3" d="M54.6,27.3A27.3,27.3,0,1,1,27.3,0,27.4,27.4,0,0,1,54.6,27.3" transform="translate(0 0)"/><path class="cls-4" d="M24.4,33.3l9.8-5.7-9.8-5.8Zm19.7-6.4v2.5l-.3,3c-.1,1-.2,2-.4,3.1a3.9,3.9,0,0,1-2.3,3.1,6.7,6.7,0,0,1-1.9.5l-5.1.5q-3,.3-6,.3L23,39.7l-3.4-.2L15.4,39a4,4,0,0,1-3.3-2.8,11.1,11.1,0,0,1-.5-2.5l-.3-3.6a52.3,52.3,0,0,1,0-5.6,38.6,38.6,0,0,1,.6-4.9,4,4,0,0,1,3.2-3.4l3.5-.4,4.1-.4h5.2l5.7.2,2.4.2,3.8.5a3.9,3.9,0,0,1,3.4,2.5,11.6,11.6,0,0,1,.4,1.8,36.6,36.6,0,0,1,.5,5.7v.7" transform="translate(0 0)"/><path class="cls-3" d="M24.4,33.3V21.8l9.8,5.8-9.8,5.7" transform="translate(0 0)"/></g></g></g></svg>