<svg xmlns="http://www.w3.org/2000/svg" xmlns:xlink="http://www.w3.org/1999/xlink" viewBox="0 0 46.7 46.7"><defs><style>.cls-1{fill:none;}.cls-2{clip-path:url(#clip-path);}.cls-3{fill:#0a1f8c;}.cls-4{fill:#fff;}</style><clipPath id="clip-path" transform="translate(0 0)"><rect class="cls-1" width="46.7" height="46.7"/></clipPath></defs><g id="Layer_2" data-name="Layer 2"><g id="Layer_1-2" data-name="Layer 1"><g class="cls-2"><path class="cls-3" d="M46.7,23.3A23.4,23.4,0,1,1,23.3,0,23.4,23.4,0,0,1,46.7,23.3" transform="translate(0 0)"/><path class="cls-4" d="M29.5,18.2h4.4c.3,0,.3-.2.3-.3V13.8c0-.3-.1-.3-.3-.3H29.8a.3.3,0,0,0-.3.3v4.4m-5.9,1.1a4.8,4.8,0,0,0-4.9,4.8A5,5,0,0,0,23.5,29a4.8,4.8,0,0,0,4.9-4.9,4.7,4.7,0,0,0-4.8-4.8m-7,2H13c-.5,0-.5,0-.5.5V32.4a2.8,2.8,0,0,0,.1.9,2.6,2.6,0,0,0,2.6,1.9H32a2.8,2.8,0,0,0,2.7-2.7c-.1-3.6,0-7.2,0-10.9,0-.2-.1-.3-.4-.3H30.6a7.3,7.3,0,0,1-.8,7,7.1,7.1,0,0,1-6.1,3.3,6.8,6.8,0,0,1-5.5-2.3,7.4,7.4,0,0,1-1.6-8m7,16.6H15.2a5.2,5.2,0,0,1-5.4-5.1V15.5a5.2,5.2,0,0,1,4-5l1.6-.2H31.9a5.1,5.1,0,0,1,4.8,2.8,4.5,4.5,0,0,1,.7,2.5v17a5.3,5.3,0,0,1-3.3,4.9,4.6,4.6,0,0,1-2.1.4H23.6" transform="translate(0 0)"/></g></g></g></svg>