<svg xmlns="http://www.w3.org/2000/svg" xmlns:xlink="http://www.w3.org/1999/xlink" viewBox="0 0 46.7 46.7"><defs><style>.cls-1{fill:none;}.cls-2{clip-path:url(#clip-path);}.cls-3{fill:#0a1f8c;}.cls-4{fill:#fff;}</style><clipPath id="clip-path" transform="translate(0 0)"><rect class="cls-1" width="46.7" height="46.7"/></clipPath></defs><g id="Layer_2" data-name="Layer 2"><g id="Layer_1-2" data-name="Layer 1"><g class="cls-2"><path class="cls-3" d="M46.7,23.3A23.4,23.4,0,1,1,23.3,0,23.4,23.4,0,0,1,46.7,23.3" transform="translate(0 0)"/><path class="cls-4" d="M20.9,28.5l8.4-4.9-8.4-4.9ZM37.8,23v1.1a3.7,3.7,0,0,0-.1,1.1,21.1,21.1,0,0,1-.2,2.5l-.3,2.6a3.7,3.7,0,0,1-2,2.8,5.1,5.1,0,0,1-1.7.3l-4.3.5a44.3,44.3,0,0,1-5.2.2H19.7l-3-.2-3.5-.4A3.6,3.6,0,0,1,10.3,31a17,17,0,0,1-.4-2.2c-.1-1-.1-2-.2-3a40.1,40.1,0,0,1,0-4.9c.1-1.4.3-2.8.5-4.1a3.3,3.3,0,0,1,2.7-2.9l3-.4,3.6-.3h4.4l4.8.2h2.2l3.2.4A3.4,3.4,0,0,1,36.9,16a8.3,8.3,0,0,1,.4,1.5,42.8,42.8,0,0,1,.5,4.9V23" transform="translate(0 0)"/><path class="cls-3" d="M20.9,28.5V18.7l8.4,4.9-8.4,4.9" transform="translate(0 0)"/></g></g></g></svg>