<svg xmlns="http://www.w3.org/2000/svg" xmlns:xlink="http://www.w3.org/1999/xlink" viewBox="0 0 61.9 17.4"><defs><style>.cls-1{fill:none;}.cls-2{clip-path:url(#clip-path);}.cls-3{fill:#0a1f8c;}</style><clipPath id="clip-path"><rect class="cls-1" width="61.9" height="17.38"/></clipPath></defs><g id="Layer_2" data-name="Layer 2"><g id="Layer_1-2" data-name="Layer 1"><g class="cls-2"><path class="cls-3" d="M59.9,13.1a3.2,3.2,0,0,1-3.3,2.3,3.1,3.1,0,0,1-2.4-1,3.3,3.3,0,0,1-1-2.5h8.6a1.7,1.7,0,0,0,.1-.7,6.2,6.2,0,0,0-1.5-4.4,5,5,0,0,0-4-1.7,5.2,5.2,0,0,0-3.9,1.7,6.2,6.2,0,0,0-1.7,4.4,6.1,6.1,0,0,0,1.7,4.5,5.8,5.8,0,0,0,4.1,1.7,6.5,6.5,0,0,0,3.4-1,5,5,0,0,0,1.8-2.7Zm-6.7-3a3.5,3.5,0,0,1,1-2.1,2.8,2.8,0,0,1,2.2-.9,3.4,3.4,0,0,1,2.3.8,3.3,3.3,0,0,1,.8,2.2ZM33.4,17V10.1a3.3,3.3,0,0,1,.8-2.2,2.6,2.6,0,0,1,1.9-.8,2.9,2.9,0,0,1,1.9.7,3.2,3.2,0,0,1,.6,2V17h2.2V10a2.8,2.8,0,0,1,.8-2,2.3,2.3,0,0,1,1.9-.9,2.5,2.5,0,0,1,1.8.7,3.2,3.2,0,0,1,.6,2V17h2.3V9.5A4.1,4.1,0,0,0,47,6.3a3.8,3.8,0,0,0-2.8-1.2,4.2,4.2,0,0,0-3.9,2.2,3.1,3.1,0,0,0-1.4-1.6,3.6,3.6,0,0,0-2-.6,5.4,5.4,0,0,0-2.1.5A3.2,3.2,0,0,0,33.4,7V5.5H31.2V17ZM22.4,5.1a5.4,5.4,0,0,0-4.2,1.8,6,6,0,0,0-1.7,4.3,6,6,0,0,0,1.7,4.4,5.4,5.4,0,0,0,4.2,1.8,5.7,5.7,0,0,0,4.3-1.8,6,6,0,0,0,1.6-4.4,5.9,5.9,0,0,0-1.6-4.3,5.8,5.8,0,0,0-4.3-1.8m0,10.3a3.4,3.4,0,0,1-2.5-1.1,4.5,4.5,0,0,1-1.1-3.1,4.2,4.2,0,0,1,1.1-3,3.4,3.4,0,0,1,2.5-1.1A3.6,3.6,0,0,1,25,8.2a4.2,4.2,0,0,1,1,3,4.5,4.5,0,0,1-1,3.1,3.6,3.6,0,0,1-2.6,1.1m-9,1.6V0H11V7.3H2.4V0H0V17H2.4V9.5H11V17Z"/></g></g></g></svg>