<svg xmlns="http://www.w3.org/2000/svg" xmlns:xlink="http://www.w3.org/1999/xlink" viewBox="0 0 124.4 20.3"><defs><style>.cls-1{fill:none;}.cls-2{clip-path:url(#clip-path);}.cls-3{fill:#0a1f8c;}</style><clipPath id="clip-path" transform="translate(0 0)"><rect class="cls-1" width="124.4" height="20.26"/></clipPath></defs><g id="Layer_2" data-name="Layer 2"><g id="Layer_1-2" data-name="Layer 1"><g class="cls-2"><path class="cls-3" d="M121.6,11.2a2.5,2.5,0,0,1-2.7,1.8,3.2,3.2,0,0,1-2.1-.8,2.8,2.8,0,0,1-.9-1.9h8.5v-1a6.4,6.4,0,0,0-1.5-4.5,5.7,5.7,0,0,0-4.3-1.6,5.4,5.4,0,0,0-4.1,1.7,6,6,0,0,0-1.7,4.5,6.2,6.2,0,0,0,1.8,4.6,6,6,0,0,0,4.3,1.7,5.8,5.8,0,0,0,3.5-1.1,5.1,5.1,0,0,0,1.8-2.6ZM116,8.1a2.3,2.3,0,0,1,.8-1.6,2.3,2.3,0,0,1,1.8-.7,3,3,0,0,1,2,.6,3.3,3.3,0,0,1,.7,1.7ZM108.7,0h-2.9V1.7a1.5,1.5,0,0,1-.5,1.3,1.4,1.4,0,0,1-1.3.5h-.6V6.4h2.1v5.5a3.6,3.6,0,0,0,1,2.6,3.7,3.7,0,0,0,2.8,1,4.8,4.8,0,0,0,1.8-.3V12.6h-1a1.8,1.8,0,0,1-1.1-.3,1.6,1.6,0,0,1-.3-1.1V6.4h2.4V3.5h-2.4ZM96.1,3.2a6,6,0,0,0-4.4,1.7,6.1,6.1,0,0,0-1.8,4.5,6.1,6.1,0,0,0,1.8,4.5,5.7,5.7,0,0,0,4.4,1.8,5.9,5.9,0,0,0,4.4-1.8,6.1,6.1,0,0,0,1.8-4.5,6.1,6.1,0,0,0-1.8-4.5,6.2,6.2,0,0,0-4.4-1.7m0,9.6a2.9,2.9,0,0,1-2.1-.9,3.3,3.3,0,0,1-.9-2.5A3.2,3.2,0,0,1,94,7a2.9,2.9,0,0,1,4.2,0,3.2,3.2,0,0,1,.9,2.4,3.3,3.3,0,0,1-.9,2.5,2.9,2.9,0,0,1-2.1.9M84.5,15.3h3.1a12.5,12.5,0,0,1-.2-2.1V3.5H84.2v6.9a2.4,2.4,0,0,1-.6,1.7,2.4,2.4,0,0,1-3.2,0,2.8,2.8,0,0,1-.6-1.8V3.5H76.7V11a4.8,4.8,0,0,0,1.2,3.3,4.1,4.1,0,0,0,3.2,1.3,6.9,6.9,0,0,0,2-.3,3,3,0,0,0,1.3-1.2,4.1,4.1,0,0,0,.1,1.2m-20-5.9A3.6,3.6,0,0,1,65.3,7a2.9,2.9,0,0,1,2.1-.9,2.6,2.6,0,0,1,2.1.9,3.2,3.2,0,0,1,.9,2.4,3.7,3.7,0,0,1-.9,2.5,2.6,2.6,0,0,1-2.1.9,2.9,2.9,0,0,1-2.1-.9,4.1,4.1,0,0,1-.8-2.5m9,10.5V3.5H70.4V4.9a2.6,2.6,0,0,0-1.2-1.1A3.8,3.8,0,0,0,67,3.2,5.1,5.1,0,0,0,62.9,5a6.1,6.1,0,0,0-1.6,4.4,6.4,6.4,0,0,0,1.6,4.5,5.7,5.7,0,0,0,4.2,1.7,3.6,3.6,0,0,0,3.2-1.4v5.7ZM47.3,13.3a1.4,1.4,0,0,1-1.1-.4,1.3,1.3,0,0,1-.4-1q0-1.2,1.5-1.5l2.6-.4v.6a2.8,2.8,0,0,1-.7,2.1,2.9,2.9,0,0,1-1.9.6m-4.7-1.2a3.4,3.4,0,0,0,1.1,2.5,4.2,4.2,0,0,0,3,1.1,3.7,3.7,0,0,0,3.4-1.8,4.6,4.6,0,0,0,.2,1.4h2.9a9,9,0,0,1-.2-1.8V7.7a4.6,4.6,0,0,0-1.2-3.3,5.4,5.4,0,0,0-3.9-1.2,5.2,5.2,0,0,0-3.5,1.1,4.7,4.7,0,0,0-1.6,2.8l2.9.6a1.8,1.8,0,0,1,.6-1.4,2.3,2.3,0,0,1,1.6-.6,2.1,2.1,0,0,1,1.5.5,1.4,1.4,0,0,1,.5,1.1c0,.5-.3.7-.9.8l-2.9.4a4.9,4.9,0,0,0-2.5,1.2,3,3,0,0,0-1,2.4M32.4,0H29.5V1.7A1.9,1.9,0,0,1,29,3a1.4,1.4,0,0,1-1.3.5h-.6V6.4h2.1v5.5a3.3,3.3,0,0,0,1,2.6,3.7,3.7,0,0,0,2.8,1,4.8,4.8,0,0,0,1.8-.3V12.6h-1a1.6,1.6,0,0,1-1.1-.3,1.6,1.6,0,0,1-.3-1.1V6.4h2.4V3.5H32.4ZM23.1,11.2A2.5,2.5,0,0,1,20.4,13a3.2,3.2,0,0,1-2.1-.8,3.4,3.4,0,0,1-.9-1.9h8.5v-1a6.4,6.4,0,0,0-1.5-4.5,5.7,5.7,0,0,0-4.3-1.6A5.4,5.4,0,0,0,16,4.9a6.4,6.4,0,0,0-1.7,4.5A6.2,6.2,0,0,0,16.1,14a6,6,0,0,0,4.3,1.7,5.8,5.8,0,0,0,3.5-1.1A6.1,6.1,0,0,0,25.8,12ZM17.5,8.1a2.3,2.3,0,0,1,.8-1.6,2.3,2.3,0,0,1,1.8-.7,3,3,0,0,1,2,.6,3.3,3.3,0,0,1,.7,1.7ZM6,12.1a2.8,2.8,0,0,1-2-.8,3.3,3.3,0,0,1-.8-2.2A3.3,3.3,0,0,1,4,6.9a3,3,0,0,1,2-.8,2.8,2.8,0,0,1,2,.8,2.9,2.9,0,0,1,.8,2.2,3.2,3.2,0,0,1-.7,2.2,3,3,0,0,1-2.1.8M0,16a4.7,4.7,0,0,0,1.8,3,6.5,6.5,0,0,0,3.9,1.3,5.8,5.8,0,0,0,4.7-1.8,6.7,6.7,0,0,0,1.5-4.4V3.5h-3V4.9A4.3,4.3,0,0,0,7.7,3.8a4.8,4.8,0,0,0-2.2-.5A5.1,5.1,0,0,0,1.6,5,5.6,5.6,0,0,0,0,9.1a5.6,5.6,0,0,0,1.6,4.1,5,5,0,0,0,3.9,1.6,4,4,0,0,0,2-.4,3.6,3.6,0,0,0,1.3-1.1v.9c0,2.2-1.1,3.2-3.2,3.2a2.8,2.8,0,0,1-1.8-.6,2.4,2.4,0,0,1-.9-1.6Z" transform="translate(0 0)"/></g></g></g></svg>