<svg xmlns="http://www.w3.org/2000/svg" xmlns:xlink="http://www.w3.org/1999/xlink" viewBox="0 0 145.8 17.7"><defs><style>.cls-1{fill:none;}.cls-2{clip-path:url(#clip-path);}.cls-3{fill:#0a1f8c;}</style><clipPath id="clip-path" transform="translate(0 0)"><rect class="cls-1" width="145.8" height="17.74"/></clipPath></defs><g id="Layer_2" data-name="Layer 2"><g id="Layer_1-2" data-name="Layer 1"><g class="cls-2"><path class="cls-3" d="M140.6,7.6a2.8,2.8,0,0,1,2.1.7,3.7,3.7,0,0,1,1,1.7l2-.9A4.2,4.2,0,0,0,144,6.6a4.8,4.8,0,0,0-3.4-1.1,5.4,5.4,0,0,0-4.2,1.7,6,6,0,0,0-1.6,4.4,6.1,6.1,0,0,0,1.6,4.4,5.4,5.4,0,0,0,4.2,1.7,5.3,5.3,0,0,0,3.4-1,5.6,5.6,0,0,0,1.8-2.6l-2-.8a3.1,3.1,0,0,1-1,1.6,2.9,2.9,0,0,1-2.2.7,3.3,3.3,0,0,1-2.5-1,4.2,4.2,0,0,1-1-3,4,4,0,0,1,1-3,3.3,3.3,0,0,1,2.5-1m-7.1-1.9h-.8a3.6,3.6,0,0,0-3.4,2.2v-2h-2.2V17.4h2.2V11.6c0-2.4,1.1-3.6,3.2-3.6h1ZM118,15.8a1.6,1.6,0,0,1-1.4-.5,1.7,1.7,0,0,1-.1-2.3,2.6,2.6,0,0,1,1.3-.6l3.5-.5v.5a3.3,3.3,0,0,1-.9,2.6,3.2,3.2,0,0,1-2.4.8m-4.2-1.5a3,3,0,0,0,1.1,2.4,3.6,3.6,0,0,0,2.7,1,5.7,5.7,0,0,0,2.4-.5,6.2,6.2,0,0,0,1.4-1.4,8.1,8.1,0,0,0,.1,1.6h2.2a11.5,11.5,0,0,1-.1-1.9V9.7a4.1,4.1,0,0,0-1.2-3,4.9,4.9,0,0,0-3.6-1.2,5.2,5.2,0,0,0-3.3,1A3.7,3.7,0,0,0,114,9.2l2.2.5A2.7,2.7,0,0,1,117,8a2.4,2.4,0,0,1,1.8-.6,2.7,2.7,0,0,1,1.9.6,1.9,1.9,0,0,1,.6,1.5c0,.5-.3.7-.9.8l-3.1.5a4.4,4.4,0,0,0-2.6,1.1,3.2,3.2,0,0,0-.9,2.4m-10.5-3.6a3.5,3.5,0,0,1,.7-2.3,2.4,2.4,0,0,1,2-.9c1.8,0,2.6,1,2.6,2.9v7h2.3V10.1a4.9,4.9,0,0,0-1.1-3.3,3.5,3.5,0,0,0-3-1.3,4,4,0,0,0-3.6,2V5.8H101V17.4h2.3ZM91.9,15.8a1.5,1.5,0,0,1-1.3-.5,1.4,1.4,0,0,1-.6-1.1,1.7,1.7,0,0,1,.5-1.2,2.3,2.3,0,0,1,1.2-.6l3.6-.5v.5a3,3,0,0,1-1,2.6,3.2,3.2,0,0,1-2.4.8m-4.2-1.5a3.4,3.4,0,0,0,1.1,2.4,3.9,3.9,0,0,0,2.8,1,5.2,5.2,0,0,0,2.3-.5,4.7,4.7,0,0,0,1.4-1.4c0,.6.1,1.1.1,1.6h2.3a11.1,11.1,0,0,1-.2-1.9V9.7a4.1,4.1,0,0,0-1.2-3,4.7,4.7,0,0,0-3.6-1.2,5.1,5.1,0,0,0-3.2,1A3.7,3.7,0,0,0,88,9.2l2.1.5A3.4,3.4,0,0,1,90.9,8a2.9,2.9,0,0,1,1.9-.6,2.4,2.4,0,0,1,1.8.6,2,2,0,0,1,.7,1.5c0,.5-.3.7-.9.8l-3.2.5a4.1,4.1,0,0,0-2.5,1.1,3.3,3.3,0,0,0-1,2.4M85.4,4.2a5.1,5.1,0,0,0-1.7-2.9,5.5,5.5,0,0,0-4-1.3,5.7,5.7,0,0,0-4,1.5,4.6,4.6,0,0,0-1.6,3.6,4,4,0,0,0,1.1,3,5.8,5.8,0,0,0,3,1.6l2.4.5a3.1,3.1,0,0,1,1.9,1,2.2,2.2,0,0,1,.7,1.7,2.3,2.3,0,0,1-.9,1.9,4.5,4.5,0,0,1-5.5-.3A3.9,3.9,0,0,1,75.6,12l-2.3.7a5.8,5.8,0,0,0,1.9,3.5,6.4,6.4,0,0,0,4.5,1.5A6.3,6.3,0,0,0,84,16.2a4.6,4.6,0,0,0,1.6-3.5,4.5,4.5,0,0,0-1.2-3.1,5.8,5.8,0,0,0-3.2-1.7l-2.6-.5A3.5,3.5,0,0,1,77,6.5a2.5,2.5,0,0,1-.6-1.6,2.6,2.6,0,0,1,1-2,3.1,3.1,0,0,1,2.3-.8,3.3,3.3,0,0,1,2.5.9,2.9,2.9,0,0,1,1.1,2Zm-22.5-2H60.8V4.1a1.7,1.7,0,0,1-.5,1.2c-.2.4-.7.5-1.3.5h-.6V7.9h2.2v6.3a3.1,3.1,0,0,0,.9,2.4,2.9,2.9,0,0,0,2.3.9l1.6-.2V15.4h-.9a2.2,2.2,0,0,1-1.3-.4,2.1,2.1,0,0,1-.3-1.2v-6h2.5V5.8H62.9ZM53.9,16a5.7,5.7,0,0,0,.1,1.4h2.1a15.5,15.5,0,0,1-.1-2.2V5.8H53.7v7a2.8,2.8,0,0,1-.7,2.1,2.2,2.2,0,0,1-2,.8,2.2,2.2,0,0,1-2-.8,3.7,3.7,0,0,1-.6-2.1v-7H46.1v7.3a4.6,4.6,0,0,0,1.2,3.3,3.9,3.9,0,0,0,3.1,1.3,4.9,4.9,0,0,0,2.1-.4A2.9,2.9,0,0,0,53.9,16M37.6,5.5a6.1,6.1,0,0,0-4.3,1.7,6.1,6.1,0,0,0-1.6,4.4A6.1,6.1,0,0,0,33.3,16a5.6,5.6,0,0,0,4.3,1.7A5.4,5.4,0,0,0,41.8,16a6.2,6.2,0,0,0,1.7-4.4,6.2,6.2,0,0,0-1.7-4.4,5.7,5.7,0,0,0-4.2-1.7m0,10.2A3.3,3.3,0,0,1,35,14.6a4,4,0,0,1-1-3,4,4,0,0,1,1-3,3.6,3.6,0,0,1,2.6-1.1,3.4,3.4,0,0,1,2.5,1.1,4.1,4.1,0,0,1,1.1,3,4.1,4.1,0,0,1-1.1,3,3.1,3.1,0,0,1-2.5,1.1M27.5,11.5a4.5,4.5,0,0,1-1,3A2.9,2.9,0,0,1,24,15.7a2.9,2.9,0,0,1-2.4-1.2,4,4,0,0,1-1-3,3.9,3.9,0,0,1,1-2.9A3,3,0,0,1,24,7.5a3.1,3.1,0,0,1,2.5,1.1,4.4,4.4,0,0,1,1,2.9m-6.9,5.9V15.7a4.2,4.2,0,0,0,3.8,2,4.7,4.7,0,0,0,3.9-1.8,6.3,6.3,0,0,0,1.5-4.4,6.7,6.7,0,0,0-1.4-4.3,5.1,5.1,0,0,0-3.9-1.7,4.5,4.5,0,0,0-2.4.6,2.9,2.9,0,0,0-1.5,1.4V0H18.4V17.4ZM8.1,2.8,11,10.4H5.2Zm5.6,14.6h2.5L9.5.4H6.8L0,17.4H2.5l1.8-4.8h7.6Z" transform="translate(0 0)"/></g></g></g></svg>