<svg xmlns="http://www.w3.org/2000/svg" xmlns:xlink="http://www.w3.org/1999/xlink" viewBox="0 0 120.3 20.1"><defs><style>.cls-1{fill:none;}.cls-2{clip-path:url(#clip-path);}.cls-3{fill:#0a1f8c;}</style><clipPath id="clip-path"><rect class="cls-1" width="120.3" height="20.11"/></clipPath></defs><g id="Layer_2" data-name="Layer 2"><g id="Layer_1-2" data-name="Layer 1"><g class="cls-2"><path class="cls-3" d="M118.3,11.2a3.1,3.1,0,0,1-3.2,2.4,3.7,3.7,0,0,1-2.5-1,3.7,3.7,0,0,1-1-2.5h8.7V9.3a6.8,6.8,0,0,0-1.4-4.4,5.3,5.3,0,0,0-4.1-1.6A5.4,5.4,0,0,0,110.9,5a6.1,6.1,0,0,0-1.6,4.4,5.7,5.7,0,0,0,1.7,4.5,5.7,5.7,0,0,0,4.1,1.7,5.2,5.2,0,0,0,3.3-1.1,5.1,5.1,0,0,0,1.9-2.6Zm-6.6-3a2.5,2.5,0,0,1,.9-2,2.9,2.9,0,0,1,2.2-.9,3.2,3.2,0,0,1,2.3.8,2.9,2.9,0,0,1,.9,2.1ZM104.8,0h-2V1.9a2.1,2.1,0,0,1-.5,1.3,1.7,1.7,0,0,1-1.3.4h-.6V5.7h2.2V12a3.3,3.3,0,0,0,.8,2.4,3.2,3.2,0,0,0,2.4.9l1.5-.2V13.2h-.9a2.1,2.1,0,0,1-1.2-.4,2.1,2.1,0,0,1-.4-1.2v-6h2.5V3.6h-2.5ZM93.1,3.3A5.7,5.7,0,0,0,88.9,5a6.2,6.2,0,0,0-1.7,4.4,6,6,0,0,0,1.7,4.4,5.4,5.4,0,0,0,4.2,1.8,5.5,5.5,0,0,0,4.3-1.8A6,6,0,0,0,99,9.4,6.1,6.1,0,0,0,97.4,5a5.8,5.8,0,0,0-4.3-1.7m0,10.2a3.1,3.1,0,0,1-2.5-1.1,4.1,4.1,0,0,1-1.1-3,4.1,4.1,0,0,1,1.1-3,3.4,3.4,0,0,1,2.5-1.1,3.5,3.5,0,0,1,2.6,1.1,4,4,0,0,1,1,3,4,4,0,0,1-1,3,3.1,3.1,0,0,1-2.6,1.1m-10.8.3c0,.6.1,1,.1,1.4h2.2a14.8,14.8,0,0,1-.1-2.1V3.6H82.2v7a3.2,3.2,0,0,1-.7,2.2,2.5,2.5,0,0,1-2,.8,2.3,2.3,0,0,1-2-.9,3.5,3.5,0,0,1-.6-2.1v-7H74.6v7.3a4.5,4.5,0,0,0,1.2,3.3,4,4,0,0,0,3.1,1.4,5,5,0,0,0,2.1-.5,2.7,2.7,0,0,0,1.3-1.3M62.1,9.4A4.4,4.4,0,0,1,63,6.5a3.1,3.1,0,0,1,2.5-1.1A3,3,0,0,1,68,6.5a4.4,4.4,0,0,1,.9,2.9,4.4,4.4,0,0,1-.9,2.9,3.2,3.2,0,0,1-2.5,1.2,2.9,2.9,0,0,1-2.4-1.2,3.9,3.9,0,0,1-1-2.9m9,10.4V3.6H69V5.4A3.8,3.8,0,0,0,67.6,4a4.1,4.1,0,0,0-2.3-.6,4.8,4.8,0,0,0-4,1.7,6.4,6.4,0,0,0-1.5,4.3,5.9,5.9,0,0,0,1.6,4.3,4.8,4.8,0,0,0,3.9,1.8,5.1,5.1,0,0,0,2.2-.5,3.8,3.8,0,0,0,1.4-1.4v6.2ZM45.7,13.7a2.2,2.2,0,0,1-1.4-.5,2.1,2.1,0,0,1-.5-1.2,1.7,1.7,0,0,1,.5-1.2,2.3,2.3,0,0,1,1.2-.6L49,9.7v.5a3.1,3.1,0,0,1-3.3,3.5m-4.2-1.6a3.2,3.2,0,0,0,1.1,2.4,3.8,3.8,0,0,0,2.8,1.1,4.1,4.1,0,0,0,2.3-.6,4.7,4.7,0,0,0,1.4-1.4,8.1,8.1,0,0,0,.1,1.6h2.2a11.5,11.5,0,0,1-.1-1.9V7.5a4.1,4.1,0,0,0-1.2-3,4.9,4.9,0,0,0-3.6-1.2,4.9,4.9,0,0,0-3.2,1A3.7,3.7,0,0,0,41.8,7l2.1.5a3.4,3.4,0,0,1,.8-1.7,2.8,2.8,0,0,1,1.8-.6,2.5,2.5,0,0,1,1.9.6A2,2,0,0,1,49,7.3c0,.5-.3.8-.9.8L45,8.6a4.1,4.1,0,0,0-2.5,1.1,3,3,0,0,0-1,2.4M30.7,0h-2V1.9a2.1,2.1,0,0,1-.5,1.3,1.7,1.7,0,0,1-1.3.4h-.6V5.7h2.2V12a3,3,0,0,0,.9,2.4,2.9,2.9,0,0,0,2.3.9l1.5-.2V13.2h-.8a2.2,2.2,0,0,1-1.3-.4,2.1,2.1,0,0,1-.4-1.2v-6h2.5V3.6H30.7ZM22.8,11.2a3.1,3.1,0,0,1-3.2,2.4,3.7,3.7,0,0,1-2.5-1,3.7,3.7,0,0,1-1-2.5h8.7V9.3a6.3,6.3,0,0,0-1.4-4.4,5.3,5.3,0,0,0-4.1-1.6A5.4,5.4,0,0,0,15.4,5a6.1,6.1,0,0,0-1.6,4.4,5.7,5.7,0,0,0,1.7,4.5,5.7,5.7,0,0,0,4.1,1.7,5.2,5.2,0,0,0,3.3-1.1,5.1,5.1,0,0,0,1.9-2.6Zm-6.6-3a2.5,2.5,0,0,1,.9-2,2.9,2.9,0,0,1,2.2-.9,3.2,3.2,0,0,1,2.3.8,2.9,2.9,0,0,1,.9,2.1ZM5.7,12.7a3,3,0,0,1-2.5-1A3.7,3.7,0,0,1,2.3,9a3.3,3.3,0,0,1,1-2.6,3,3,0,0,1,2.4-1A2.9,2.9,0,0,1,8,6.4,3.8,3.8,0,0,1,9,9a3.9,3.9,0,0,1-1,2.7,2.9,2.9,0,0,1-2.3,1M0,15.8a4.2,4.2,0,0,0,1.7,3.1,5.6,5.6,0,0,0,3.6,1.2,6.1,6.1,0,0,0,2.8-.5,4.6,4.6,0,0,0,1.8-1.3,6.1,6.1,0,0,0,.9-1.8,7.8,7.8,0,0,0,.3-2.2V3.6H8.9V5.3C8.3,4,7.1,3.4,5.3,3.4A5,5,0,0,0,1.5,5.1,5.4,5.4,0,0,0,0,9a5.8,5.8,0,0,0,1.5,4.1,5.2,5.2,0,0,0,3.8,1.5,3.8,3.8,0,0,0,2.2-.5,3.2,3.2,0,0,0,1.4-1.4v1.7c0,2.5-1.2,3.7-3.6,3.7a2.6,2.6,0,0,1-2.1-.8,3,3,0,0,1-1-2Z"/></g></g></g></svg>