<svg xmlns="http://www.w3.org/2000/svg" xmlns:xlink="http://www.w3.org/1999/xlink" viewBox="0 0 92.8 17.7"><defs><style>.cls-1{fill:none;}.cls-2{clip-path:url(#clip-path);}.cls-3{fill:#0a1f8c;}</style><clipPath id="clip-path"><rect class="cls-1" width="92.8" height="17.74"/></clipPath></defs><g id="Layer_2" data-name="Layer 2"><g id="Layer_1-2" data-name="Layer 1"><g class="cls-2"><path class="cls-3" d="M83.9,14.4a3.6,3.6,0,0,0,1.3,2.3,5.1,5.1,0,0,0,3.4,1,4.1,4.1,0,0,0,3.1-1.1,3.4,3.4,0,0,0,1.1-2.4A3.3,3.3,0,0,0,92,12a5.5,5.5,0,0,0-2.4-1.3l-1.9-.4c-.8-.2-1.3-.6-1.3-1.4A1.5,1.5,0,0,1,87,7.8a1.8,1.8,0,0,1,1.3-.4l1.2.2a1.8,1.8,0,0,1,.7.5l.4.6a1.3,1.3,0,0,1,.1.6l2-.7a2.9,2.9,0,0,0-.3-1l-.7-1a4.7,4.7,0,0,0-1.4-.8,6,6,0,0,0-2-.3,3.7,3.7,0,0,0-2.8,1.1,3,3,0,0,0-1.3,2.5,3.2,3.2,0,0,0,.8,2.1,3.7,3.7,0,0,0,2.1,1.2l2,.4q1.5.3,1.5,1.5a1.4,1.4,0,0,1-.6,1.1,2,2,0,0,1-1.4.4,2.9,2.9,0,0,1-1.9-.6,2.8,2.8,0,0,1-.8-1.5ZM79.3,2.2h-2V4.1a1.7,1.7,0,0,1-.5,1.2,1.4,1.4,0,0,1-1.3.5h-.6V7.9h2.2v6.3a3.1,3.1,0,0,0,.9,2.4,2.9,2.9,0,0,0,2.3.9l1.5-.2V15.4H81a2.2,2.2,0,0,1-1.3-.4,2.1,2.1,0,0,1-.4-1.2v-6h2.5V5.8H79.3ZM68.4,7.6a2.8,2.8,0,0,1,2.1.7,3,3,0,0,1,1,1.7l2.1-.9a5.3,5.3,0,0,0-1.7-2.5,4.9,4.9,0,0,0-3.5-1.1,5.3,5.3,0,0,0-4.1,1.7,6,6,0,0,0-1.7,4.4A6.2,6.2,0,0,0,64.3,16a5.4,5.4,0,0,0,4.2,1.7,5.5,5.5,0,0,0,3.4-1,5.6,5.6,0,0,0,1.8-2.6l-2-.8a3.9,3.9,0,0,1-1,1.6,3.1,3.1,0,0,1-2.2.7,3.2,3.2,0,0,1-2.5-1,4.2,4.2,0,0,1-1.1-3,4.1,4.1,0,0,1,1.1-3,3.1,3.1,0,0,1,2.4-1M57.7,16c0,.6.1,1,.1,1.4H60a15.5,15.5,0,0,1-.1-2.2V5.8H57.6v7a2.8,2.8,0,0,1-.7,2.1,2.2,2.2,0,0,1-2,.8,2.2,2.2,0,0,1-2-.8,3.7,3.7,0,0,1-.6-2.1v-7H50v7.3a4.6,4.6,0,0,0,1.2,3.3,3.9,3.9,0,0,0,3.1,1.3,4.9,4.9,0,0,0,2.1-.4A2.7,2.7,0,0,0,57.7,16m-13.5-.2a7.8,7.8,0,0,0,.2,1.6h2.1c0-.7-.1-1.4-.1-2.2V0H44.2V7.5A2.7,2.7,0,0,0,43,6.1a4.1,4.1,0,0,0-2.3-.6,5,5,0,0,0-4,1.8,6.4,6.4,0,0,0-1.5,4.3,6.3,6.3,0,0,0,1.5,4.3,4.9,4.9,0,0,0,4,1.8,4.3,4.3,0,0,0,2.2-.6,3.7,3.7,0,0,0,1.3-1.5Zm-6.7-4.2a4.9,4.9,0,0,1,.9-3,3.3,3.3,0,0,1,2.5-1.1,3,3,0,0,1,2.4,1.1,4.6,4.6,0,0,1,.9,2.9,4.9,4.9,0,0,1-.9,3,2.9,2.9,0,0,1-2.4,1.2,2.9,2.9,0,0,1-2.5-1.2,4.4,4.4,0,0,1-.9-2.9M27.4,5.5a5.8,5.8,0,0,0-4.3,1.7,6.1,6.1,0,0,0-1.6,4.4A6.1,6.1,0,0,0,23.1,16a5.4,5.4,0,0,0,4.3,1.7A5.4,5.4,0,0,0,31.6,16a6.2,6.2,0,0,0,1.7-4.4,6.2,6.2,0,0,0-1.7-4.4,5.7,5.7,0,0,0-4.2-1.7m0,10.2a3.3,3.3,0,0,1-2.6-1.1,4,4,0,0,1-1-3,4,4,0,0,1,1-3,3.6,3.6,0,0,1,2.6-1.1,3.4,3.4,0,0,1,2.5,1.1,4.1,4.1,0,0,1,1.1,3,4.1,4.1,0,0,1-1.1,3,3.1,3.1,0,0,1-2.5,1.1m-7.3-10h-.7a3.7,3.7,0,0,0-3.5,2.2v-2H13.7V17.4H16V11.6C16,9.2,17,8,19.2,8h.9ZM6.2,10.4A5.6,5.6,0,0,0,10,9a4.5,4.5,0,0,0,1.4-3.6A4.8,4.8,0,0,0,10,1.8,5.1,5.1,0,0,0,6.2.4H0v17H2.4v-7ZM2.4,8.3V2.5H5.8a3.2,3.2,0,0,1,2.4.8A2.5,2.5,0,0,1,9,5.4a2.5,2.5,0,0,1-.8,2.1,3.6,3.6,0,0,1-2.4.8Z"/></g></g></g></svg>