<svg xmlns="http://www.w3.org/2000/svg" xmlns:xlink="http://www.w3.org/1999/xlink" viewBox="0 0 150.9 17.7"><defs><style>.cls-1{fill:none;}.cls-2{clip-path:url(#clip-path);}.cls-3{fill:#0a1f8c;}</style><clipPath id="clip-path" transform="translate(0 0)"><rect class="cls-1" width="150.9" height="17.74"/></clipPath></defs><g id="Layer_2" data-name="Layer 2"><g id="Layer_1-2" data-name="Layer 1"><g class="cls-2"><path class="cls-3" d="M145.4,8.2a2.5,2.5,0,0,1,2.6,2l2.8-1A4.7,4.7,0,0,0,149,6.4a5.7,5.7,0,0,0-3.7-1.2A6,6,0,0,0,140.9,7a6.4,6.4,0,0,0-1.7,4.5,5.7,5.7,0,0,0,1.8,4.4,5.9,5.9,0,0,0,4.4,1.8,5.7,5.7,0,0,0,3.6-1.1,5.6,5.6,0,0,0,1.9-2.8l-2.8-1a3.4,3.4,0,0,1-.9,1.4,2.8,2.8,0,0,1-1.8.6,2.9,2.9,0,0,1-2.2-.9,3.6,3.6,0,0,1-.8-2.4,3.7,3.7,0,0,1,.8-2.5,3.3,3.3,0,0,1,2.2-.8m-7.5-2.7h-.7a3.4,3.4,0,0,0-3.4,1.8V5.6h-3.1V17.4h3.2V12a3.3,3.3,0,0,1,.9-2.6,3.1,3.1,0,0,1,2.2-.8h.9Zm-16.1,9.8a1.2,1.2,0,0,1-1.1-.4,1,1,0,0,1-.4-.9,1.4,1.4,0,0,1,1.4-1.5l2.7-.4v.5a2.9,2.9,0,0,1-.7,2.1,2.9,2.9,0,0,1-1.9.6m-4.7-1.1a3.2,3.2,0,0,0,1.1,2.5,3.9,3.9,0,0,0,2.9,1,3.9,3.9,0,0,0,3.5-1.7,5.7,5.7,0,0,0,.1,1.4h3a11.1,11.1,0,0,1-.2-1.9V9.7a4.4,4.4,0,0,0-1.2-3.2,6.3,6.3,0,0,0-7.5-.1,4.1,4.1,0,0,0-1.5,2.7l2.8.6a2.7,2.7,0,0,1,.7-1.4,2.5,2.5,0,0,1,1.6-.5,2.4,2.4,0,0,1,1.5.4,1.6,1.6,0,0,1,.5,1.1q0,.8-.9.9l-2.9.4a4.1,4.1,0,0,0-2.5,1.1,3.2,3.2,0,0,0-1,2.5M107,10.6a2.8,2.8,0,0,1,.6-1.8,2.2,2.2,0,0,1,1.6-.7,2,2,0,0,1,1.6.7,2.4,2.4,0,0,1,.6,1.7v6.9h3.2V9.9a5,5,0,0,0-1.1-3.3,3.9,3.9,0,0,0-3.2-1.3,4.5,4.5,0,0,0-2,.4A3.5,3.5,0,0,0,106.9,7V5.6h-3.1V17.4H107ZM94.8,15.3a1.5,1.5,0,0,1-1.1-.4,1,1,0,0,1-.4-.9q0-1.4,1.5-1.5l2.6-.4v.5a2.5,2.5,0,0,1-.7,2.1,2.9,2.9,0,0,1-1.9.6m-4.7-1.1a3.6,3.6,0,0,0,1.1,2.5,4.4,4.4,0,0,0,3,1A4.1,4.1,0,0,0,97.7,16a5.7,5.7,0,0,0,.1,1.4h2.9a11.5,11.5,0,0,1-.1-1.9V9.7a4.4,4.4,0,0,0-1.3-3.2c-.8-.9-2.1-1.3-3.9-1.3a5.1,5.1,0,0,0-3.5,1.2,4.1,4.1,0,0,0-1.5,2.7l2.8.6a2.1,2.1,0,0,1,.7-1.4,2.3,2.3,0,0,1,1.5-.5,2.1,2.1,0,0,1,1.5.4,1.3,1.3,0,0,1,.5,1.1.9.9,0,0,1-.8.9l-3,.4a4.4,4.4,0,0,0-2.5,1.1,3.2,3.2,0,0,0-1,2.5m-2-9.8a4.7,4.7,0,0,0-.6-1.5,4.5,4.5,0,0,0-1.1-1.4A4,4,0,0,0,84.6.4,7.1,7.1,0,0,0,82,0a6.4,6.4,0,0,0-4.2,1.5,4.8,4.8,0,0,0-1.7,3.8,4.5,4.5,0,0,0,1.2,3.2,6.2,6.2,0,0,0,3.2,1.7l2.4.5a2.6,2.6,0,0,1,1.5.7,1.8,1.8,0,0,1,.6,1.3,1.9,1.9,0,0,1-.8,1.5,3,3,0,0,1-2,.6,4,4,0,0,1-2.7-.9,3.7,3.7,0,0,1-1-2.3l-3.1.8a13.3,13.3,0,0,0,.5,1.9A9.6,9.6,0,0,0,77.2,16a6.9,6.9,0,0,0,2.1,1.3,8.5,8.5,0,0,0,2.9.4,6.8,6.8,0,0,0,4.5-1.5,5,5,0,0,0,1.6-3.7,4.5,4.5,0,0,0-1.2-3.2,6.5,6.5,0,0,0-3.5-1.8L81.2,7c-1.2-.2-1.9-.9-1.9-1.9a1.9,1.9,0,0,1,.8-1.5A2.5,2.5,0,0,1,82,2.9a2.9,2.9,0,0,1,2.2.8,2.9,2.9,0,0,1,.9,1.6ZM65.4,2H62.6V3.7a2.2,2.2,0,0,1-.5,1.4,2,2,0,0,1-1.4.5h-.6V8.4h2.2v5.5a3.6,3.6,0,0,0,1,2.7,4,4,0,0,0,2.7.9l1.8-.2V14.6h-1a1.5,1.5,0,0,1-1-.3,1.6,1.6,0,0,1-.4-1.1V8.4h2.4V5.6H65.4ZM55.2,17.4h3a15.5,15.5,0,0,1-.1-2.2V5.6H54.9v6.8a2.4,2.4,0,0,1-.6,1.7,2.2,2.2,0,0,1-1.6.7,2,2,0,0,1-1.6-.7,2.4,2.4,0,0,1-.6-1.7V5.6H47.3V13a4.9,4.9,0,0,0,1.2,3.4,4.5,4.5,0,0,0,3.3,1.3,4.1,4.1,0,0,0,1.9-.4,3.3,3.3,0,0,0,1.4-1.2,4.9,4.9,0,0,0,.1,1.3M38.8,5.2A5.7,5.7,0,0,0,34.4,7a6.1,6.1,0,0,0-1.8,4.5A6.1,6.1,0,0,0,34.4,16a6,6,0,0,0,4.4,1.7A6.2,6.2,0,0,0,43.2,16,6.1,6.1,0,0,0,45,11.5,6.1,6.1,0,0,0,43.2,7a5.9,5.9,0,0,0-4.4-1.8m0,9.6a2.7,2.7,0,0,1-2.1-.9,3.1,3.1,0,0,1-.9-2.4A3.3,3.3,0,0,1,36.7,9a2.7,2.7,0,0,1,2.1-.9,2.9,2.9,0,0,1,2.1.9,3.3,3.3,0,0,1,.9,2.5,3.1,3.1,0,0,1-.9,2.4,2.9,2.9,0,0,1-2.1.9m-11-3.4a3.3,3.3,0,0,1-.9,2.5,2.6,2.6,0,0,1-2.1.9,2.9,2.9,0,0,1-2.1-.9,3.7,3.7,0,0,1-.8-2.5A3.6,3.6,0,0,1,22.7,9a2.9,2.9,0,0,1,2.1-.9,2.6,2.6,0,0,1,2.1.9,3.2,3.2,0,0,1,.9,2.4m-5.9,6V15.9a3.8,3.8,0,0,0,3.5,1.8,4.9,4.9,0,0,0,4-1.8A6.9,6.9,0,0,0,31,11.4,6.3,6.3,0,0,0,29.5,7a4.8,4.8,0,0,0-4-1.7,5.1,5.1,0,0,0-2.2.4,3.3,3.3,0,0,0-1.4,1.2V0H18.8V17.4ZM8.4,4l2.3,6.5H6Zm4.8,13.4h3.6L10.4.4H6.5L0,17.4H3.5l1.4-3.9h6.9Z" transform="translate(0 0)"/></g></g></g></svg>