<svg xmlns="http://www.w3.org/2000/svg" xmlns:xlink="http://www.w3.org/1999/xlink" viewBox="0 0 88.1 17.7"><defs><style>.cls-1{fill:none;}.cls-2{clip-path:url(#clip-path);}.cls-3{fill:#0a1f8c;}</style><clipPath id="clip-path"><rect class="cls-1" width="88.1" height="17.74"/></clipPath></defs><g id="Layer_2" data-name="Layer 2"><g id="Layer_1-2" data-name="Layer 1"><g class="cls-2"><path class="cls-3" d="M85.7,2H82.8V3.7a2.2,2.2,0,0,1-.5,1.4,1.7,1.7,0,0,1-1.3.5h-.6V8.4h2.1v5.5a3.6,3.6,0,0,0,1,2.7,4.1,4.1,0,0,0,2.8.9l1.8-.2V14.6h-1a1.6,1.6,0,0,1-1.1-.3,1.6,1.6,0,0,1-.3-1.1V8.4h2.4V5.6H85.7ZM73.9,8.2a2.5,2.5,0,0,1,2.6,2l2.8-1a4.3,4.3,0,0,0-1.8-2.8,5.7,5.7,0,0,0-3.7-1.2A6,6,0,0,0,69.4,7a6.4,6.4,0,0,0-1.7,4.5,5.7,5.7,0,0,0,1.8,4.4,5.9,5.9,0,0,0,4.4,1.8,5.7,5.7,0,0,0,3.6-1.1,5.6,5.6,0,0,0,1.9-2.8l-2.8-1a3.4,3.4,0,0,1-.9,1.4,2.6,2.6,0,0,1-1.8.6,2.9,2.9,0,0,1-2.2-.9,3.6,3.6,0,0,1-.8-2.4A3.7,3.7,0,0,1,71.7,9a3.3,3.3,0,0,1,2.2-.8M59.7,15.3a1.4,1.4,0,0,1-1.1-.4,1,1,0,0,1-.4-.9,1.4,1.4,0,0,1,1.4-1.5l2.7-.4v.5a2.5,2.5,0,0,1-.7,2.1,2.9,2.9,0,0,1-1.9.6M55,14.2a3.6,3.6,0,0,0,1.1,2.5,4.1,4.1,0,0,0,2.9,1A3.9,3.9,0,0,0,62.5,16c0,.6.1,1,.1,1.4h3a11.1,11.1,0,0,1-.2-1.9V9.7a4.4,4.4,0,0,0-1.2-3.2c-.8-.9-2.1-1.3-3.9-1.3a5.2,5.2,0,0,0-3.6,1.2,4.1,4.1,0,0,0-1.5,2.7l2.9.6a2,2,0,0,1,.6-1.4,2.5,2.5,0,0,1,1.6-.5,2.1,2.1,0,0,1,1.5.4,1.6,1.6,0,0,1,.5,1.1q0,.8-.9.9l-2.9.4A4.1,4.1,0,0,0,56,11.7a3.2,3.2,0,0,0-1,2.5M50.6,2H47.7V3.7a2.2,2.2,0,0,1-.5,1.4,1.7,1.7,0,0,1-1.3.5h-.6V8.4h2.1v5.5a3.6,3.6,0,0,0,1,2.7,4.1,4.1,0,0,0,2.8.9l1.8-.2V14.6H52a1.6,1.6,0,0,1-1.1-.3,1.6,1.6,0,0,1-.3-1.1V8.4H53V5.6H50.6ZM35.8,10.6a2.8,2.8,0,0,1,.6-1.8,2.4,2.4,0,0,1,1.7-.7,2.2,2.2,0,0,1,1.6.7,2.3,2.3,0,0,1,.5,1.7v6.9h3.2V9.9a4.6,4.6,0,0,0-1.1-3.3,3.6,3.6,0,0,0-3.1-1.3,4.5,4.5,0,0,0-2,.4A3.5,3.5,0,0,0,35.8,7V5.6H32.7V17.4h3.1ZM24,5.2A6.1,6.1,0,0,0,19.5,7a6.4,6.4,0,0,0-1.7,4.5A6.4,6.4,0,0,0,19.5,16,6.4,6.4,0,0,0,24,17.7,6.4,6.4,0,0,0,28.4,16a6.1,6.1,0,0,0,1.8-4.5A6.1,6.1,0,0,0,28.4,7,6,6,0,0,0,24,5.2m0,9.6a2.9,2.9,0,0,1-2.2-.9,3.5,3.5,0,0,1-.8-2.4A3.7,3.7,0,0,1,21.8,9,2.9,2.9,0,0,1,24,8.1a2.9,2.9,0,0,1,2.1.9,3.3,3.3,0,0,1,.9,2.5,3.1,3.1,0,0,1-.9,2.4,2.9,2.9,0,0,1-2.1.9M8.7,17.7a7.8,7.8,0,0,0,3.1-.5,5.7,5.7,0,0,0,2.4-1.4A11.9,11.9,0,0,0,15.7,14a11.3,11.3,0,0,0,.9-2l-3.1-1a5.1,5.1,0,0,1-1.6,2.5,4.7,4.7,0,0,1-3.2,1A5.1,5.1,0,0,1,5,13,5.3,5.3,0,0,1,3.4,8.9,5.7,5.7,0,0,1,5,4.7,5.3,5.3,0,0,1,8.7,3.2a4.3,4.3,0,0,1,3.1,1,4.5,4.5,0,0,1,1.5,2.4l3.2-1a7.7,7.7,0,0,0-2.6-3.9A7.9,7.9,0,0,0,8.7,0,8.2,8.2,0,0,0,2.6,2.5,8.5,8.5,0,0,0,0,8.9a8.4,8.4,0,0,0,2.5,6.4,8.8,8.8,0,0,0,6.2,2.4"/></g></g></g></svg>