<svg xmlns="http://www.w3.org/2000/svg" xmlns:xlink="http://www.w3.org/1999/xlink" viewBox="0 0 63.7 17.4"><defs><style>.cls-1{fill:none;}.cls-2{clip-path:url(#clip-path);}.cls-3{fill:#0a1f8c;}</style><clipPath id="clip-path"><rect class="cls-1" width="63.7" height="17.38"/></clipPath></defs><g id="Layer_2" data-name="Layer 2"><g id="Layer_1-2" data-name="Layer 1"><g class="cls-2"><path class="cls-3" d="M60.8,12.8a2.5,2.5,0,0,1-2.6,1.8,3.1,3.1,0,0,1-2.1-.7,2.5,2.5,0,0,1-.9-1.9h8.4v-.2c0-.1.1-.2.1-.4V11a6.1,6.1,0,0,0-1.6-4.5,5.5,5.5,0,0,0-4.3-1.7,5.3,5.3,0,0,0-4,1.8A5.8,5.8,0,0,0,52,11.1a6,6,0,0,0,6.1,6.3,5.6,5.6,0,0,0,3.5-1.1,4.7,4.7,0,0,0,1.9-2.7Zm-5.6-3A2.5,2.5,0,0,1,56,8.2a2.6,2.6,0,0,1,1.9-.8,2.7,2.7,0,0,1,1.9.7,2.2,2.2,0,0,1,.7,1.7ZM34.8,17V10.1a2.5,2.5,0,0,1,.6-1.7,2.4,2.4,0,0,1,1.7-.6,1.9,1.9,0,0,1,1.5.6,2.1,2.1,0,0,1,.5,1.6v7h3.2V10.1a2.5,2.5,0,0,1,.6-1.7,2.4,2.4,0,0,1,3.2,0,2.5,2.5,0,0,1,.5,1.6v7h3.1V9.4A4.2,4.2,0,0,0,48.4,6a4,4,0,0,0-3-1.1,4.1,4.1,0,0,0-3.7,1.9,3.6,3.6,0,0,0-3.5-1.9,4.1,4.1,0,0,0-2.1.5,3.3,3.3,0,0,0-1.4,1.2V5.2h-3V17ZM22.9,4.8a6,6,0,0,0-6.1,6.3,6,6,0,0,0,6.1,6.3,6.1,6.1,0,0,0,4.5-1.8,6.4,6.4,0,0,0,1.7-4.5,6.4,6.4,0,0,0-1.7-4.5,6.1,6.1,0,0,0-4.5-1.8m0,9.7a2.9,2.9,0,0,1-2.1-.9,3.3,3.3,0,0,1-.9-2.5,3.5,3.5,0,0,1,.9-2.5,2.8,2.8,0,0,1,2.1-.8,2.9,2.9,0,0,1,2.2.8,3.4,3.4,0,0,1,.8,2.5,3.3,3.3,0,0,1-.8,2.5,2.9,2.9,0,0,1-2.2.9M14.1,17V0H10.7V6.8H3.3V0H0V17H3.3V10h7.4v7Z"/></g></g></g></svg>