<svg xmlns="http://www.w3.org/2000/svg" xmlns:xlink="http://www.w3.org/1999/xlink" viewBox="0 0 84.8 17.7"><defs><style>.cls-1{fill:none;}.cls-2{clip-path:url(#clip-path);}.cls-3{fill:#0a1f8c;}</style><clipPath id="clip-path"><rect class="cls-1" width="84.8" height="17.74"/></clipPath></defs><g id="Layer_2" data-name="Layer 2"><g id="Layer_1-2" data-name="Layer 1"><g class="cls-2"><path class="cls-3" d="M82.3,2.2h-2V4.1a1.7,1.7,0,0,1-.5,1.2,1.4,1.4,0,0,1-1.3.5h-.6V7.9h2.2v6.3a3.1,3.1,0,0,0,.9,2.4,2.9,2.9,0,0,0,2.3.9l1.5-.2V15.4H84a2.2,2.2,0,0,1-1.3-.4,2.1,2.1,0,0,1-.4-1.2v-6h2.5V5.8H82.3ZM71.5,7.6a2.6,2.6,0,0,1,2,.7A3.9,3.9,0,0,1,74.6,10l2-.9a5.3,5.3,0,0,0-1.7-2.5,4.8,4.8,0,0,0-3.4-1.1,5.4,5.4,0,0,0-4.2,1.7,6,6,0,0,0-1.7,4.4A6.2,6.2,0,0,0,67.3,16a5.4,5.4,0,0,0,4.2,1.7,5.3,5.3,0,0,0,3.4-1,5.6,5.6,0,0,0,1.8-2.6l-2-.8a3.9,3.9,0,0,1-1,1.6,3.1,3.1,0,0,1-2.2.7,3.3,3.3,0,0,1-2.5-1,4.2,4.2,0,0,1-1-3,4,4,0,0,1,1-3,3.3,3.3,0,0,1,2.5-1m-14,8.2a1.5,1.5,0,0,1-1.3-.5,1.4,1.4,0,0,1-.6-1.1,1.7,1.7,0,0,1,.5-1.2,2.3,2.3,0,0,1,1.2-.6l3.6-.5v.5a3,3,0,0,1-1,2.6,3.2,3.2,0,0,1-2.4.8m-4.2-1.5a3.4,3.4,0,0,0,1.1,2.4,3.9,3.9,0,0,0,2.8,1,5.2,5.2,0,0,0,2.3-.5,4.7,4.7,0,0,0,1.4-1.4c0,.6.1,1.1.1,1.6h2.3a11.1,11.1,0,0,1-.2-1.9V9.7a4.1,4.1,0,0,0-1.2-3,4.7,4.7,0,0,0-3.6-1.2,5.1,5.1,0,0,0-3.2,1,3.7,3.7,0,0,0-1.5,2.7l2.1.5A3.4,3.4,0,0,1,56.5,8a2.9,2.9,0,0,1,1.9-.6,2.4,2.4,0,0,1,1.8.6,2,2,0,0,1,.7,1.5c0,.5-.3.7-.9.8l-3.2.5a4.1,4.1,0,0,0-2.5,1.1,3.3,3.3,0,0,0-1,2.4M48.6,2.2H46.5V4.1a1.6,1.6,0,0,1-.4,1.2,1.6,1.6,0,0,1-1.4.5h-.6V7.9h2.2v6.3a3.1,3.1,0,0,0,.9,2.4,3,3,0,0,0,2.3.9l1.6-.2V15.4h-.9a2.2,2.2,0,0,1-1.3-.4,2.1,2.1,0,0,1-.3-1.2v-6h2.5V5.8H48.6ZM34.3,10.7A4.2,4.2,0,0,1,35,8.4a2.5,2.5,0,0,1,2-.9c1.8,0,2.7,1,2.7,2.9v7H42V10.1a4.9,4.9,0,0,0-1.1-3.3,3.6,3.6,0,0,0-3.1-1.3,3.7,3.7,0,0,0-3.5,2V5.8H32.1V17.4h2.2Zm-11-5.2a5.7,5.7,0,0,0-4.2,1.7,5.8,5.8,0,0,0-1.7,4.4A6.1,6.1,0,0,0,19,16a5.7,5.7,0,0,0,4.3,1.7A5.4,5.4,0,0,0,27.5,16a6.2,6.2,0,0,0,1.7-4.4,6.2,6.2,0,0,0-1.7-4.4,5.7,5.7,0,0,0-4.2-1.7m0,10.2a3.3,3.3,0,0,1-2.6-1.1,4,4,0,0,1-1-3,4,4,0,0,1,1-3,3.6,3.6,0,0,1,5.2,0,4.5,4.5,0,0,1,1,3,4.5,4.5,0,0,1-1,3,3.3,3.3,0,0,1-2.6,1.1m-14.9,2a7.7,7.7,0,0,0,4.9-1.5A7.7,7.7,0,0,0,16,12.3l-2.1-.8a6.1,6.1,0,0,1-2,3,5.6,5.6,0,0,1-3.5,1.1,5.8,5.8,0,0,1-4.2-1.8A6.6,6.6,0,0,1,2.4,8.9a6.7,6.7,0,0,1,1.8-5A5.7,5.7,0,0,1,8.4,2.2a5.6,5.6,0,0,1,3.5,1,5.8,5.8,0,0,1,1.9,3l2.1-.8a6.4,6.4,0,0,0-2.6-3.9A7.7,7.7,0,0,0,8.4,0a8.2,8.2,0,0,0-4,1A8.6,8.6,0,0,0,1.2,4.1,9,9,0,0,0,0,8.9a8.3,8.3,0,0,0,2.5,6.4,8.1,8.1,0,0,0,5.9,2.4"/></g></g></g></svg>