<svg xmlns="http://www.w3.org/2000/svg" viewBox="0 0 840.9 17.7"><defs><style>.cls-1{font-size:16px;fill:#fff;font-family:CircularStd-Bold, Circular Std;font-weight:700;}.cls-2{letter-spacing:0em;}.cls-3{letter-spacing:0.01em;}.cls-4{letter-spacing:-0.01em;}.cls-5{letter-spacing:-0.01em;}.cls-6{letter-spacing:0em;}.cls-7{letter-spacing:0em;}.cls-8{letter-spacing:-0.02em;}.cls-9{letter-spacing:0em;}.cls-10{letter-spacing:-0.01em;}.cls-11{letter-spacing:0em;}.cls-12{letter-spacing:0.02em;}.cls-13{letter-spacing:0em;}.cls-14{letter-spacing:-0.02em;}.cls-15{letter-spacing:-0.04em;}.cls-16{letter-spacing:-0.05em;}.cls-17{letter-spacing:-0.01em;}.cls-18{letter-spacing:0em;}.cls-19{letter-spacing:-0.01em;}.cls-20{letter-spacing:-0.01em;}.cls-21{letter-spacing:-0.02em;}.cls-22{letter-spacing:-0.02em;}.cls-23{letter-spacing:0em;}.cls-24{letter-spacing:0em;}.cls-25{letter-spacing:0em;}.cls-26{letter-spacing:-0.05em;}.cls-27{letter-spacing:0em;}.cls-28{letter-spacing:0em;}.cls-29{letter-spacing:0em;}.cls-30{letter-spacing:-0.01em;}.cls-31{letter-spacing:0em;}.cls-32{letter-spacing:-0.02em;}.cls-33{letter-spacing:-0.02em;}.cls-34{letter-spacing:0.01em;}</style></defs><g id="Layer_2" data-name="Layer 2"><g id="Layer_1-2" data-name="Layer 1"><g id="Arrow_28" data-name="Arrow 28"><text class="cls-1" transform="translate(0 13.7)"><tspan class="cls-2">S</tspan><tspan class="cls-3" x="9.7" y="0">t</tspan><tspan class="cls-4" x="15.8" y="0">a</tspan><tspan x="24.2" y="0">y in</tspan><tspan class="cls-5" x="50.9" y="0">f</tspan><tspan class="cls-6" x="56.4" y="0">o</tspan><tspan class="cls-7" x="65.8" y="0">r</tspan><tspan x="72.1" y="0">med! Visit </tspan><tspan class="cls-8" x="151.3" y="0">t</tspan><tspan class="cls-9" x="156.9" y="0">he </tspan><tspan class="cls-10" x="179.1" y="0">S</tspan><tspan x="188.5" y="0">A </tspan><tspan class="cls-11" x="204" y="0">D</tspan><tspan class="cls-9" x="215.6" y="0">epa</tspan><tspan class="cls-12" x="242.9" y="0">r</tspan><tspan class="cls-13" x="249.5" y="0">t</tspan><tspan x="255.4" y="0">ment of </tspan><tspan class="cls-13" x="316.7" y="0">H</tspan><tspan class="cls-9" x="328.6" y="0">eal</tspan><tspan class="cls-14" x="350.5" y="0">t</tspan><tspan class="cls-15" x="356.1" y="0">h</tspan><tspan class="cls-16" x="364.8" y="0">’</tspan><tspan x="367.7" y="0">s </tspan><tspan class="cls-17" x="379" y="0">w</tspan><tspan x="392.1" y="0">ebsi</tspan><tspan class="cls-18" x="422.5" y="0">t</tspan><tspan class="cls-6" x="428.4" y="0">e </tspan><tspan class="cls-19" x="441.2" y="0">f</tspan><tspan x="446.8" y="0">or </tspan><tspan class="cls-20" x="466.3" y="0">C</tspan><tspan class="cls-21" x="478.5" y="0">O</tspan><tspan class="cls-6" x="491" y="0">VID</tspan><tspan class="cls-22" x="518.4" y="0">-</tspan><tspan class="cls-23" x="524.2" y="0">1</tspan><tspan x="530.5" y="0">9 up</tspan><tspan class="cls-24" x="563" y="0">d</tspan><tspan class="cls-25" x="572.7" y="0">at</tspan><tspan class="cls-9" x="587.3" y="0">es: ww</tspan><tspan class="cls-26" x="639" y="0">w</tspan><tspan class="cls-9" x="651.6" y="0">.</tspan><tspan class="cls-27" x="656.6" y="0">s</tspan><tspan class="cls-28" x="663.9" y="0">a</tspan><tspan class="cls-27" x="672.5" y="0">c</tspan><tspan class="cls-9" x="681.2" y="0">o</tspan><tspan class="cls-29" x="690.6" y="0">r</tspan><tspan x="696.8" y="0">on</tspan><tspan class="cls-30" x="715.5" y="0">a</tspan><tspan class="cls-9" x="724" y="0">vi</tspan><tspan class="cls-31" x="737.1" y="0">r</tspan><tspan x="743.4" y="0">us</tspan><tspan class="cls-32" x="760.1" y="0">.</tspan><tspan class="cls-27" x="764.8" y="0">c</tspan><tspan class="cls-33" x="773.6" y="0">o</tspan><tspan x="782.6" y="0">.</tspan><tspan class="cls-34" x="787.6" y="0">z</tspan><tspan x="795.4" y="0" xml:space="preserve">a  </tspan><tspan class="cls-19" x="811.9" y="0">f</tspan><tspan class="cls-6" x="817.4" y="0" xml:space="preserve">or  </tspan></text></g></g></g></svg>