<svg xmlns="http://www.w3.org/2000/svg" xmlns:xlink="http://www.w3.org/1999/xlink" viewBox="0 0 327.63 45.69"><defs><style>.cls-1{fill:none;}.cls-2{fill:#0a1f8c;}.cls-3{clip-path:url(#clip-path);}.cls-4{fill:#fff;}</style><clipPath id="clip-path"><rect class="cls-1" width="327.63" height="45.69"/></clipPath></defs><title>Asset 12</title><g id="Layer_2" data-name="Layer 2"><g id="Layer_1-2" data-name="Layer 1"><rect class="cls-2" width="327.63" height="45.69"/><g class="cls-3"><path class="cls-4" d="M239.69,25.52a2.08,2.08,0,0,1-2.16,1.55,2.25,2.25,0,0,1-1.64-.66,2.3,2.3,0,0,1-.68-1.68H241a3,3,0,0,0,0-.48,4.25,4.25,0,0,0-1-2.93,3.69,3.69,0,0,0-5.31.05,4.07,4.07,0,0,0-1.09,2.92,4.06,4.06,0,0,0,1.13,3,3.77,3.77,0,0,0,2.74,1.11,3.61,3.61,0,0,0,2.21-.68A3.42,3.42,0,0,0,241,26Zm-4.43-2a2.06,2.06,0,0,1,.63-1.39,2,2,0,0,1,1.47-.58,1.94,1.94,0,0,1,2.11,2Zm-4.88,3.71a4.76,4.76,0,0,0,.07.93h1.44a10.91,10.91,0,0,1-.08-1.43V20.46H230.3V25.1a2.08,2.08,0,0,1-.46,1.43,1.71,1.71,0,0,1-1.36.54,1.55,1.55,0,0,1-1.32-.56,2.31,2.31,0,0,1-.43-1.42V20.46h-1.5v4.85a3.22,3.22,0,0,0,.78,2.22,2.71,2.71,0,0,0,2.1.87,3,3,0,0,0,1.34-.3,2,2,0,0,0,.93-.87m-11-.7a2.11,2.11,0,0,1-1.63-.67,2.58,2.58,0,0,1-.6-1.8,2.55,2.55,0,0,1,.62-1.79,2.08,2.08,0,0,1,1.61-.67,2,2,0,0,1,1.58.68,2.55,2.55,0,0,1,.61,1.78,2.58,2.58,0,0,1-.61,1.79,2,2,0,0,1-1.58.68m-3.78,2a3,3,0,0,0,1.14,2.06,3.68,3.68,0,0,0,2.41.81,4.81,4.81,0,0,0,1.82-.32,3,3,0,0,0,1.21-.88,3.68,3.68,0,0,0,.63-1.23,5,5,0,0,0,.2-1.43V20.46H221.5v1.07a2.38,2.38,0,0,0-2.37-1.21,3.3,3.3,0,0,0-2.54,1.08,3.8,3.8,0,0,0-1,2.66,3.71,3.71,0,0,0,1,2.68,3.33,3.33,0,0,0,2.53,1.05,2.91,2.91,0,0,0,1.45-.35,2.34,2.34,0,0,0,.91-.91v1.1c0,1.66-.79,2.5-2.36,2.5A2,2,0,0,1,217,28.24Zm-5.29-8.35a3.75,3.75,0,0,0-2.83,1.16,4.05,4.05,0,0,0-1.11,2.92,4.12,4.12,0,0,0,1.1,2.94,4,4,0,0,0,5.67,0,4.12,4.12,0,0,0,1.1-2.94,4.05,4.05,0,0,0-1.11-2.92,3.75,3.75,0,0,0-2.82-1.16m0,6.83a2.29,2.29,0,0,1-1.71-.72,2.84,2.84,0,0,1-.69-2,2.82,2.82,0,0,1,.69-2,2.38,2.38,0,0,1,3.41,0,2.82,2.82,0,0,1,.7,2,2.84,2.84,0,0,1-.7,2,2.27,2.27,0,0,1-1.7.72m-5.86-10.48h-1.5V28.16h1.5Zm-7.57,10.56a1.25,1.25,0,0,1-.9-.33,1.09,1.09,0,0,1-.35-.79,1,1,0,0,1,.31-.78,1.46,1.46,0,0,1,.81-.37l2.36-.35v.35a2.23,2.23,0,0,1-.61,1.73,2.37,2.37,0,0,1-1.62.54m-2.78-1a2.18,2.18,0,0,0,.72,1.63,2.61,2.61,0,0,0,1.85.68A2.85,2.85,0,0,0,198.2,28a2.75,2.75,0,0,0,.93-.89,6.76,6.76,0,0,0,.08,1h1.48a7.19,7.19,0,0,1-.1-1.27V23a2.78,2.78,0,0,0-.78-2,3.86,3.86,0,0,0-4.56-.09,2.48,2.48,0,0,0-1,1.8l1.44.33a1.72,1.72,0,0,1,.53-1.12,1.64,1.64,0,0,1,1.21-.43,1.77,1.77,0,0,1,1.25.39,1.26,1.26,0,0,1,.42,1q0,.5-.6.57l-2.08.31a3,3,0,0,0-1.69.74,2.07,2.07,0,0,0-.64,1.59M190.89,18h-1.37v1.25a1.21,1.21,0,0,1-.3.85,1.13,1.13,0,0,1-.89.33h-.41v1.36h1.47v4.23a2.15,2.15,0,0,0,.58,1.61,2.07,2.07,0,0,0,1.56.58,2.91,2.91,0,0,0,1-.15V26.81a2.12,2.12,0,0,1-.59.07,1.13,1.13,0,0,1-.83-.26,1.14,1.14,0,0,1-.25-.8v-4h1.67V20.46h-1.67Zm-8.08,9.1a1.25,1.25,0,0,1-.9-.33,1.08,1.08,0,0,1-.34-.79,1,1,0,0,1,.3-.78,1.49,1.49,0,0,1,.82-.37l2.35-.35v.35a2.19,2.19,0,0,1-.61,1.73,2.35,2.35,0,0,1-1.62.54m-2.78-1a2.18,2.18,0,0,0,.72,1.63,2.61,2.61,0,0,0,1.86.68,2.82,2.82,0,0,0,1.54-.39,2.88,2.88,0,0,0,.94-.89,5.7,5.7,0,0,0,.08,1h1.47a7.19,7.19,0,0,1-.1-1.27V23a2.78,2.78,0,0,0-.78-2,3.31,3.31,0,0,0-2.42-.79,3.36,3.36,0,0,0-2.14.7,2.48,2.48,0,0,0-1,1.8l1.44.33a1.72,1.72,0,0,1,.53-1.12,1.66,1.66,0,0,1,1.21-.43,1.75,1.75,0,0,1,1.25.39,1.26,1.26,0,0,1,.42,1c0,.33-.2.52-.59.57l-2.08.31a3,3,0,0,0-1.7.74,2.07,2.07,0,0,0-.64,1.59m-4.69-4.48a1.91,1.91,0,0,1,1.39.48,2.41,2.41,0,0,1,.68,1.16l1.36-.58a3.36,3.36,0,0,0-1.15-1.73,3.46,3.46,0,0,0-2.28-.72,3.67,3.67,0,0,0-2.77,1.15,4.06,4.06,0,0,0-1.1,2.93,4.13,4.13,0,0,0,1.1,2.93,3.68,3.68,0,0,0,2.79,1.17,3.48,3.48,0,0,0,2.26-.72A3.63,3.63,0,0,0,178.83,26l-1.33-.58a2.4,2.4,0,0,1-.68,1.11,2,2,0,0,1-1.46.48,2.2,2.2,0,0,1-1.67-.72,2.76,2.76,0,0,1-.68-2,2.71,2.71,0,0,1,.68-2,2.2,2.2,0,0,1,1.65-.71M164.45,18h-1.38v1.25a1.21,1.21,0,0,1-.3.85,1.11,1.11,0,0,1-.88.33h-.42v1.36h1.47v4.23a2.15,2.15,0,0,0,.58,1.61,2.1,2.1,0,0,0,1.57.58,2.89,2.89,0,0,0,1-.15V26.81a2.12,2.12,0,0,1-.59.07,1.13,1.13,0,0,1-.83-.26,1.14,1.14,0,0,1-.24-.8v-4h1.66V20.46h-1.66Zm-7.27,3.58a1.91,1.91,0,0,1,1.39.48,2.49,2.49,0,0,1,.68,1.16l1.36-.58a3.36,3.36,0,0,0-1.15-1.73,3.46,3.46,0,0,0-2.28-.72,3.67,3.67,0,0,0-2.77,1.15,4.06,4.06,0,0,0-1.1,2.93,4.13,4.13,0,0,0,1.1,2.93,3.68,3.68,0,0,0,2.79,1.17,3.46,3.46,0,0,0,2.26-.72A3.63,3.63,0,0,0,160.67,26l-1.33-.58a2.32,2.32,0,0,1-.68,1.11,2,2,0,0,1-1.46.48,2.2,2.2,0,0,1-1.67-.72,2.76,2.76,0,0,1-.68-2,2.71,2.71,0,0,1,.68-2,2.2,2.2,0,0,1,1.65-.71m-7.13,5.62a5.85,5.85,0,0,0,.06.93h1.44a13,13,0,0,1-.08-1.43V20.46H150V25.1a2.09,2.09,0,0,1-.47,1.43,1.69,1.69,0,0,1-1.36.54,1.55,1.55,0,0,1-1.32-.56,2.3,2.3,0,0,1-.42-1.42V20.46h-1.51v4.85a3.18,3.18,0,0,0,.79,2.22,2.67,2.67,0,0,0,2.09.87,3.1,3.1,0,0,0,1.35-.3,2.07,2.07,0,0,0,.93-.87m-9-.11a6.38,6.38,0,0,0,.08,1h1.45a12.3,12.3,0,0,1-.08-1.43V16.57H141v5a2,2,0,0,0-.82-.92,2.86,2.86,0,0,0-1.54-.38A3.34,3.34,0,0,0,136,21.43a4.21,4.21,0,0,0-1,2.86,4.31,4.31,0,0,0,1,2.92,3.31,3.31,0,0,0,2.64,1.16,2.69,2.69,0,0,0,1.47-.4,2.53,2.53,0,0,0,.92-1Zm-4.5-2.83a3,3,0,0,1,.63-2,2,2,0,0,1,1.64-.75,2,2,0,0,1,1.62.74,3,3,0,0,1,.59,1.93,3.14,3.14,0,0,1-.61,2,1.91,1.91,0,0,1-1.61.79,2,2,0,0,1-1.66-.77,3.11,3.11,0,0,1-.6-2m-6.75-4.07A3.75,3.75,0,0,0,127,21.38a4,4,0,0,0-1.12,2.92A4.09,4.09,0,0,0,127,27.24a4,4,0,0,0,5.66,0,4.09,4.09,0,0,0,1.11-2.94,4,4,0,0,0-1.12-2.92,3.75,3.75,0,0,0-2.82-1.16m0,6.83a2.27,2.27,0,0,1-1.7-.72,2.8,2.8,0,0,1-.7-2,2.78,2.78,0,0,1,.7-2,2.37,2.37,0,0,1,3.4,0,2.78,2.78,0,0,1,.7,2,2.8,2.8,0,0,1-.7,2,2.27,2.27,0,0,1-1.7.72M125,20.38a2.63,2.63,0,0,0-.49-.05,2.38,2.38,0,0,0-2.31,1.48V20.46H120.7v7.7h1.51V24.3c0-1.58.7-2.37,2.11-2.37A4.87,4.87,0,0,1,125,22Zm-7.72,3.92a3,3,0,0,1-.63,2A2,2,0,0,1,115,27a2,2,0,0,1-1.65-.76,3,3,0,0,1-.63-2,2.93,2.93,0,0,1,.63-1.93,2.06,2.06,0,0,1,1.65-.76,2,2,0,0,1,1.66.76,3,3,0,0,1,.62,1.93m-4.55,6.9V27.12a2.6,2.6,0,0,0,1,.89,3.09,3.09,0,0,0,1.51.36,3.22,3.22,0,0,0,2.61-1.16,4.33,4.33,0,0,0,1-2.91,4.41,4.41,0,0,0-.93-2.88,3.18,3.18,0,0,0-2.6-1.13,3.07,3.07,0,0,0-1.57.38,2.6,2.6,0,0,0-1,1v-1.2h-1.46V31.2Zm-13-7.49a2.33,2.33,0,0,1,.47-1.51,1.57,1.57,0,0,1,1.32-.6c1.19,0,1.79.64,1.79,1.93v4.63h1.5V23.28a3.24,3.24,0,0,0-.71-2.19,2.49,2.49,0,0,0-2-.85,2.56,2.56,0,0,0-2.37,1.33V20.46H98.22v7.7h1.51ZM95,25.52a2.08,2.08,0,0,1-2.16,1.55,2.23,2.23,0,0,1-1.64-.66,2.3,2.3,0,0,1-.68-1.68h5.79a3,3,0,0,0,0-.48,4.25,4.25,0,0,0-1-2.93,3.71,3.71,0,0,0-5.32.05,4.1,4.1,0,0,0-1.08,2.92,4,4,0,0,0,1.13,3A3.75,3.75,0,0,0,92.8,28.4,3.63,3.63,0,0,0,95,27.72,3.46,3.46,0,0,0,96.25,26Zm-4.43-2a2.1,2.1,0,0,1,.62-1.39,2,2,0,0,1,1.47-.58,2.06,2.06,0,0,1,1.54.55,2.11,2.11,0,0,1,.58,1.42Zm-4.43.78a3,3,0,0,1-.63,2,2.17,2.17,0,0,1-3.3,0,3,3,0,0,1-.63-2,2.93,2.93,0,0,1,.63-1.93,2.06,2.06,0,0,1,1.65-.76,2,2,0,0,1,1.66.76,3,3,0,0,1,.62,1.93m-4.55,6.9V27.12a2.6,2.6,0,0,0,1,.89,3.09,3.09,0,0,0,1.51.36,3.22,3.22,0,0,0,2.61-1.16,4.33,4.33,0,0,0,1-2.91,4.36,4.36,0,0,0-.94-2.88,3.16,3.16,0,0,0-2.59-1.13,3,3,0,0,0-1.57.38,2.6,2.6,0,0,0-1,1v-1.2H80.06V31.2ZM66.67,22.48a6,6,0,0,0,.84,3.2,5.54,5.54,0,0,0,2.12,2.05,5.92,5.92,0,0,0,5.47,0,5.47,5.47,0,0,0,2.12-2.05,6,6,0,0,0,.84-3.2A6.18,6.18,0,0,0,77.57,20a5.2,5.2,0,0,0-1.29-1.87A6.11,6.11,0,0,0,74.46,17a5.69,5.69,0,0,0-4.19,0,6.06,6.06,0,0,0-1.81,1.13A5.22,5.22,0,0,0,67.16,20a6.18,6.18,0,0,0-.49,2.51m1.6,0a4.39,4.39,0,0,1,1.2-3.29,4.14,4.14,0,0,1,5.79,0,4.39,4.39,0,0,1,1.2,3.29,4.4,4.4,0,0,1-1.2,3.29,4.12,4.12,0,0,1-5.79,0,4.4,4.4,0,0,1-1.2-3.29"/><path class="cls-4" d="M272.77,10.85s0,0,0,0c0,1.55,0,3.09,0,4.63A1.29,1.29,0,0,0,274,16.76c1.52,0,3,0,4.58,0,0,0,.08,0,.05,0l-5.9-5.89M257.13,39.27a1.37,1.37,0,0,0,1.51,1.54H278.3a1.4,1.4,0,0,0,1.53-1.54V19.46a4,4,0,0,0-.39-1.68,3.67,3.67,0,0,1-1.6.21h-3.53a2.63,2.63,0,0,1-2.79-2.77c0-1.29,0-2.59,0-3.88a3.33,3.33,0,0,1,.19-1.27,3.74,3.74,0,0,0-1.69-.4H258.68a1.4,1.4,0,0,0-1.55,1.57m-1.22,14c0-4.58,0-9.17,0-13.75a2.82,2.82,0,0,1,3-3c3.62.05,7.25,0,10.88,0a6,6,0,0,1,4.39,1.81c1.7,1.69,3.41,3.38,5.09,5.09A5.83,5.83,0,0,1,281,19.58q0,9.83,0,19.65A2.59,2.59,0,0,1,278.29,42H258.64a2.57,2.57,0,0,1-2.73-2.76V25.2"/><path class="cls-4" d="M280.43,12l2.81-3.17-.45,0c-.72,0-.87-.18-.87-.91,0-.54,0-1.07,0-1.61v-2h-3V7.58c0,1.17,0,1.17-1.15,1.24,0,0,0,0-.1.09L280.43,12m2.7-4.41h1.38a.63.63,0,0,1,.66.36.62.62,0,0,1-.15.69c-1.37,1.55-2.73,3.1-4.1,4.64a.59.59,0,0,1-1,0c-1.37-1.53-2.72-3.07-4.07-4.6a.63.63,0,0,1-.14-.74.61.61,0,0,1,.63-.32h1.28c.17-.18.11-.37.11-.55V3.87c0-.65.2-.83.85-.84h3.72c.62,0,.81.2.82.82V7.59"/><path class="cls-4" d="M272.72,24.32c1.47,1.47,3.08,1.86,3.66,1-1-.92-2.29-.91-3.66-1m-5.23-10.78c-.75.64-.74,2.61,0,4.19.53-1.05.55-3.46,0-4.19m-6.86,15.69c.81.07,2.43-1.63,2.92-3.05-1.2.26-3,2.11-2.92,3.05m5.75-5.43a28.82,28.82,0,0,1,3.58-.61l-2.11-2.61c-.5,1.08-1,2.1-1.47,3.22m4.62.55a21.83,21.83,0,0,0-5.43.94A26.45,26.45,0,0,1,263,29.18a3.45,3.45,0,0,1-1.82,1.27,1.39,1.39,0,0,1-1.75-1.77,4.68,4.68,0,0,1,1.45-2.2,10.5,10.5,0,0,1,3.84-2.2A39.79,39.79,0,0,0,267,19.43a8.73,8.73,0,0,1-1.1-2.82,5.93,5.93,0,0,1,.05-2.84,2.5,2.5,0,0,1,.48-.93,1.36,1.36,0,0,1,2.33.31,4.76,4.76,0,0,1,.37,2.11,9.91,9.91,0,0,1-.6,3.5l-.15.48c1,1.3,2,2.63,3.17,3.88a13.51,13.51,0,0,1,3.75.32,3.94,3.94,0,0,1,1.71.82,1.44,1.44,0,0,1-.41,2.52,3.18,3.18,0,0,1-2.77-.17,10.59,10.59,0,0,1-2.8-2.26"/><path class="cls-4" d="M267.93,37.06c.82-.1,1.74.27,2.2-.67a2.53,2.53,0,0,0-.08-2.64c-.52-.75-1.37-.46-2.12-.53Zm-1.15-1.92V33c0-.42.18-.69.62-.69a19.25,19.25,0,0,1,2,0,2.26,2.26,0,0,1,2.13,2.27,4.49,4.49,0,0,1-.09,1.55,2.21,2.21,0,0,1-2.18,1.75c-.6,0-1.21,0-1.81,0a.6.6,0,0,1-.68-.68V35.14Z"/><path class="cls-4" d="M262.73,33.23v1.66a4.91,4.91,0,0,0,1.28,0,.75.75,0,0,0,.66-.81.73.73,0,0,0-.73-.8c-.39,0-.79,0-1.21,0m0,2.54v1.52c0,.39-.12.73-.56.74s-.57-.33-.57-.73c0-1.43,0-2.85,0-4.28,0-.43.2-.68.62-.68a12.74,12.74,0,0,1,2.31,0,1.49,1.49,0,0,1,1.33,1.52,1.56,1.56,0,0,1-1.19,1.74,6.91,6.91,0,0,1-1.7.1l-.24,0"/><path class="cls-4" d="M273.67,34.64h1.81c.51,0,.63.2.45.76a13.53,13.53,0,0,1-2.25.14c0,.59,0,1.19,0,1.79s-.25.74-.61.7a.53.53,0,0,1-.51-.58q0-2.27,0-4.53a.51.51,0,0,1,.51-.57c1,0,2,0,3,0a.69.69,0,0,1,.29.12.58.58,0,0,1,0,.6c-.81.34-1.73,0-2.64.18a12.17,12.17,0,0,0,0,1.39"/></g></g></g></svg>