<svg xmlns="http://www.w3.org/2000/svg" xmlns:xlink="http://www.w3.org/1999/xlink" viewBox="0 0 328.19 45.41"><defs><style>.cls-1{fill:none;}.cls-2{fill:#0a1f8c;stroke:#0a1f8c;stroke-miterlimit:10;}.cls-3{clip-path:url(#clip-path);}.cls-4{fill:#fff;}</style><clipPath id="clip-path"><rect id="SVGID" class="cls-1" x="0.09" y="0.45" width="327.63" height="45.69"/></clipPath></defs><title>Asset 7</title><g id="Layer_2" data-name="Layer 2"><g id="Layer_1-2" data-name="Layer 1"><rect class="cls-2" x="0.5" y="0.5" width="327.19" height="44.41"/><g id="Layer_2-2" data-name="Layer 2"><g id="Layer_1-2-2" data-name="Layer 1-2"><g class="cls-3"><path class="cls-4" d="M239.78,26a2.08,2.08,0,0,1-2.16,1.55,2.22,2.22,0,0,1-1.64-.66,2.29,2.29,0,0,1-.68-1.68h5.79a3.84,3.84,0,0,0,0-.48,4.24,4.24,0,0,0-1-2.93,3.69,3.69,0,0,0-5.22,0l-.09.09a4,4,0,0,0-1.09,2.92,4.07,4.07,0,0,0,1.13,3,3.74,3.74,0,0,0,2.74,1.11,3.64,3.64,0,0,0,2.21-.68,3.42,3.42,0,0,0,1.32-1.72Zm-4.43-2a2,2,0,0,1,.63-1.39,2,2,0,0,1,1.47-.58,2,2,0,0,1,2.11,2Zm-4.88,3.71a4.17,4.17,0,0,0,.07.93H232a9.72,9.72,0,0,1-.08-1.43V20.91h-1.51v4.64a2.1,2.1,0,0,1-.46,1.43,1.7,1.7,0,0,1-1.36.54,1.55,1.55,0,0,1-1.32-.56,2.25,2.25,0,0,1-.43-1.42V20.91h-1.5v4.85A3.22,3.22,0,0,0,226.1,28a2.69,2.69,0,0,0,2.1.87,3,3,0,0,0,1.34-.3,2,2,0,0,0,.93-.87m-11-.7a2.09,2.09,0,0,1-1.63-.67,2.56,2.56,0,0,1-.6-1.8,2.56,2.56,0,0,1,.62-1.79,2.08,2.08,0,0,1,1.61-.67,2,2,0,0,1,1.58.68,2.92,2.92,0,0,1,0,3.57,2,2,0,0,1-1.58.68m-3.78,2A3,3,0,0,0,216.83,31a3.63,3.63,0,0,0,2.41.81,4.92,4.92,0,0,0,1.82-.32,2.94,2.94,0,0,0,1.21-.88,3.68,3.68,0,0,0,.63-1.23,5.25,5.25,0,0,0,.2-1.43V20.91h-1.51V22a2.38,2.38,0,0,0-2.37-1.21,3.3,3.3,0,0,0-2.54,1.08,3.81,3.81,0,0,0-1,2.66,3.69,3.69,0,0,0,1,2.68,3.3,3.3,0,0,0,2.53,1,3,3,0,0,0,1.45-.35,2.34,2.34,0,0,0,.91-.91v1.1c0,1.66-.79,2.5-2.36,2.5a2,2,0,0,1-2.12-1.87v0Zm-5.29-8.35a3.75,3.75,0,0,0-2.83,1.16,4,4,0,0,0-1.11,2.92,4.09,4.09,0,0,0,1.1,2.94,4,4,0,0,0,5.66,0h0a4.44,4.44,0,0,0,0-5.86,3.74,3.74,0,0,0-2.82-1.16m0,6.83a2.29,2.29,0,0,1-1.71-.72,2.81,2.81,0,0,1-.69-2,2.81,2.81,0,0,1,.69-2,2.37,2.37,0,0,1,3.36,0l0,0a3.21,3.21,0,0,1,0,4,2.28,2.28,0,0,1-1.7.72M204.54,17H203V28.61h1.5ZM197,27.54a1.2,1.2,0,0,1-.9-.33,1.08,1.08,0,0,1-.35-.79,1,1,0,0,1,.31-.78,1.51,1.51,0,0,1,.81-.37l2.36-.35v.35a2.25,2.25,0,0,1-.61,1.73,2.34,2.34,0,0,1-1.62.54m-2.78-1a2.19,2.19,0,0,0,.72,1.63,2.58,2.58,0,0,0,1.85.68,2.74,2.74,0,0,0,1.53-.4,2.82,2.82,0,0,0,.93-.89,6.63,6.63,0,0,0,.08,1h1.48a6.73,6.73,0,0,1-.1-1.27V23.45a2.78,2.78,0,0,0-.78-2,3.86,3.86,0,0,0-4.56-.09,2.5,2.5,0,0,0-1,1.8l1.44.33a1.74,1.74,0,0,1,.53-1.12,1.63,1.63,0,0,1,1.21-.43,1.82,1.82,0,0,1,1.25.39,1.26,1.26,0,0,1,.42,1q0,.5-.6.57l-2.08.31a3,3,0,0,0-1.69.74,2.06,2.06,0,0,0-.64,1.59M191,18.45h-1.37V19.7a1.25,1.25,0,0,1-.3.85,1.11,1.11,0,0,1-.89.33H188v1.36h1.47v4.23a2.12,2.12,0,0,0,.58,1.61,2,2,0,0,0,1.56.58,2.82,2.82,0,0,0,1-.15V27.26a2,2,0,0,1-.59.07,1.09,1.09,0,0,1-.83-.26,1.15,1.15,0,0,1-.25-.8v-4h1.67V20.91H191Zm-8.08,9.1a1.2,1.2,0,0,1-.9-.33,1.07,1.07,0,0,1-.34-.79,1,1,0,0,1,.3-.78,1.54,1.54,0,0,1,.82-.37l2.35-.35v.35a2.18,2.18,0,0,1-.61,1.73,2.32,2.32,0,0,1-1.62.54m-2.78-1a2.19,2.19,0,0,0,.72,1.63,2.6,2.6,0,0,0,1.86.68,2.79,2.79,0,0,0,1.54-.39,2.76,2.76,0,0,0,.94-.89,5.55,5.55,0,0,0,.08,1h1.47a6.73,6.73,0,0,1-.1-1.27V23.45a2.78,2.78,0,0,0-.78-2,3.33,3.33,0,0,0-2.42-.79,3.38,3.38,0,0,0-2.14.7,2.5,2.5,0,0,0-1,1.8l1.44.33a1.74,1.74,0,0,1,.53-1.12,1.67,1.67,0,0,1,1.21-.43,1.72,1.72,0,0,1,1.25.39,1.26,1.26,0,0,1,.42,1c0,.33-.2.52-.59.57l-2.08.31a3,3,0,0,0-1.7.74,2.06,2.06,0,0,0-.64,1.59m-4.69-4.48a1.91,1.91,0,0,1,1.39.48,2.45,2.45,0,0,1,.68,1.16l1.36-.58a3.41,3.41,0,0,0-1.15-1.73,3.47,3.47,0,0,0-2.28-.72,3.66,3.66,0,0,0-2.77,1.15,4.08,4.08,0,0,0-1.1,2.93,4.12,4.12,0,0,0,1.1,2.93,3.67,3.67,0,0,0,2.79,1.17,3.49,3.49,0,0,0,2.26-.72,3.63,3.63,0,0,0,1.2-1.68l-1.33-.58a2.41,2.41,0,0,1-.68,1.11,2,2,0,0,1-1.46.48,2.2,2.2,0,0,1-1.67-.72,2.76,2.76,0,0,1-.68-2,2.72,2.72,0,0,1,.68-2,2.19,2.19,0,0,1,1.65-.71m-10.89-3.58h-1.38V19.7a1.25,1.25,0,0,1-.3.85,1.08,1.08,0,0,1-.88.33h-.42v1.36H163v4.23a2,2,0,0,0,2.15,2.19,2.82,2.82,0,0,0,1-.15V27.26a2,2,0,0,1-.59.07,1.09,1.09,0,0,1-.83-.26,1.11,1.11,0,0,1-.24-.8v-4h1.66V20.91h-1.66ZM157.27,22a1.91,1.91,0,0,1,1.39.48,2.54,2.54,0,0,1,.68,1.16l1.36-.58a3.41,3.41,0,0,0-1.15-1.73,3.47,3.47,0,0,0-2.28-.72,3.66,3.66,0,0,0-2.77,1.15,4,4,0,0,0-1.1,2.93,4.12,4.12,0,0,0,1.1,2.93,3.67,3.67,0,0,0,2.79,1.17,3.44,3.44,0,0,0,2.26-.72,3.63,3.63,0,0,0,1.21-1.65l-1.33-.58a2.33,2.33,0,0,1-.68,1.11,2,2,0,0,1-1.46.48,2.2,2.2,0,0,1-1.67-.72,2.76,2.76,0,0,1-.68-2,2.72,2.72,0,0,1,.68-2,2.19,2.19,0,0,1,1.65-.71m-7.13,5.62a4.85,4.85,0,0,0,.06.93h1.44a13.55,13.55,0,0,1-.08-1.43V20.91h-1.47v4.64a2.11,2.11,0,0,1-.47,1.43,1.67,1.67,0,0,1-1.36.54,1.55,1.55,0,0,1-1.32-.56,2.31,2.31,0,0,1-.42-1.42V20.91H145v4.85A3.16,3.16,0,0,0,145.8,28a2.63,2.63,0,0,0,2.09.87,3.13,3.13,0,0,0,1.35-.3,2.06,2.06,0,0,0,.93-.87m-9-.11a6.63,6.63,0,0,0,.08,1h1.45a11.32,11.32,0,0,1-.08-1.43V17h-1.53v5a2,2,0,0,0-.82-.92,2.87,2.87,0,0,0-1.54-.38,3.37,3.37,0,0,0-2.64,1.16,4.22,4.22,0,0,0-1,2.86,4.29,4.29,0,0,0,1,2.92,3.29,3.29,0,0,0,2.64,1.16,2.71,2.71,0,0,0,1.47-.4,2.53,2.53,0,0,0,.92-1Zm-4.5-2.83a3,3,0,0,1,.63-2,2,2,0,0,1,1.64-.75,2,2,0,0,1,1.62.74,3,3,0,0,1,.59,1.93,3.18,3.18,0,0,1-.61,2,1.9,1.9,0,0,1-1.61.79,2,2,0,0,1-1.66-.77,3.06,3.06,0,0,1-.6-2m-6.75-4.07a3.74,3.74,0,0,0-2.83,1.22A4,4,0,0,0,126,24.75a4.06,4.06,0,0,0,1.12,2.94,4,4,0,0,0,5.66,0h0a4.1,4.1,0,0,0,1.11-2.94,4,4,0,0,0-1.12-2.92,3.74,3.74,0,0,0-2.82-1.16m0,6.83a2.28,2.28,0,0,1-1.7-.72,2.78,2.78,0,0,1-.7-2,2.78,2.78,0,0,1,.7-2,2.37,2.37,0,0,1,3.35-.05s0,0,.05.05a2.78,2.78,0,0,1,.7,2,2.82,2.82,0,0,1-.7,2,2.28,2.28,0,0,1-1.7.72m-4.83-6.67a2.72,2.72,0,0,0-.49,0,2.39,2.39,0,0,0-2.31,1.48V20.91h-1.5v7.7h1.51V24.75c0-1.58.7-2.37,2.11-2.37a5.23,5.23,0,0,1,.68.07Zm-7.72,3.92a3,3,0,0,1-.63,2,2.23,2.23,0,0,1-3.3-.06,3,3,0,0,1-.63-2,2.93,2.93,0,0,1,.63-1.93,2.09,2.09,0,0,1,1.65-.76,2,2,0,0,1,1.66.76,3.05,3.05,0,0,1,.62,1.93m-4.55,6.9v-4a2.53,2.53,0,0,0,1,.89,3,3,0,0,0,1.51.36,3.23,3.23,0,0,0,2.61-1.16,4.33,4.33,0,0,0,1-2.91,4.41,4.41,0,0,0-.93-2.88,3.51,3.51,0,0,0-4.17-.75,2.6,2.6,0,0,0-1,1v-1.2h-1.46V31.65Zm-13-7.49a2.29,2.29,0,0,1,.47-1.51,1.57,1.57,0,0,1,1.32-.6c1.19,0,1.79.64,1.79,1.93v4.63h1.5V23.73a3.23,3.23,0,0,0-.71-2.19,2.5,2.5,0,0,0-2-.85A2.56,2.56,0,0,0,99.82,22V20.91H98.31v7.7h1.51ZM95.09,26a2.08,2.08,0,0,1-2.16,1.55,2.19,2.19,0,0,1-1.64-.66,2.29,2.29,0,0,1-.68-1.68H96.4a3.84,3.84,0,0,0,0-.48,4.24,4.24,0,0,0-1-2.93,3.71,3.71,0,0,0-5.25,0l-.07.07A4.1,4.1,0,0,0,89,24.74a4,4,0,0,0,1.13,3,3.71,3.71,0,0,0,2.76,1.11,3.61,3.61,0,0,0,2.2-.68,3.48,3.48,0,0,0,1.25-1.72Zm-4.43-2a2.1,2.1,0,0,1,.62-1.39A2,2,0,0,1,92.75,22a2,2,0,0,1,1.54.55A2.15,2.15,0,0,1,94.87,24Zm-4.43.78a3,3,0,0,1-.63,2,2.17,2.17,0,0,1-3.06.24,1.36,1.36,0,0,1-.24-.24,3,3,0,0,1-.63-2,2.93,2.93,0,0,1,.63-1.93A2.09,2.09,0,0,1,84,22.06a2,2,0,0,1,1.66.76,3.05,3.05,0,0,1,.62,1.93m-4.55,6.9V27.57a2.53,2.53,0,0,0,1,.89,3,3,0,0,0,1.51.36,3.23,3.23,0,0,0,2.61-1.16,4.33,4.33,0,0,0,1-2.91,4.36,4.36,0,0,0-.94-2.88,3.18,3.18,0,0,0-2.59-1.13,3,3,0,0,0-1.57.38,2.6,2.6,0,0,0-1,1v-1.2H80.15V31.65ZM66.76,22.93a5.9,5.9,0,0,0,.84,3.2,5.57,5.57,0,0,0,2.12,2.05,5.94,5.94,0,0,0,5.47,0,5.42,5.42,0,0,0,2.12-2.05,6.08,6.08,0,0,0,.84-3.2,6.24,6.24,0,0,0-.49-2.48,5.27,5.27,0,0,0-1.29-1.87,6.24,6.24,0,0,0-1.82-1.13,5.72,5.72,0,0,0-4.19,0,6.06,6.06,0,0,0-1.81,1.13,5.17,5.17,0,0,0-1.3,1.87A6.17,6.17,0,0,0,66.76,23m1.6,0a4.37,4.37,0,0,1,1.2-3.29,4.15,4.15,0,0,1,5.79,0A4.4,4.4,0,0,1,76.55,23a4.39,4.39,0,0,1-1.2,3.29,4.11,4.11,0,0,1-5.79,0A4.39,4.39,0,0,1,68.36,23"/><path class="cls-4" d="M272.86,11.3h0v4.63a1.28,1.28,0,0,0,1.23,1.28h4.63l-5.9-5.89m-15.6,28.4a1.37,1.37,0,0,0,1.18,1.54,1.82,1.82,0,0,0,.33,0h19.66a1.4,1.4,0,0,0,1.53-1.54V19.91a4.09,4.09,0,0,0-.39-1.68,3.63,3.63,0,0,1-1.6.21H274.4A2.63,2.63,0,0,1,271.61,16a1.61,1.61,0,0,1,0-.31V11.79a3.24,3.24,0,0,1,.19-1.27,3.82,3.82,0,0,0-1.69-.4H258.77a1.4,1.4,0,0,0-1.55,1.23,1,1,0,0,0,0,.34m-1.22,14V11.94a2.82,2.82,0,0,1,2.63-3H259c3.62.05,7.25,0,10.88,0a6,6,0,0,1,4.39,1.81c1.7,1.69,3.41,3.38,5.09,5.09A5.84,5.84,0,0,1,281.09,20V39.68a2.6,2.6,0,0,1-2.4,2.77h-20a2.57,2.57,0,0,1-2.73-2.4,2.16,2.16,0,0,1,0-.36v-14"/><path class="cls-4" d="M280.52,12.45l2.81-3.17h-.45c-.72,0-.87-.18-.87-.91V4.76h-3V8c0,1.17,0,1.17-1.15,1.24l-.1.09,2.76,3.09M283.22,8h1.38a.64.64,0,0,1,.66.36.61.61,0,0,1-.15.69c-1.37,1.55-2.73,3.1-4.1,4.64a.59.59,0,0,1-.81.19.58.58,0,0,1-.19-.19c-1.37-1.53-2.72-3.07-4.07-4.6a.63.63,0,0,1-.14-.74.6.6,0,0,1,.63-.32h1.28c.17-.18.11-.37.11-.55V4.32c0-.65.2-.83.85-.84h3.72c.62,0,.81.2.82.82V8"/><path class="cls-4" d="M272.81,24.77c1.47,1.47,3.08,1.86,3.66,1-1-.92-2.29-.91-3.66-1M267.58,14c-.75.64-.74,2.61,0,4.19.53-1.05.55-3.46,0-4.19m-6.86,15.69c.81.07,2.43-1.63,2.92-3.05-1.2.26-3,2.11-2.92,3.05m5.75-5.43a28.78,28.78,0,0,1,3.58-.61L267.94,21c-.5,1.08-1,2.1-1.47,3.22m4.62.55a21.77,21.77,0,0,0-5.43.94,26.44,26.44,0,0,1-2.57,3.89,3.45,3.45,0,0,1-1.82,1.27,1.39,1.39,0,0,1-1.76-.88,1.43,1.43,0,0,1,0-.89,4.61,4.61,0,0,1,1.45-2.2,10.46,10.46,0,0,1,3.84-2.2,39,39,0,0,0,2.28-4.85,8.68,8.68,0,0,1-1.1-2.82,5.81,5.81,0,0,1,.05-2.84,2.36,2.36,0,0,1,.48-.93,1.36,1.36,0,0,1,2.33.31,4.78,4.78,0,0,1,.37,2.11,10,10,0,0,1-.6,3.5l-.15.48c1,1.3,2,2.63,3.17,3.88a13.51,13.51,0,0,1,3.75.32,3.94,3.94,0,0,1,1.71.82,1.44,1.44,0,0,1,.29,2,1.47,1.47,0,0,1-.7.5,3.17,3.17,0,0,1-2.77-.17,10.54,10.54,0,0,1-2.8-2.26"/><path class="cls-4" d="M268,37.51c.82-.1,1.74.27,2.2-.67a2.53,2.53,0,0,0-.08-2.64c-.52-.75-1.37-.46-2.12-.53Zm-1.15-1.92V33.45c0-.42.18-.69.62-.69.66,0,1.33,0,2,0A2.26,2.26,0,0,1,271.62,35a4.49,4.49,0,0,1-.09,1.55,2.21,2.21,0,0,1-2.18,1.75h-1.81a.6.6,0,0,1-.68-.51.48.48,0,0,1,0-.17V35.59Z"/><path class="cls-4" d="M262.82,33.68v1.66a4.57,4.57,0,0,0,1.28,0,.75.75,0,0,0,.66-.81.74.74,0,0,0-.66-.8h-1.28m0,2.54v1.52c0,.39-.12.73-.56.74s-.57-.33-.57-.73V33.52c0-.43.2-.68.62-.68a12.73,12.73,0,0,1,2.31,0A1.49,1.49,0,0,1,266,34.36a1.56,1.56,0,0,1-1.19,1.74,6.91,6.91,0,0,1-1.7.1h-.24"/><path class="cls-4" d="M273.76,35.09h1.81c.51,0,.63.2.45.76a13.08,13.08,0,0,1-2.25.14v1.79c0,.6-.25.74-.61.7a.53.53,0,0,1-.51-.55V33.37a.51.51,0,0,1,.44-.56h3.07a.81.81,0,0,1,.29.12.59.59,0,0,1,0,.6c-.81.34-1.73,0-2.64.18a10.75,10.75,0,0,0,0,1.39"/></g></g></g></g></g></svg>