<svg xmlns="http://www.w3.org/2000/svg" viewBox="0 0 328.19 45.41"><defs><style>.cls-1{fill:none;stroke:#0a1f8c;stroke-miterlimit:10;}.cls-2{fill:#0a1f8c;}</style></defs><title>Asset 6</title><g id="Layer_2" data-name="Layer 2"><g id="Layer_1-2" data-name="Layer 1"><rect class="cls-1" x="0.5" y="0.5" width="327.19" height="44.41"/><path class="cls-2" d="M239.71,25.83a2.07,2.07,0,0,1-2.16,1.55,2.26,2.26,0,0,1-1.64-.65,2.33,2.33,0,0,1-.68-1.68H241a3.23,3.23,0,0,0,0-.48,4.26,4.26,0,0,0-1-2.94,3.46,3.46,0,0,0-2.72-1.1,3.42,3.42,0,0,0-2.59,1.16,4,4,0,0,0-1.09,2.91,4,4,0,0,0,1.13,3,3.75,3.75,0,0,0,2.74,1.11,3.63,3.63,0,0,0,2.21-.68A3.44,3.44,0,0,0,241,26.28Zm-4.43-2a2.1,2.1,0,0,1,.62-1.38,2,2,0,0,1,1.47-.59,1.94,1.94,0,0,1,2.12,2Zm-4.88,3.71a5.68,5.68,0,0,0,.06.93h1.44a12.79,12.79,0,0,1-.08-1.42V20.77h-1.5v4.64a2.13,2.13,0,0,1-.47,1.44,1.72,1.72,0,0,1-1.36.53,1.55,1.55,0,0,1-1.32-.56,2.3,2.3,0,0,1-.42-1.42V20.77h-1.5v4.85a3.2,3.2,0,0,0,.78,2.22,2.68,2.68,0,0,0,2.1.87,3.06,3.06,0,0,0,1.34-.3,1.92,1.92,0,0,0,.93-.87m-11-.7a2.05,2.05,0,0,1-1.62-.67,2.58,2.58,0,0,1-.6-1.8,2.52,2.52,0,0,1,.62-1.79,2.22,2.22,0,0,1,3.19,0,2.92,2.92,0,0,1,0,3.57,2.06,2.06,0,0,1-1.59.68m-3.77,2.05a3,3,0,0,0,1.13,2.05,3.7,3.7,0,0,0,2.42.81,4.85,4.85,0,0,0,1.82-.32,2.83,2.83,0,0,0,1.2-.88,3.86,3.86,0,0,0,.64-1.22,5.11,5.11,0,0,0,.2-1.44V20.77h-1.49v1.08a2.4,2.4,0,0,0-2.37-1.22,3.28,3.28,0,0,0-2.54,1.08,4.06,4.06,0,0,0,0,5.34,3.37,3.37,0,0,0,2.54,1.05,2.83,2.83,0,0,0,1.45-.35,2.19,2.19,0,0,0,.9-.91v1.1c0,1.67-.78,2.5-2.35,2.5a2,2,0,0,1-1.44-.54,2.1,2.1,0,0,1-.66-1.35Zm-5.3-8.36a3.75,3.75,0,0,0-2.82,1.16,4.07,4.07,0,0,0-1.11,2.92,4.06,4.06,0,0,0,1.1,2.94,4,4,0,0,0,5.66,0,4.07,4.07,0,0,0,1.11-2.94,4.07,4.07,0,0,0-1.11-2.92,3.78,3.78,0,0,0-2.83-1.16m0,6.84a2.28,2.28,0,0,1-1.7-.73,2.8,2.8,0,0,1-.7-2,2.74,2.74,0,0,1,.7-2,2.24,2.24,0,0,1,1.7-.73,2.28,2.28,0,0,1,1.71.73,2.78,2.78,0,0,1,.69,2,2.84,2.84,0,0,1-.69,2,2.31,2.31,0,0,1-1.71.73m-5.85-10.48h-1.51V28.47h1.51Zm-7.57,10.56a1.26,1.26,0,0,1-.91-.34,1.12,1.12,0,0,1,0-1.57,1.6,1.6,0,0,1,.82-.37l2.35-.35v.35a2.19,2.19,0,0,1-.61,1.73,2.28,2.28,0,0,1-1.61.55m-2.79-1a2.14,2.14,0,0,0,.72,1.62,2.61,2.61,0,0,0,1.86.68,2.8,2.8,0,0,0,2.48-1.28,6.76,6.76,0,0,0,.08,1h1.47a8.11,8.11,0,0,1-.09-1.26V23.35a2.75,2.75,0,0,0-.79-2,3.26,3.26,0,0,0-2.41-.8,3.42,3.42,0,0,0-2.15.7,2.52,2.52,0,0,0-1,1.8l1.44.34a1.8,1.8,0,0,1,.53-1.13,1.73,1.73,0,0,1,1.22-.43,1.78,1.78,0,0,1,1.25.39,1.3,1.3,0,0,1,.41,1c0,.33-.2.52-.59.58l-2.08.3a3.06,3.06,0,0,0-1.7.74,2.12,2.12,0,0,0-.64,1.6m-3.18-8.07h-1.38v1.25a1.23,1.23,0,0,1-.29.86,1.14,1.14,0,0,1-.89.32h-.42v1.36h1.48v4.23A2.18,2.18,0,0,0,190,28a2.11,2.11,0,0,0,1.57.58,3.09,3.09,0,0,0,1-.14V27.13a2.55,2.55,0,0,1-.59.06,1.06,1.06,0,0,1-.82-.26,1.08,1.08,0,0,1-.25-.8v-4h1.66V20.77h-1.66Zm-8.08,9.11a1.25,1.25,0,0,1-.9-.34,1,1,0,0,1-.35-.78,1,1,0,0,1,.31-.79,1.53,1.53,0,0,1,.81-.37l2.35-.35v.35a2.23,2.23,0,0,1-.6,1.73,2.32,2.32,0,0,1-1.62.55m-2.78-1a2.14,2.14,0,0,0,.72,1.62,2.59,2.59,0,0,0,1.85.68,2.94,2.94,0,0,0,1.55-.38,2.87,2.87,0,0,0,.93-.9,6.76,6.76,0,0,0,.08,1h1.47a8.11,8.11,0,0,1-.09-1.26V23.35a2.71,2.71,0,0,0-.79-2,3.24,3.24,0,0,0-2.41-.8,3.44,3.44,0,0,0-2.15.7,2.5,2.5,0,0,0-1,1.8l1.44.34a1.79,1.79,0,0,1,.52-1.13,1.73,1.73,0,0,1,1.22-.43,1.78,1.78,0,0,1,1.25.39,1.27,1.27,0,0,1,.41,1c0,.33-.19.52-.59.58l-2.08.3a3,3,0,0,0-1.69.74,2.09,2.09,0,0,0-.64,1.6m-4.69-4.48a1.92,1.92,0,0,1,1.39.48,2.44,2.44,0,0,1,.67,1.15l1.36-.58a3.34,3.34,0,0,0-1.14-1.73,3.46,3.46,0,0,0-2.28-.72,3.71,3.71,0,0,0-2.77,1.15,4,4,0,0,0-1.1,2.93,4.07,4.07,0,0,0,1.1,2.93,3.66,3.66,0,0,0,2.78,1.17,3.49,3.49,0,0,0,2.27-.72,3.7,3.7,0,0,0,1.21-1.68l-1.33-.58a2.48,2.48,0,0,1-.68,1.11,2.07,2.07,0,0,1-1.47.48,2.2,2.2,0,0,1-1.67-.72,2.79,2.79,0,0,1-.68-2,2.75,2.75,0,0,1,.68-2,2.21,2.21,0,0,1,1.66-.7m-10.9-3.59h-1.37v1.25a1.23,1.23,0,0,1-.3.86,1.13,1.13,0,0,1-.89.32h-.41v1.36H163v4.23a2.18,2.18,0,0,0,.57,1.61,2.11,2.11,0,0,0,1.57.58,3.19,3.19,0,0,0,1-.14V27.13a2.64,2.64,0,0,1-.6.06.92.92,0,0,1-1.07-1.06v-4h1.67V20.77h-1.67Zm-7.26,3.59a1.91,1.91,0,0,1,1.39.48,2.44,2.44,0,0,1,.67,1.15l1.36-.58a3.34,3.34,0,0,0-1.14-1.73,3.46,3.46,0,0,0-2.28-.72,3.71,3.71,0,0,0-2.77,1.15,4,4,0,0,0-1.1,2.93,4.07,4.07,0,0,0,1.1,2.93,3.66,3.66,0,0,0,2.78,1.17,3.49,3.49,0,0,0,2.27-.72,3.7,3.7,0,0,0,1.21-1.68l-1.33-.58a2.48,2.48,0,0,1-.68,1.11,2.07,2.07,0,0,1-1.47.48,2.22,2.22,0,0,1-1.67-.72,2.79,2.79,0,0,1-.68-2,2.75,2.75,0,0,1,.68-2,2.23,2.23,0,0,1,1.66-.7m-7.14,5.61a4.62,4.62,0,0,0,.07.93h1.44a10.76,10.76,0,0,1-.08-1.42V20.77H150v4.64a2.13,2.13,0,0,1-.46,1.44,1.72,1.72,0,0,1-1.36.53,1.52,1.52,0,0,1-1.32-.56,2.24,2.24,0,0,1-.43-1.42V20.77h-1.5v4.85a3.2,3.2,0,0,0,.78,2.22,2.69,2.69,0,0,0,2.1.87,3,3,0,0,0,1.34-.3,1.88,1.88,0,0,0,.93-.87m-9-.11a6.29,6.29,0,0,0,.08,1h1.46a12.25,12.25,0,0,1-.08-1.42V16.89H141v5a2,2,0,0,0-.81-.92,2.86,2.86,0,0,0-1.54-.37,3.31,3.31,0,0,0-2.62,1.17,4.19,4.19,0,0,0-1,2.86,4.3,4.3,0,0,0,1,2.92,3.34,3.34,0,0,0,2.65,1.16,2.68,2.68,0,0,0,1.46-.39,2.49,2.49,0,0,0,.92-1Zm-4.49-2.83a3,3,0,0,1,.62-2,2.06,2.06,0,0,1,1.65-.76,2,2,0,0,1,1.62.74,3,3,0,0,1,.59,1.94,3.22,3.22,0,0,1-.61,2,2,2,0,0,1-1.62.78,2,2,0,0,1-1.65-.77,3.11,3.11,0,0,1-.6-2m-6.75-4.07A3.75,3.75,0,0,0,127,21.69a4.07,4.07,0,0,0-1.11,2.92,4.1,4.1,0,0,0,1.1,2.94,4,4,0,0,0,5.67,0,4.1,4.1,0,0,0,1.1-2.94,4.07,4.07,0,0,0-1.11-2.92,3.75,3.75,0,0,0-2.82-1.16m0,6.84a2.3,2.3,0,0,1-1.71-.73,2.84,2.84,0,0,1-.69-2,2.78,2.78,0,0,1,.69-2,2.36,2.36,0,0,1,3.41,0,2.78,2.78,0,0,1,.7,2,2.84,2.84,0,0,1-.7,2,2.28,2.28,0,0,1-1.7.73M125,20.69a2.74,2.74,0,0,0-.5,0,2.39,2.39,0,0,0-2.3,1.47V20.77h-1.47v7.7h1.5V24.61c0-1.57.71-2.36,2.11-2.36a4.87,4.87,0,0,1,.66,0Zm-7.73,3.92a3,3,0,0,1-.62,2,2,2,0,0,1-1.65.76,2.06,2.06,0,0,1-1.66-.76,3,3,0,0,1-.63-2,2.9,2.9,0,0,1,.63-1.92,2.06,2.06,0,0,1,1.66-.76,2,2,0,0,1,1.66.76,3,3,0,0,1,.61,1.92m-4.54,6.9V27.43a2.56,2.56,0,0,0,1,.9,3.19,3.19,0,0,0,1.5.35,3.27,3.27,0,0,0,2.62-1.15,4.36,4.36,0,0,0,1-2.92,4.36,4.36,0,0,0-.94-2.88,3.51,3.51,0,0,0-4.17-.75,2.64,2.64,0,0,0-1,1v-1.2h-1.46V31.51ZM99.74,24a2.39,2.39,0,0,1,.47-1.51,1.6,1.6,0,0,1,1.32-.6c1.2,0,1.8.65,1.8,1.94v4.62h1.5V23.59a3.29,3.29,0,0,0-.71-2.19,2.82,2.82,0,0,0-4.41.48V20.77H98.24v7.7h1.5ZM95,25.83a2.07,2.07,0,0,1-2.16,1.55,2.28,2.28,0,0,1-1.64-.65,2.33,2.33,0,0,1-.68-1.68h5.8a3.23,3.23,0,0,0,0-.48,4.26,4.26,0,0,0-1-2.94,3.68,3.68,0,0,0-5.31.06,4,4,0,0,0-1.09,2.91,4,4,0,0,0,1.13,3,3.77,3.77,0,0,0,2.74,1.11A3.61,3.61,0,0,0,95,28a3.38,3.38,0,0,0,1.25-1.75Zm-4.43-2a2.06,2.06,0,0,1,.63-1.38,2,2,0,0,1,1.47-.59,2.07,2.07,0,0,1,1.53.55,2,2,0,0,1,.58,1.42Zm-4.43.78a3,3,0,0,1-.62,2,2.18,2.18,0,0,1-3.31,0,3,3,0,0,1-.63-2,2.9,2.9,0,0,1,.63-1.92,2,2,0,0,1,1.66-.76,2,2,0,0,1,1.65.76,3,3,0,0,1,.62,1.92m-4.54,6.9V27.43a2.56,2.56,0,0,0,1,.9,3.19,3.19,0,0,0,1.5.35,3.27,3.27,0,0,0,2.62-1.15,4.41,4.41,0,0,0,1-2.92,4.41,4.41,0,0,0-.94-2.88A3.51,3.51,0,0,0,82.54,21a2.67,2.67,0,0,0-1,1v-1.2H80.08V31.51ZM66.69,22.79a6,6,0,0,0,.84,3.2A5.4,5.4,0,0,0,69.65,28a5.92,5.92,0,0,0,5.47,0A5.47,5.47,0,0,0,77.24,26a6,6,0,0,0,.84-3.2,6.21,6.21,0,0,0-.49-2.51,5.22,5.22,0,0,0-1.3-1.87,5.84,5.84,0,0,0-1.81-1.12,5.69,5.69,0,0,0-4.19,0,5.89,5.89,0,0,0-1.82,1.12,5.35,5.35,0,0,0-1.3,1.87,6.38,6.38,0,0,0-.48,2.51m1.6,0a4.4,4.4,0,0,1,1.2-3.29,4.17,4.17,0,0,1,5.79,0,4.4,4.4,0,0,1,1.2,3.29,4.43,4.43,0,0,1-1.2,3.3,4.14,4.14,0,0,1-5.79,0,4.43,4.43,0,0,1-1.2-3.3"/><path class="cls-2" d="M272.84,11.33c0-.06,0,0,0,0,0,1.54,0,3.09,0,4.63a1.3,1.3,0,0,0,1.28,1.25c1.52,0,3.05,0,4.57,0,.05,0,.09,0,.06,0l-5.91-5.89M257.2,39.75a1.39,1.39,0,0,0,1.52,1.54h19.66a1.41,1.41,0,0,0,1.53-1.54V19.94a3.91,3.91,0,0,0-.4-1.68,3.78,3.78,0,0,1-1.59.21h-3.53a2.62,2.62,0,0,1-2.79-2.77c0-1.3,0-2.59,0-3.88a3.44,3.44,0,0,1,.21-1.28,4,4,0,0,0-1.72-.39H258.75a1.4,1.4,0,0,0-1.55,1.57m-1.21,14c0-4.59,0-9.17,0-13.76a2.82,2.82,0,0,1,3-3c3.62.06,7.27,0,10.9,0a6.07,6.07,0,0,1,4.39,1.81c1.7,1.7,3.39,3.39,5.07,5.1a5.89,5.89,0,0,1,1.75,4.21q0,9.82,0,19.66a2.6,2.6,0,0,1-2.75,2.79H258.72A2.57,2.57,0,0,1,256,39.74c0-4.69,0-9.37,0-14.06"/><path class="cls-2" d="M280.51,12.48l2.8-3.17-.44,0c-.72,0-.87-.17-.88-.9V6.77l0-2h-3l0,3.29c0,1.18,0,1.18-1.15,1.25,0,0,0,0-.1.08l2.73,3.1m2.7-4.41h1.37a.61.61,0,0,1,.66.35.63.63,0,0,1-.14.7c-1.37,1.55-2.73,3.1-4.1,4.64a.6.6,0,0,1-1,0l-4.07-4.6a.63.63,0,0,1-.13-.74.6.6,0,0,1,.63-.32h1.28c.17-.18.1-.38.11-.55,0-1.06,0-2.12,0-3.17,0-.65.18-.84.83-.84h3.72c.62,0,.83.2.83.82,0,1.22,0,2.45,0,3.74"/><path class="cls-2" d="M272.8,24.79c1.46,1.48,3.08,1.86,3.65,1-1-.92-2.28-.92-3.65-1M267.57,14c-.76.65-.75,2.61,0,4.19a5.61,5.61,0,0,0,0-4.19m-6.86,15.7c.81.07,2.43-1.63,2.92-3.05-1.2.25-3,2.11-2.92,3.05m5.75-5.44a28.76,28.76,0,0,1,3.58-.6l-2.11-2.62-1.47,3.22m4.62.55a21.84,21.84,0,0,0-5.43.95,27,27,0,0,1-2.57,3.89,3.42,3.42,0,0,1-1.83,1.26,1.38,1.38,0,0,1-1.74-1.77A4.58,4.58,0,0,1,261,27a10.44,10.44,0,0,1,3.84-2.21,40.36,40.36,0,0,0,2.25-4.84,8.59,8.59,0,0,1-1.1-2.82,6.1,6.1,0,0,1,0-2.85,2.34,2.34,0,0,1,.49-.92,1.36,1.36,0,0,1,2.33.3,4.8,4.8,0,0,1,.37,2.12,10.22,10.22,0,0,1-.6,3.5c-.06.16-.1.31-.15.47,1.05,1.31,2.05,2.64,3.17,3.88a14.31,14.31,0,0,1,3.75.32,4.06,4.06,0,0,1,1.71.82,1.44,1.44,0,0,1-.41,2.53,3.21,3.21,0,0,1-2.77-.17,10.63,10.63,0,0,1-2.8-2.27"/><path class="cls-2" d="M268,37.54c.82-.1,1.74.26,2.2-.68a2.52,2.52,0,0,0-.08-2.63c-.52-.75-1.37-.47-2.12-.53Zm-1.15-1.92c0-.71,0-1.41,0-2.12,0-.41.18-.68.62-.69a16.85,16.85,0,0,1,2,0,2.25,2.25,0,0,1,2.13,2.26,4.26,4.26,0,0,1-.1,1.55,2.2,2.2,0,0,1-2.17,1.76c-.6,0-1.21,0-1.81,0a.61.61,0,0,1-.68-.69V35.62Z"/><path class="cls-2" d="M262.81,33.7v1.67a5.41,5.41,0,0,0,1.28,0,.77.77,0,0,0,.66-.82.73.73,0,0,0-.73-.79c-.39,0-.79,0-1.21,0m0,2.55v1.51c0,.4-.12.74-.56.74s-.57-.33-.57-.72c0-1.43,0-2.85,0-4.28,0-.43.2-.68.62-.68a12.74,12.74,0,0,1,2.31,0,1.49,1.49,0,0,1,1.33,1.51,1.55,1.55,0,0,1-1.19,1.74,6.92,6.92,0,0,1-1.7.11l-.24,0"/><path class="cls-2" d="M273.75,35.11h1.81c.51,0,.62.19.45.76a14.87,14.87,0,0,1-2.26.13c0,.6,0,1.2,0,1.8s-.25.74-.61.7a.53.53,0,0,1-.51-.58q0-2.26,0-4.53a.51.51,0,0,1,.51-.57c1,0,2,0,3,0,.11,0,.21.09.29.12a.6.6,0,0,1,0,.61c-.81.33-1.73,0-2.64.18a12.06,12.06,0,0,0,0,1.38"/></g></g></svg>