<svg xmlns="http://www.w3.org/2000/svg" xmlns:xlink="http://www.w3.org/1999/xlink" viewBox="0 0 328.63 46.69"><defs><style>.cls-1,.cls-4{fill:none;}.cls-2{fill:#fff;}.cls-3{clip-path:url(#clip-path);}.cls-4{stroke:#0a1f8c;}.cls-5{fill:#0a1f8c;}</style><clipPath id="clip-path"><rect class="cls-1" width="328.63" height="46.69"/></clipPath></defs><title>Asset 11</title><g id="Layer_2" data-name="Layer 2"><g id="Layer_1-2" data-name="Layer 1"><rect class="cls-2" x="0.5" y="0.5" width="327.63" height="45.69"/><g class="cls-3"><rect class="cls-4" x="0.5" y="0.5" width="327.63" height="45.69"/><path class="cls-5" d="M239.19,26A2.08,2.08,0,0,1,237,27.57a2.25,2.25,0,0,1-1.64-.66,2.3,2.3,0,0,1-.68-1.68h5.8a3,3,0,0,0,0-.48,4.25,4.25,0,0,0-1-2.93,3.69,3.69,0,0,0-5.31.05,4.07,4.07,0,0,0-1.09,2.92,4.06,4.06,0,0,0,1.13,3A3.77,3.77,0,0,0,237,28.9a3.61,3.61,0,0,0,2.21-.68,3.42,3.42,0,0,0,1.25-1.75Zm-4.43-2a2.06,2.06,0,0,1,.63-1.39,2,2,0,0,1,1.47-.58A1.94,1.94,0,0,1,239,24Zm-4.88,3.71a4.76,4.76,0,0,0,.07.93h1.44a10.91,10.91,0,0,1-.08-1.43V21H229.8V25.6a2.08,2.08,0,0,1-.46,1.43,1.71,1.71,0,0,1-1.36.54,1.55,1.55,0,0,1-1.32-.56,2.31,2.31,0,0,1-.43-1.42V21h-1.5v4.85a3.22,3.22,0,0,0,.78,2.22,2.71,2.71,0,0,0,2.1.87,3,3,0,0,0,1.34-.3,2,2,0,0,0,.93-.87m-11-.7a2.11,2.11,0,0,1-1.63-.67,2.58,2.58,0,0,1-.6-1.8,2.55,2.55,0,0,1,.62-1.79,2.08,2.08,0,0,1,1.61-.67,2,2,0,0,1,1.58.68,2.55,2.55,0,0,1,.61,1.78,2.58,2.58,0,0,1-.61,1.79,2,2,0,0,1-1.58.68m-3.78,2a3,3,0,0,0,1.14,2.06,3.68,3.68,0,0,0,2.41.81,4.81,4.81,0,0,0,1.82-.32,3,3,0,0,0,1.21-.88,3.68,3.68,0,0,0,.63-1.23,5,5,0,0,0,.2-1.43V21H221V22a2.38,2.38,0,0,0-2.37-1.21,3.3,3.3,0,0,0-2.54,1.08,3.8,3.8,0,0,0-1,2.66,3.71,3.71,0,0,0,1,2.68,3.33,3.33,0,0,0,2.53,1.05,2.91,2.91,0,0,0,1.45-.35A2.34,2.34,0,0,0,221,27v1.1c0,1.66-.79,2.5-2.36,2.5a2,2,0,0,1-2.09-1.89Zm-5.29-8.35A3.75,3.75,0,0,0,207,21.88a4.05,4.05,0,0,0-1.11,2.92,4.12,4.12,0,0,0,1.1,2.94,4,4,0,0,0,5.67,0,4.12,4.12,0,0,0,1.1-2.94,4.05,4.05,0,0,0-1.11-2.92,3.75,3.75,0,0,0-2.82-1.16m0,6.83a2.29,2.29,0,0,1-1.71-.72,2.84,2.84,0,0,1-.69-2,2.82,2.82,0,0,1,.69-2,2.38,2.38,0,0,1,3.41,0,2.82,2.82,0,0,1,.7,2,2.84,2.84,0,0,1-.7,2,2.27,2.27,0,0,1-1.7.72m-5.86-10.48h-1.5V28.66h1.5Zm-7.57,10.56a1.25,1.25,0,0,1-.9-.33,1.09,1.09,0,0,1-.35-.79,1,1,0,0,1,.31-.78,1.46,1.46,0,0,1,.81-.37l2.36-.35v.35a2.23,2.23,0,0,1-.61,1.73,2.37,2.37,0,0,1-1.62.54m-2.78-1a2.18,2.18,0,0,0,.72,1.63,2.61,2.61,0,0,0,1.85.68,2.85,2.85,0,0,0,1.55-.39,2.75,2.75,0,0,0,.93-.89,6.76,6.76,0,0,0,.08,1h1.48a7.19,7.19,0,0,1-.1-1.27V23.54a2.78,2.78,0,0,0-.78-2,3.86,3.86,0,0,0-4.56-.09,2.48,2.48,0,0,0-1,1.8l1.44.33a1.72,1.72,0,0,1,.53-1.12,1.64,1.64,0,0,1,1.21-.43,1.77,1.77,0,0,1,1.25.39,1.26,1.26,0,0,1,.42,1q0,.5-.6.57l-2.08.31a3,3,0,0,0-1.69.74,2.07,2.07,0,0,0-.64,1.59m-3.19-8.06H189v1.25a1.21,1.21,0,0,1-.3.85,1.13,1.13,0,0,1-.89.33h-.41v1.36h1.47v4.23a2.15,2.15,0,0,0,.58,1.61,2.07,2.07,0,0,0,1.56.58,2.91,2.91,0,0,0,1-.15V27.31a2.12,2.12,0,0,1-.59.07,1.13,1.13,0,0,1-.83-.26,1.14,1.14,0,0,1-.25-.8v-4h1.67V21h-1.67Zm-8.08,9.1a1.25,1.25,0,0,1-.9-.33,1.08,1.08,0,0,1-.34-.79,1,1,0,0,1,.3-.78,1.49,1.49,0,0,1,.82-.37l2.35-.35v.35a2.19,2.19,0,0,1-.61,1.73,2.35,2.35,0,0,1-1.62.54m-2.78-1a2.18,2.18,0,0,0,.72,1.63,2.61,2.61,0,0,0,1.86.68,2.82,2.82,0,0,0,1.54-.39,2.88,2.88,0,0,0,.94-.89,5.7,5.7,0,0,0,.08,1h1.47a7.19,7.19,0,0,1-.1-1.27V23.54a2.78,2.78,0,0,0-.78-2,3.31,3.31,0,0,0-2.42-.79,3.36,3.36,0,0,0-2.14.7,2.48,2.48,0,0,0-1,1.8l1.44.33a1.72,1.72,0,0,1,.53-1.12,1.66,1.66,0,0,1,1.21-.43,1.75,1.75,0,0,1,1.25.39,1.26,1.26,0,0,1,.42,1c0,.33-.2.52-.59.57l-2.08.31a3,3,0,0,0-1.7.74,2.07,2.07,0,0,0-.64,1.59m-4.69-4.48a1.91,1.91,0,0,1,1.39.48,2.41,2.41,0,0,1,.68,1.16l1.36-.58a3.36,3.36,0,0,0-1.15-1.73,3.46,3.46,0,0,0-2.28-.72,3.67,3.67,0,0,0-2.77,1.15A4.06,4.06,0,0,0,171,24.8a4.13,4.13,0,0,0,1.1,2.93,3.68,3.68,0,0,0,2.79,1.17,3.48,3.48,0,0,0,2.26-.72,3.63,3.63,0,0,0,1.21-1.68L177,25.92a2.4,2.4,0,0,1-.68,1.11,2,2,0,0,1-1.46.48,2.2,2.2,0,0,1-1.67-.72,2.76,2.76,0,0,1-.68-2,2.71,2.71,0,0,1,.68-2,2.2,2.2,0,0,1,1.65-.71M164,18.53h-1.38v1.25a1.21,1.21,0,0,1-.3.85,1.11,1.11,0,0,1-.88.33H161v1.36h1.47v4.23a2.15,2.15,0,0,0,.58,1.61,2.1,2.1,0,0,0,1.57.58,2.89,2.89,0,0,0,1-.15V27.31a2.12,2.12,0,0,1-.59.07,1.13,1.13,0,0,1-.83-.26,1.14,1.14,0,0,1-.24-.8v-4h1.66V21H164Zm-7.27,3.58a1.91,1.91,0,0,1,1.39.48,2.49,2.49,0,0,1,.68,1.16l1.36-.58A3.36,3.36,0,0,0,159,21.44a3.46,3.46,0,0,0-2.28-.72,3.67,3.67,0,0,0-2.77,1.15,4.06,4.06,0,0,0-1.1,2.93,4.13,4.13,0,0,0,1.1,2.93,3.68,3.68,0,0,0,2.79,1.17,3.46,3.46,0,0,0,2.26-.72,3.63,3.63,0,0,0,1.21-1.68l-1.33-.58a2.32,2.32,0,0,1-.68,1.11,2,2,0,0,1-1.46.48,2.2,2.2,0,0,1-1.67-.72,2.76,2.76,0,0,1-.68-2,2.71,2.71,0,0,1,.68-2,2.2,2.2,0,0,1,1.65-.71m-7.13,5.62a5.85,5.85,0,0,0,.06.93h1.44a13,13,0,0,1-.08-1.43V21h-1.5V25.6A2.09,2.09,0,0,1,149,27a1.69,1.69,0,0,1-1.36.54,1.55,1.55,0,0,1-1.32-.56,2.3,2.3,0,0,1-.42-1.42V21h-1.51v4.85a3.18,3.18,0,0,0,.79,2.22,2.67,2.67,0,0,0,2.09.87,3.1,3.1,0,0,0,1.35-.3,2.07,2.07,0,0,0,.93-.87m-9-.11a6.38,6.38,0,0,0,.08,1h1.45a12.3,12.3,0,0,1-.08-1.43V17.07h-1.48v5a2,2,0,0,0-.82-.92,2.86,2.86,0,0,0-1.54-.38,3.34,3.34,0,0,0-2.62,1.18,4.21,4.21,0,0,0-1,2.86,4.31,4.31,0,0,0,1,2.92,3.31,3.31,0,0,0,2.64,1.16,2.69,2.69,0,0,0,1.47-.4,2.53,2.53,0,0,0,.92-1ZM136,24.79a3,3,0,0,1,.63-2,2,2,0,0,1,1.64-.75,2,2,0,0,1,1.62.74,3,3,0,0,1,.59,1.93,3.14,3.14,0,0,1-.61,2,1.91,1.91,0,0,1-1.61.79,2,2,0,0,1-1.66-.77,3.11,3.11,0,0,1-.6-2m-6.75-4.07a3.75,3.75,0,0,0-2.82,1.16,4,4,0,0,0-1.12,2.92,4.09,4.09,0,0,0,1.11,2.94,4,4,0,0,0,5.66,0,4.09,4.09,0,0,0,1.11-2.94,4,4,0,0,0-1.12-2.92,3.75,3.75,0,0,0-2.82-1.16m0,6.83a2.27,2.27,0,0,1-1.7-.72,2.8,2.8,0,0,1-.7-2,2.78,2.78,0,0,1,.7-2,2.37,2.37,0,0,1,3.4,0,2.78,2.78,0,0,1,.7,2,2.8,2.8,0,0,1-.7,2,2.27,2.27,0,0,1-1.7.72m-4.82-6.67a2.63,2.63,0,0,0-.49-.05,2.38,2.38,0,0,0-2.31,1.48V21H120.2v7.7h1.51V24.8c0-1.58.7-2.37,2.11-2.37a4.87,4.87,0,0,1,.65.05Zm-7.72,3.92a3,3,0,0,1-.63,2,2,2,0,0,1-1.65.76,2,2,0,0,1-1.65-.76,3,3,0,0,1-.63-2,2.93,2.93,0,0,1,.63-1.93,2.06,2.06,0,0,1,1.65-.76,2,2,0,0,1,1.66.76,3,3,0,0,1,.62,1.93m-4.55,6.9V27.62a2.6,2.6,0,0,0,1,.89,3.09,3.09,0,0,0,1.51.36,3.22,3.22,0,0,0,2.61-1.16,4.33,4.33,0,0,0,1-2.91,4.41,4.41,0,0,0-.93-2.88,3.18,3.18,0,0,0-2.6-1.13,3.07,3.07,0,0,0-1.57.38,2.6,2.6,0,0,0-1,1V21h-1.46V31.7Zm-13-7.49a2.33,2.33,0,0,1,.47-1.51,1.57,1.57,0,0,1,1.32-.6c1.19,0,1.79.64,1.79,1.93v4.63h1.5V23.78a3.24,3.24,0,0,0-.71-2.19,2.49,2.49,0,0,0-2-.85,2.56,2.56,0,0,0-2.37,1.33V21H97.72v7.7h1.51ZM94.46,26a2.08,2.08,0,0,1-2.16,1.55,2.23,2.23,0,0,1-1.64-.66A2.3,2.3,0,0,1,90,25.23h5.79a3,3,0,0,0,0-.48,4.25,4.25,0,0,0-1-2.93,3.71,3.71,0,0,0-5.32.05,4.1,4.1,0,0,0-1.08,2.92,4,4,0,0,0,1.13,3A3.75,3.75,0,0,0,92.3,28.9a3.63,3.63,0,0,0,2.21-.68,3.46,3.46,0,0,0,1.24-1.75ZM90,24a2.1,2.1,0,0,1,.62-1.39,2,2,0,0,1,1.47-.58,2.06,2.06,0,0,1,1.54.55A2.11,2.11,0,0,1,94.24,24Zm-4.43.78a3,3,0,0,1-.63,2,2.17,2.17,0,0,1-3.3,0,3,3,0,0,1-.63-2,2.93,2.93,0,0,1,.63-1.93,2.06,2.06,0,0,1,1.65-.76,2,2,0,0,1,1.66.76,3,3,0,0,1,.62,1.93m-4.55,6.9V27.62a2.6,2.6,0,0,0,1,.89,3.09,3.09,0,0,0,1.51.36,3.22,3.22,0,0,0,2.61-1.16,4.33,4.33,0,0,0,1-2.91,4.36,4.36,0,0,0-.94-2.88,3.16,3.16,0,0,0-2.59-1.13,3,3,0,0,0-1.57.38,2.6,2.6,0,0,0-1,1V21H79.56V31.7ZM66.17,23a6,6,0,0,0,.84,3.2,5.54,5.54,0,0,0,2.12,2.05,5.92,5.92,0,0,0,5.47,0,5.47,5.47,0,0,0,2.12-2.05,6,6,0,0,0,.84-3.2,6.18,6.18,0,0,0-.49-2.51,5.2,5.2,0,0,0-1.29-1.87A6.11,6.11,0,0,0,74,17.47a5.69,5.69,0,0,0-4.19,0A6.06,6.06,0,0,0,68,18.6a5.22,5.22,0,0,0-1.3,1.87A6.18,6.18,0,0,0,66.17,23m1.6,0A4.39,4.39,0,0,1,69,19.69a4.14,4.14,0,0,1,5.79,0A4.39,4.39,0,0,1,76,23a4.4,4.4,0,0,1-1.2,3.29,4.12,4.12,0,0,1-5.79,0A4.4,4.4,0,0,1,67.77,23"/><path class="cls-5" d="M273.05,11.66c0-.05,0,0,0,0,0,1.54,0,3.08,0,4.62a1.29,1.29,0,0,0,1.28,1.25c1.53,0,3.05,0,4.58,0,0,0,.08,0,.05,0l-5.9-5.89M257.41,40.08a1.38,1.38,0,0,0,1.52,1.54q9.82,0,19.65,0a1.4,1.4,0,0,0,1.53-1.54V20.27a4,4,0,0,0-.39-1.67,3.62,3.62,0,0,1-1.59.2H274.6A2.62,2.62,0,0,1,271.81,16c0-1.29,0-2.58,0-3.88a3.16,3.16,0,0,1,.2-1.27,3.76,3.76,0,0,0-1.7-.39H259a1.4,1.4,0,0,0-1.55,1.57m-1.22,14c0-4.59,0-9.18,0-13.76a2.82,2.82,0,0,1,3-3c3.63.06,7.26,0,10.88,0a6,6,0,0,1,4.39,1.81q2.56,2.53,5.1,5.1a5.82,5.82,0,0,1,1.74,4.21q0,9.83,0,19.65a2.6,2.6,0,0,1-2.75,2.8H258.92a2.59,2.59,0,0,1-2.73-2.76V26"/><path class="cls-5" d="M280.72,12.81l2.8-3.17-.45,0c-.71,0-.87-.18-.87-.91V5.1h-3V8.39c0,1.17,0,1.17-1.16,1.24,0,0,0,0-.09.09.89,1,1.78,2,2.73,3.09m2.69-4.4h1.38a.62.62,0,0,1,.66.36.63.63,0,0,1-.14.7c-1.37,1.54-2.73,3.09-4.11,4.63a.59.59,0,0,1-1,0c-1.36-1.52-2.71-3.06-4.07-4.59a.62.62,0,0,1,.49-1.07h1.29c.17-.19.1-.38.1-.56,0-1,0-2.11,0-3.17,0-.64.19-.83.84-.83,1.24,0,2.49,0,3.73,0,.61,0,.81.2.81.82,0,1.22,0,2.44,0,3.74"/><path class="cls-5" d="M273,25.13c1.46,1.47,3.07,1.86,3.65,1-1-.91-2.28-.91-3.65-1m-5.23-10.78c-.76.64-.75,2.61,0,4.19.53-1.05.55-3.46,0-4.19m-6.87,15.7c.81.06,2.44-1.63,2.92-3.05-1.2.25-3,2.11-2.92,3.05m5.75-5.44a28.82,28.82,0,0,1,3.58-.61l-2.11-2.61c-.49,1.09-1,2.1-1.47,3.22m4.62.55a22,22,0,0,0-5.43.94A26.4,26.4,0,0,1,263.29,30a3.52,3.52,0,0,1-1.83,1.27,1.39,1.39,0,0,1-1.75-1.77,4.81,4.81,0,0,1,1.45-2.2,10.64,10.64,0,0,1,3.84-2.2,42,42,0,0,0,2.26-4.84,8.66,8.66,0,0,1-1.11-2.83,6.06,6.06,0,0,1,.05-2.84,2.38,2.38,0,0,1,.49-.93A1.35,1.35,0,0,1,269,14a4.94,4.94,0,0,1,.38,2.11,10,10,0,0,1-.61,3.51l-.15.47c1.05,1.31,2.05,2.63,3.17,3.88a13.83,13.83,0,0,1,3.75.32,4,4,0,0,1,1.71.82,1.44,1.44,0,0,1-.4,2.52,3.17,3.17,0,0,1-2.77-.17,10.44,10.44,0,0,1-2.81-2.26"/><path class="cls-5" d="M268.22,37.87c.81-.1,1.73.27,2.19-.67a2.52,2.52,0,0,0-.08-2.63c-.51-.75-1.36-.47-2.11-.54ZM267.06,36V33.84c0-.41.18-.69.62-.69a19.23,19.23,0,0,1,2,0,2.27,2.27,0,0,1,2.14,2.27,4.26,4.26,0,0,1-.1,1.55,2.2,2.2,0,0,1-2.18,1.75c-.6,0-1.2,0-1.81,0a.61.61,0,0,1-.68-.69c0-.7,0-1.41,0-2.11Z"/><path class="cls-5" d="M263,34V35.7a4.59,4.59,0,0,0,1.29-.05.76.76,0,0,0,.66-.81.74.74,0,0,0-.73-.79c-.4,0-.8,0-1.22,0m0,2.55c0,.51,0,1,0,1.51s-.13.73-.57.74-.57-.33-.57-.73c0-1.42,0-2.85,0-4.27,0-.44.2-.69.62-.69a13.69,13.69,0,0,1,2.31.06,1.48,1.48,0,0,1,1.33,1.51,1.54,1.54,0,0,1-1.19,1.74,6.91,6.91,0,0,1-1.7.1l-.24,0"/><path class="cls-5" d="M274,35.45c.64,0,1.23,0,1.81,0s.63.2.45.76a13.53,13.53,0,0,1-2.25.14c0,.6,0,1.2,0,1.8s-.25.74-.6.7a.54.54,0,0,1-.52-.58c0-1.51,0-3,0-4.54a.51.51,0,0,1,.52-.57c1,0,2,0,3,0,.1,0,.21.09.28.12a.6.6,0,0,1,0,.6c-.82.34-1.74,0-2.64.19a10,10,0,0,0-.05,1.38"/></g></g></g></svg>